<svg width="55" height="55" viewBox="0 0 55 55" fill="none" xmlns="http://www.w3.org/2000/svg">
<path d="M27.5 20.3036C29.4794 20.3036 31.0843 21.9085 31.0843 23.8879V40.2297C31.0843 42.2094 29.4794 43.814 27.5 43.814C25.5207 43.814 23.9158 42.2094 23.9158 40.2297V23.8876C23.9158 21.9082 25.5207 20.3036 27.5 20.3036Z" fill="white"/>
<path d="M27.5009 18.3528C26.5575 18.3528 25.631 17.9714 24.9658 17.3033C24.298 16.6381 23.9166 15.7148 23.9166 14.7714C23.9166 13.828 24.298 12.9019 24.9658 12.2366C25.631 11.5685 26.5575 11.1872 27.5009 11.1872C28.4442 11.1872 29.3675 11.5685 30.0356 12.2366C30.7006 12.9019 31.0851 13.828 31.0851 14.7714C31.0851 15.7148 30.7006 16.6381 30.0356 17.3033C29.3675 17.9714 28.4442 18.3528 27.5009 18.3528Z" fill="white"/>
<path d="M27.5 55C12.3367 55 0 42.6636 0 27.5C0 12.3364 12.3364 4.38261e-06 27.5 4.38261e-06C42.6636 4.38261e-06 54.9997 12.3364 54.9997 27.5C54.9997 42.6636 42.6636 55 27.5 55ZM27.5 4.30109C14.708 4.30109 4.30109 14.708 4.30109 27.5C4.30109 40.292 14.708 50.6989 27.5 50.6989C40.2917 50.6989 50.6986 40.292 50.6986 27.5C50.6986 14.708 40.292 4.30109 27.5 4.30109Z" fill="white"/>
</svg>
