<svg width="66" height="67" viewBox="0 0 66 67" fill="none" xmlns="http://www.w3.org/2000/svg">
<path d="M2.77197 22.5732V57.8304C2.77197 59.454 4.06797 60.774 5.66205 60.774H59.5109C61.1049 60.774 62.4009 59.4672 62.4009 57.8304V22.5732H2.77197Z" fill="#3E92CC"/>
<path d="M62.388 14.4816C62.388 12.858 61.1049 11.538 59.4979 11.538H53.0568H12.1032H5.66205C4.06797 11.5512 2.77197 12.858 2.77197 14.4816V22.5732H62.388V14.4816Z" fill="#3E92CC"/>
<path d="M30.0139 27.9588H23.832V34.2552H30.0139V27.9588Z" fill="#3E92CC"/>
<path d="M41.3409 27.9588H35.159V34.2552H41.3409V27.9588Z" fill="#3E92CC"/>
<path d="M52.655 27.9588H46.4731V34.2552H52.655V27.9588Z" fill="#3E92CC"/>
<path d="M18.6869 39.0072H12.5049V45.3036H18.6869V39.0072Z" fill="#3E92CC"/>
<path d="M30.0139 39.0072H23.832V45.3036H30.0139V39.0072Z" fill="#3E92CC"/>
<path d="M41.3409 39.0072H35.159V45.3036H41.3409V39.0072Z" fill="#3E92CC"/>
<path d="M52.655 39.0072H46.4731V45.3036H52.655V39.0072Z" fill="#3E92CC"/>
<path d="M18.6869 50.0556H12.5049V56.352H18.6869V50.0556Z" fill="#3E92CC"/>
<path d="M30.0139 50.0556H23.832V56.352H30.0139V50.0556Z" fill="#3E92CC"/>
<path d="M41.3409 50.0556H35.159V56.352H41.3409V50.0556Z" fill="#3E92CC"/>
<path d="M17.0928 8.93761V14.4156C17.0928 15.8148 15.9653 16.9632 14.5915 16.9632C13.2048 16.9632 12.0902 15.8148 12.0902 14.4156V8.93761C12.0902 7.53841 13.2048 6.39001 14.5915 6.39001C15.2784 6.39001 15.9005 6.68041 16.367 7.12921C16.8206 7.60441 17.0928 8.23801 17.0928 8.93761Z" fill="#3E92CC"/>
<path d="M29.0807 8.93761V14.4156C29.0807 15.8148 27.9532 16.9632 26.5795 16.9632C25.1927 16.9632 24.0782 15.8148 24.0782 14.4156V8.93761C24.0782 7.53841 25.1927 6.39001 26.5795 6.39001C27.2663 6.39001 27.8884 6.68041 28.355 7.12921C28.8086 7.60441 29.0807 8.23801 29.0807 8.93761Z" fill="#3E92CC"/>
<path d="M41.0688 8.93761V14.4156C41.0688 15.8148 39.9413 16.9632 38.5675 16.9632C37.1808 16.9632 36.0662 15.8148 36.0662 14.4156V8.93761C36.0662 7.53841 37.1808 6.39001 38.5675 6.39001C39.2544 6.39001 39.8765 6.68041 40.343 7.12921C40.7966 7.60441 41.0688 8.23801 41.0688 8.93761Z" fill="#3E92CC"/>
<path d="M53.0698 8.93761V14.4156C53.0698 15.8148 51.9422 16.9632 50.5685 16.9632C49.1818 16.9632 48.0672 15.8148 48.0672 14.4156V8.93761C48.0672 7.53841 49.1818 6.39001 50.5685 6.39001C51.2554 6.39001 51.8774 6.68041 52.344 7.12921C52.7846 7.60441 53.0698 8.23801 53.0698 8.93761Z" fill="#3E92CC"/>
<path d="M59.4979 10.5612H54.0288V8.93761C54.0288 8.00041 53.6659 7.11601 53.0049 6.42961C52.344 5.76961 51.4757 5.40001 50.5555 5.40001C48.6374 5.40001 47.0822 6.98401 47.0822 8.93761V10.548H42.0408V8.93761C42.0408 8.00041 41.6779 7.11601 41.0169 6.42961C40.356 5.76961 39.4877 5.40001 38.5675 5.40001C36.6494 5.40001 35.0942 6.98401 35.0942 8.93761V10.548H30.0528V8.93761C30.0528 8.00041 29.6899 7.11601 29.0289 6.42961C28.368 5.76961 27.4997 5.40001 26.5795 5.40001C24.6614 5.40001 23.1062 6.98401 23.1062 8.93761V10.548H18.0648V8.93761C18.0648 8.00041 17.7019 7.11601 17.0409 6.42961C16.38 5.76961 15.5117 5.40001 14.5915 5.40001C12.6734 5.40001 11.1182 6.98401 11.1182 8.93761V10.548H5.66207C3.53663 10.548 1.79999 12.3036 1.79999 14.4816V57.8304C1.79999 59.9952 3.52367 61.764 5.66207 61.764H59.5109C61.6363 61.764 63.3729 60.0084 63.3729 57.8304V14.4816C63.36 12.3168 61.6363 10.5612 59.4979 10.5612ZM49.0392 8.93761C49.0392 8.07961 49.7261 7.38001 50.5685 7.38001C51.0869 7.38001 51.4497 7.63081 51.6441 7.82881C51.8515 8.04001 52.0978 8.40961 52.0978 8.93761V11.538V11.5512V11.5644V14.4156C52.0978 15.2736 51.4109 15.9732 50.5685 15.9732C49.7261 15.9732 49.0392 15.2736 49.0392 14.4156V8.93761ZM37.0512 8.93761C37.0512 8.07961 37.7381 7.38001 38.5805 7.38001C39.0989 7.38001 39.4617 7.63081 39.6561 7.82881C39.8635 8.04001 40.1097 8.40961 40.1097 8.93761V11.5248C40.1097 11.538 40.1097 11.538 40.1097 11.5512C40.1097 11.5644 40.1097 11.5644 40.1097 11.5776V14.4288C40.1097 15.2868 39.4229 15.9864 38.5805 15.9864C37.7381 15.9864 37.0512 15.2868 37.0512 14.4288V8.93761ZM26.5925 7.38001C27.1109 7.38001 27.4737 7.63081 27.6681 7.82881C27.8755 8.04001 28.1217 8.40961 28.1217 8.93761V14.4156C28.1217 15.2736 27.4349 15.9732 26.5925 15.9732C25.7501 15.9732 25.0632 15.2736 25.0632 14.4156V11.5644C25.0632 11.5512 25.0632 11.5512 25.0632 11.5512V11.538V8.93761C25.0632 8.07961 25.7371 7.38001 26.5925 7.38001ZM14.5915 7.38001C15.1099 7.38001 15.4728 7.63081 15.6672 7.82881C15.8745 8.04001 16.1208 8.40961 16.1208 8.93761V14.4156C16.1208 15.2736 15.4339 15.9732 14.5915 15.9732C13.7491 15.9732 13.0622 15.2736 13.0622 14.4156V11.5512C13.0622 11.5512 13.0622 11.5512 13.0622 11.538C13.0622 11.5248 13.0622 11.538 13.0622 11.5248V8.93761C13.0752 8.07961 13.7491 7.38001 14.5915 7.38001ZM5.66207 12.5412H11.1312V14.4156C11.1312 16.3692 12.6864 17.9532 14.6045 17.9532C16.5225 17.9532 18.0777 16.3692 18.0777 14.4156V12.5412H23.1192V14.4156C23.1192 16.3692 24.6744 17.9532 26.5925 17.9532C28.5105 17.9532 30.0657 16.3692 30.0657 14.4156V12.5412H35.1072V14.4156C35.1072 16.3692 36.6624 17.9532 38.5805 17.9532C40.4985 17.9532 42.0537 16.3692 42.0537 14.4156V12.5412H47.0952V14.4156C47.0952 16.3692 48.6504 17.9532 50.5685 17.9532C52.4865 17.9532 54.0417 16.3692 54.0417 14.4156V12.5412H59.5109C60.5606 12.5412 61.4289 13.4124 61.4289 14.4948V21.5964H3.74399V14.4948C3.74399 13.4124 4.59935 12.5412 5.66207 12.5412ZM59.4979 59.784H5.66207C4.61231 59.784 3.74399 58.9128 3.74399 57.8304V23.5632H61.416V57.8304C61.416 58.8996 60.5606 59.784 59.4979 59.784Z" fill="white"/>
<path d="M30.001 26.9688H23.819C23.2877 26.9688 22.847 27.4176 22.847 27.9588V34.2552C22.847 34.7964 23.2877 35.2452 23.819 35.2452H30.001C30.5323 35.2452 30.973 34.7964 30.973 34.2552V27.9588C30.973 27.4176 30.5453 26.9688 30.001 26.9688ZM29.029 33.2652H24.804V28.9488H29.0419V33.2652H29.029Z" fill="white"/>
<path d="M41.328 26.9688H35.1461C34.6147 26.9688 34.1741 27.4176 34.1741 27.9588V34.2552C34.1741 34.7964 34.6147 35.2452 35.1461 35.2452H41.328C41.8593 35.2452 42.3 34.7964 42.3 34.2552V27.9588C42.3 27.4176 41.8723 26.9688 41.328 26.9688ZM40.356 33.2652H36.1181V28.9488H40.356V33.2652Z" fill="white"/>
<path d="M52.655 26.9688H46.4731C45.9417 26.9688 45.5011 27.4176 45.5011 27.9588V34.2552C45.5011 34.7964 45.9417 35.2452 46.4731 35.2452H52.655C53.1864 35.2452 53.627 34.7964 53.627 34.2552V27.9588C53.627 27.4176 53.1993 26.9688 52.655 26.9688ZM51.683 33.2652H47.4451V28.9488H51.683V33.2652Z" fill="white"/>
<path d="M18.6869 38.0172H12.505C11.9736 38.0172 11.533 38.466 11.533 39.0072V45.3036C11.533 45.8448 11.9736 46.2936 12.505 46.2936H18.6869C19.2182 46.2936 19.6589 45.8448 19.6589 45.3036V39.0072C19.6589 38.4528 19.2182 38.0172 18.6869 38.0172ZM17.7149 44.3136H13.477V39.9972H17.7149V44.3136Z" fill="white"/>
<path d="M30.001 38.0172H23.819C23.2877 38.0172 22.847 38.466 22.847 39.0072V45.3036C22.847 45.8448 23.2877 46.2936 23.819 46.2936H30.001C30.5323 46.2936 30.973 45.8448 30.973 45.3036V39.0072C30.973 38.4528 30.5453 38.0172 30.001 38.0172ZM29.029 44.3136H24.804V39.9972H29.0419V44.3136H29.029Z" fill="white"/>
<path d="M41.328 38.0172H35.1461C34.6147 38.0172 34.1741 38.466 34.1741 39.0072V45.3036C34.1741 45.8448 34.6147 46.2936 35.1461 46.2936H41.328C41.8593 46.2936 42.3 45.8448 42.3 45.3036V39.0072C42.3 38.4528 41.8723 38.0172 41.328 38.0172ZM40.356 44.3136H36.1181V39.9972H40.356V44.3136Z" fill="white"/>
<path d="M52.655 38.0172H46.4731C45.9417 38.0172 45.5011 38.466 45.5011 39.0072V45.3036C45.5011 45.8448 45.9417 46.2936 46.4731 46.2936H52.655C53.1864 46.2936 53.627 45.8448 53.627 45.3036V39.0072C53.627 38.4528 53.1993 38.0172 52.655 38.0172ZM51.683 44.3136H47.4451V39.9972H51.683V44.3136Z" fill="white"/>
<path d="M18.6869 49.0656H12.505C11.9736 49.0656 11.533 49.5144 11.533 50.0556V56.352C11.533 56.8932 11.9736 57.342 12.505 57.342H18.6869C19.2182 57.342 19.6589 56.8932 19.6589 56.352V50.0556C19.6589 49.5012 19.2182 49.0656 18.6869 49.0656ZM17.7149 55.3488H13.477V51.0324H17.7149V55.3488Z" fill="white"/>
<path d="M30.001 49.0656H23.819C23.2877 49.0656 22.847 49.5144 22.847 50.0556V56.352C22.847 56.8932 23.2877 57.342 23.819 57.342H30.001C30.5323 57.342 30.973 56.8932 30.973 56.352V50.0556C30.973 49.5012 30.5453 49.0656 30.001 49.0656ZM29.029 55.3488H24.804V51.0324H29.0419V55.3488H29.029Z" fill="white"/>
<path d="M41.328 49.0656H35.1461C34.6147 49.0656 34.1741 49.5144 34.1741 50.0556V56.352C34.1741 56.8932 34.6147 57.342 35.1461 57.342H41.328C41.8593 57.342 42.3 56.8932 42.3 56.352V50.0556C42.3 49.5012 41.8723 49.0656 41.328 49.0656ZM40.356 55.3488H36.1181V51.0324H40.356V55.3488Z" fill="white"/>
</svg>
