<svg width="32" height="32" viewBox="0 0 32 32" fill="none" xmlns="http://www.w3.org/2000/svg">
<circle cx="16" cy="16" r="16" fill="#3E92CC"/>
<path d="M12.9296 11.3232H22.0246C22.2128 11.3232 22.3654 11.1693 22.3654 10.9794C22.3654 10.7896 22.2128 10.6357 22.0246 10.6357H12.9296C12.7414 10.6357 12.5888 10.7896 12.5888 10.9794C12.5888 11.1693 12.7414 11.3232 12.9296 11.3232Z" fill="white"/>
<path d="M12.9296 13.871H22.0246C22.2128 13.871 22.3654 13.7171 22.3654 13.5272C22.3654 13.3374 22.2128 13.1835 22.0246 13.1835H12.9296C12.7414 13.1835 12.5888 13.3374 12.5888 13.5272C12.5888 13.7171 12.7414 13.871 12.9296 13.871Z" fill="white"/>
<path d="M12.9296 16.4188H22.0246C22.2128 16.4188 22.3654 16.2649 22.3654 16.075C22.3654 15.8852 22.2128 15.7313 22.0246 15.7313H12.9296C12.7414 15.7313 12.5888 15.8852 12.5888 16.075C12.5888 16.2649 12.7414 16.4188 12.9296 16.4188Z" fill="white"/>
<path d="M25.3672 7.60102C25.3643 7.51485 25.3286 7.43061 25.268 7.36952L21.2341 3.30071C21.171 3.23709 21.0822 3.20001 20.9931 3.20001H10.9229C10.186 3.20001 9.58643 3.80478 9.58643 4.54815V4.80702H9.32979C8.64065 4.80702 8.07179 5.33585 8.00082 6.01225H7.73659C6.9996 6.01225 6.40002 6.61703 6.40002 7.3604V20.4135C6.40002 20.6034 6.55261 20.4135 6.74082 20.4135C6.92903 20.4135 7.08162 20.6034 7.08162 20.4135V7.36035C7.08162 6.99607 7.37543 6.69971 7.73659 6.69971H7.99323V24.1133C7.99323 24.8567 8.5928 25.4614 9.32979 25.4614H19.4846C19.6728 25.4614 19.2075 25.3075 19.2075 25.1177C19.2075 24.9279 19.6728 24.7739 19.4846 24.7739H9.32979C8.96864 24.7739 8.67482 24.4776 8.67482 24.1133V6.15512C8.67482 5.79083 8.96864 5.49447 9.32979 5.49447H9.58643L9.58643 8.85716C9.58643 9.047 9.73902 7.7107 9.92723 7.7107C10.1154 7.7107 10.268 9.0549 10.268 8.86506V4.54815C10.268 4.18387 10.5618 3.88751 10.9229 3.88751H20.6523V6.60836C20.6523 7.35164 21.2518 7.95632 21.9887 7.95632H24.6862V22.5063C24.6862 22.8706 24.3923 23.1669 24.0312 23.1669H10.9229C10.5618 23.1669 10.268 22.8706 10.268 22.5063V8.86506C10.268 8.67522 10.1154 6.01225 9.92723 6.01225C9.73902 6.01225 9.58643 7.05682 9.58643 8.86506V22.5063C9.58643 23.2497 10.186 23.8544 10.9229 23.8544H23.093V24.1133C23.093 24.4776 22.7992 24.7739 22.438 24.7739H19.4846C19.2964 24.7739 19.1438 24.9279 19.1438 25.1177C19.1438 25.3075 19.2964 25.4614 19.4846 25.4614H21.4839C21.419 25.7572 21.1573 25.9792 20.8448 25.9792H7.73659C7.37543 25.9792 7.08162 25.6828 7.08162 25.3185V20.4135C7.08162 20.2237 6.92903 20.0698 6.74082 20.0698C6.55261 20.0698 6.40002 20.2237 6.40002 20.4135V25.3185C6.40002 26.0619 6.9996 26.6667 7.73659 26.6667H20.8449C21.534 26.6667 22.1029 26.1379 22.1738 25.4614H22.4381C23.1751 25.4614 23.7746 24.8567 23.7746 24.1133V23.8544H24.0313C24.7683 23.8544 25.3678 23.2497 25.3678 22.5063V7.61257C25.3678 7.60872 25.3673 7.60487 25.3672 7.60102ZM21.9887 7.26882C21.6277 7.26882 21.3339 6.97255 21.3339 6.60836V4.37362L24.2043 7.26882H21.9887Z" fill="white"/>
</svg>
