<svg width="75" height="81" viewBox="0 0 75 81" fill="none" xmlns="http://www.w3.org/2000/svg">
<path d="M19.25 17.25V8.04995H25.55V17.2555V18.1057L26.4002 18.1055L48.0002 18.1L48.85 18.0997V17.25V8.04995H54.75V17.25V18.1H55.6H60.052C62.7393 18.1 63.573 18.4011 64.4029 18.8808C65.2616 19.377 65.9406 20.1059 66.4101 21.0545C66.8682 21.9802 67.15 22.9146 67.15 25.839V65.6109C67.15 68.5353 66.8682 69.4697 66.4101 70.3954C65.9406 71.344 65.2616 72.0729 64.4029 72.5691C63.573 73.0488 62.7393 73.35 60.052 73.35H13.948C11.2607 73.35 10.427 73.0488 9.5971 72.5691C8.73842 72.0729 8.0594 71.344 7.58992 70.3954C7.16607 69.5389 6.89492 68.6759 6.85509 66.2602L6.85 25.839C6.85 25.8389 6.85 25.8389 6.85 25.8389C6.85001 22.9146 7.13181 21.9802 7.58992 21.0545C8.0594 20.1059 8.73841 19.377 9.5971 18.8808C10.3661 18.4363 11.1366 18.1482 13.3493 18.1054L18.4009 18.0999L19.25 18.099V17.25ZM48.5832 41.6636L47.9595 40.9896L47.3356 41.6635L34.8056 55.1996L26.6629 46.4012L26.039 45.7271L25.4152 46.4013L21.0311 51.1389L20.4969 51.7162L21.0311 52.2935L34.1833 66.5063L34.8072 67.1805L35.4311 66.5063L52.9673 47.5559L53.5015 46.9786L52.9673 46.4013L48.5832 41.6636ZM14.45 33.8827V34.7327H15.3H59.4H60.25V33.8827V27.6C60.25 26.9661 60.0659 26.4137 59.684 25.9815C59.3163 25.5653 58.8336 25.3384 58.3742 25.208C57.5792 24.9822 56.6039 24.9857 55.8358 24.9884C55.7548 24.9887 55.676 24.989 55.6 24.989H36.6H18.4C17.4895 24.989 16.5165 25.1191 15.7498 25.6097C14.9131 26.1451 14.45 27.0246 14.45 28.1999V33.8827Z" fill="#3E92CC" stroke="white" stroke-width="1.7"/>
<rect x="15.6" y="38.3999" width="39.6" height="32.4" fill="#3E92CC"/>
<line x1="24.9141" y1="43.0249" x2="46.8064" y2="61.5695" stroke="white" stroke-width="3" stroke-linecap="round"/>
<line x1="25.3671" y1="61.5689" x2="47.0852" y2="43.0328" stroke="white" stroke-width="3" stroke-linecap="round"/>
</svg>
