<svg width="62" height="68" viewBox="0 0 62 68" fill="none" xmlns="http://www.w3.org/2000/svg">
<path d="M19.55 10.2555V11.1057L20.4002 11.1055L42.0002 11.1L42.85 11.0998V10.25V2.20001C42.85 1.56489 43.3649 1.05001 44 1.05001H47.6C48.2351 1.05001 48.75 1.56489 48.75 2.20001V10.25V11.1H49.6H54.052C56.7393 11.1 57.573 11.4012 58.4029 11.8808C59.2616 12.3771 59.9406 13.106 60.4101 14.0546C60.8682 14.9803 61.15 15.9147 61.15 18.839V58.611C61.15 61.5354 60.8682 62.4697 60.4101 63.3954C59.9406 64.3441 59.2616 65.0729 58.4029 65.5692C57.573 66.0488 56.7393 66.35 54.052 66.35H7.94805C5.26072 66.35 4.42702 66.0488 3.5971 65.5692C2.73841 65.0729 2.0594 64.3441 1.58992 63.3954C1.16607 62.539 0.894924 61.6759 0.855092 59.2603L0.85 18.839C0.85 18.839 0.85 18.839 0.85 18.8389C0.850007 15.9146 1.13181 14.9803 1.58992 14.0546C2.0594 13.106 2.73841 12.3771 3.5971 11.8808C4.3661 11.4364 5.13659 11.1482 7.34932 11.1055L12.4009 11.1L13.25 11.0991V10.25V2.20001C13.25 1.56489 13.7649 1.05001 14.4 1.05001H18.4C19.0351 1.05001 19.55 1.56488 19.55 2.20001V10.2555ZM42.5832 34.6637L41.9595 33.9896L41.3356 34.6636L28.8056 48.1997L20.6629 39.4013L20.039 38.7272L19.4152 39.4013L15.0311 44.1389L14.4969 44.7162L15.0311 45.2936L28.1833 59.5064L28.8072 60.1806L29.4311 59.5064L46.9673 40.5559L47.5015 39.9786L46.9673 39.4013L42.5832 34.6637ZM8.45 26.8828V27.7328H9.3H53.4H54.25V26.8828V20.6C54.25 19.9662 54.0659 19.4137 53.684 18.9815C53.3163 18.5653 52.8336 18.3385 52.3742 18.208C51.5792 17.9823 50.6039 17.9857 49.8358 17.9885C49.7548 17.9887 49.676 17.989 49.6 17.989H30.6H12.4C11.4895 17.989 10.5165 18.1191 9.74983 18.6097C8.91315 19.1451 8.45 20.0246 8.45 21.2V26.8828Z" fill="white" stroke="white" stroke-width="1.7"/>
<rect x="9.6001" y="31.4" width="39.6" height="32.4" fill="white"/>
<line x1="20.8188" y1="36.7666" x2="41.948" y2="54.6648" stroke="black" stroke-width="4" stroke-linecap="round"/>
<line x1="20.6228" y1="54.664" x2="41.5803" y2="36.7771" stroke="black" stroke-width="4" stroke-linecap="round"/>
</svg>
