<svg width="32" height="32" viewBox="0 0 32 32" fill="none" xmlns="http://www.w3.org/2000/svg">
<circle cx="16" cy="16" r="16" fill="#3E92CC"/>
<path d="M24.6573 6.55575L21.7239 3.35575C21.6784 3.30625 21.6245 3.26702 21.5651 3.2403C21.5057 3.21358 21.442 3.19989 21.3778 3.20001H10.6222C10.4926 3.20001 10.3682 3.2562 10.2765 3.35622C10.1849 3.45624 10.1333 3.5919 10.1333 3.73335V6.40001H7.6889C7.55924 6.40001 7.43489 6.4562 7.3432 6.55622C7.25152 6.65624 7.20001 6.7919 7.20001 6.93335V26.1333C7.20001 26.2748 7.25152 26.4104 7.3432 26.5105C7.43489 26.6105 7.55924 26.6667 7.6889 26.6667H21.3778C21.5075 26.6667 21.6318 26.6105 21.7235 26.5105C21.8152 26.4104 21.8667 26.2748 21.8667 26.1333V23.4667H24.3111C24.4408 23.4667 24.5651 23.4105 24.6568 23.3105C24.7485 23.2104 24.8 23.0748 24.8 22.9333V6.93335C24.8001 6.86326 24.7876 6.79384 24.7631 6.72905C24.7386 6.66426 24.7026 6.60537 24.6573 6.55575ZM21.8667 5.02081L23.1309 6.40001H21.8667V5.02081ZM20.8889 25.6H8.17779V7.46668H10.1333V22.9333C10.1333 23.0748 10.1849 23.2104 10.2765 23.3105C10.3682 23.4105 10.4926 23.4667 10.6222 23.4667H20.8889V25.6ZM11.1111 22.4V4.26668H20.8889V6.93335C20.8889 7.07479 20.9404 7.21045 21.0321 7.31047C21.1238 7.41049 21.2481 7.46668 21.3778 7.46668H23.8222V22.4H11.1111Z" fill="white"/>
<path d="M12.5778 9.60004C12.7075 9.60004 12.8318 9.54385 12.9235 9.44383C13.0152 9.34381 13.0667 9.20816 13.0667 9.06671V8.53337H14.0445V9.06671C14.0445 9.20816 14.096 9.34381 14.1877 9.44383C14.2794 9.54385 14.4037 9.60004 14.5334 9.60004C14.663 9.60004 14.7874 9.54385 14.8791 9.44383C14.9708 9.34381 15.0223 9.20816 15.0223 9.06671V6.93337C15.0223 6.50903 14.8677 6.10206 14.5927 5.802C14.3176 5.50195 13.9446 5.33337 13.5556 5.33337C13.1666 5.33337 12.7936 5.50195 12.5185 5.802C12.2435 6.10206 12.0889 6.50903 12.0889 6.93337V9.06671C12.0889 9.20816 12.1404 9.34381 12.2321 9.44383C12.3238 9.54385 12.4482 9.60004 12.5778 9.60004ZM13.5556 6.40004C13.6853 6.40004 13.8096 6.45623 13.9013 6.55625C13.993 6.65627 14.0445 6.79193 14.0445 6.93337V7.46671H13.0667V6.93337C13.0667 6.79193 13.1182 6.65627 13.2099 6.55625C13.3016 6.45623 13.4259 6.40004 13.5556 6.40004Z" fill="white"/>
<path d="M12.8013 18.1049H15.7346C15.8643 18.1049 15.9886 18.0487 16.0803 17.9487C16.172 17.8487 16.2235 17.7131 16.2235 17.5716C16.2235 17.4302 16.172 17.2945 16.0803 17.1945C15.9886 17.0945 15.8643 17.0383 15.7346 17.0383H12.8013C12.6716 17.0383 12.5473 17.0945 12.4556 17.1945C12.3639 17.2945 12.3124 17.4302 12.3124 17.5716C12.3124 17.7131 12.3639 17.8487 12.4556 17.9487C12.5473 18.0487 12.6716 18.1049 12.8013 18.1049Z" fill="white"/>
<path d="M22.3556 20.2667H12.5778C12.4482 20.2667 12.3238 20.3229 12.2321 20.4229C12.1404 20.5229 12.0889 20.6585 12.0889 20.8C12.0889 20.9414 12.1404 21.0771 12.2321 21.1771C12.3238 21.2771 12.4482 21.3333 12.5778 21.3333H22.3556C22.4853 21.3333 22.6096 21.2771 22.7013 21.1771C22.793 21.0771 22.8445 20.9414 22.8445 20.8C22.8445 20.6585 22.793 20.5229 22.7013 20.4229C22.6096 20.3229 22.4853 20.2667 22.3556 20.2667Z" fill="white"/>
<path d="M22.579 14.5352H12.8013C12.6716 14.5352 12.5473 14.5913 12.4556 14.6914C12.3639 14.7914 12.3124 14.927 12.3124 15.0685C12.3124 15.2099 12.3639 15.3456 12.4556 15.4456C12.5473 15.5456 12.6716 15.6018 12.8013 15.6018H22.579C22.7087 15.6018 22.8331 15.5456 22.9247 15.4456C23.0164 15.3456 23.0679 15.2099 23.0679 15.0685C23.0679 14.927 23.0164 14.7914 22.9247 14.6914C22.8331 14.5913 22.7087 14.5352 22.579 14.5352Z" fill="white"/>
<path d="M22.579 12.032H12.8013C12.6716 12.032 12.5473 12.0882 12.4556 12.1883C12.3639 12.2883 12.3124 12.4239 12.3124 12.5654C12.3124 12.7068 12.3639 12.8425 12.4556 12.9425C12.5473 13.0425 12.6716 13.0987 12.8013 13.0987H22.579C22.7087 13.0987 22.8331 13.0425 22.9247 12.9425C23.0164 12.8425 23.0679 12.7068 23.0679 12.5654C23.0679 12.4239 23.0164 12.2883 22.9247 12.1883C22.8331 12.0882 22.7087 12.032 22.579 12.032Z" fill="white"/>
</svg>
