<svg width="258" height="376" viewBox="0 0 258 376" fill="none" xmlns="http://www.w3.org/2000/svg">
<g clip-path="url(#clip0_172_11)">
<g opacity="0.4">
<path opacity="0.4" d="M231.924 235.429C231.922 236.801 231.497 238.15 230.693 239.338C229.888 240.526 228.732 241.512 227.34 242.197L31.7595 338.746C30.3765 339.424 28.8099 339.781 27.2155 339.781C25.6212 339.781 24.0546 339.424 22.6716 338.746C21.2674 338.067 20.0981 337.083 19.2823 335.894C18.4664 334.704 18.0329 333.352 18.0258 331.973C18.0186 330.594 18.4381 329.238 19.2416 328.043C20.0451 326.847 21.2041 325.854 22.6012 325.165L218.182 228.676C219.572 227.989 221.149 227.626 222.754 227.625C224.36 227.623 225.938 227.982 227.33 228.666C228.722 229.35 229.879 230.335 230.685 231.522C231.492 232.709 231.919 234.056 231.924 235.429Z" fill="#D6D8E5"/>
</g>
<path d="M244.76 6.76799C244.953 6.72287 245.138 6.67023 245.331 6.63263L245.859 6.53487L246.545 6.44463H246.933C247.214 6.44463 247.487 6.44463 247.751 6.44463H247.944C248.266 6.46024 248.587 6.49542 248.903 6.54991L249.123 6.59504C249.365 6.64022 249.603 6.69798 249.836 6.76799L250.056 6.83567C250.357 6.93196 250.651 7.045 250.936 7.17407L238.082 0.751993H238.012C237.803 0.648228 237.585 0.557743 237.361 0.481273H237.229L237.018 0.413593C236.903 0.413593 236.798 0.338393 236.683 0.315833L236.305 0.240633L236.076 0.195513C236.035 0.191262 235.994 0.191262 235.953 0.195513C235.697 0.156389 235.438 0.128778 235.179 0.112793H234.897C234.695 0.112793 234.493 0.112793 234.29 0.112793H234.07H233.683H233.323L233.006 0.172953L232.478 0.270713L232.258 0.293273L231.968 0.375993L231.088 0.646713C230.982 0.684313 230.877 0.699353 230.762 0.744473L230.578 0.819673C230.023 1.023 229.482 1.25401 228.959 1.51151L12.8622 108.123L25.6804 114.492L241.716 7.88095C242.242 7.62337 242.785 7.39236 243.343 7.18912L243.845 7.01615L244.76 6.76799Z" fill="#E9EAF4"/>
<path d="M13.2933 274.924L12.8182 133.548C12.8248 132.899 12.8747 132.251 12.9677 131.607C12.9677 131.45 12.9677 131.299 13.0381 131.141C13.0381 130.848 13.1437 130.555 13.2141 130.261C13.2845 129.968 13.3021 129.855 13.3548 129.652C13.4076 129.449 13.4604 129.284 13.5132 129.096C13.566 128.908 13.6716 128.569 13.7595 128.344L13.9179 127.893C14.0323 127.592 14.1466 127.299 14.2698 127.005C14.3138 126.885 14.3666 126.765 14.4194 126.644C14.5953 126.238 14.7889 125.832 14.9912 125.434C15.011 125.387 15.0345 125.342 15.0616 125.298C15.2463 124.937 15.4487 124.546 15.651 124.223C15.7126 124.118 15.783 124.005 15.8446 123.892C16.044 123.561 16.2551 123.23 16.478 122.899L16.6012 122.711C16.8563 122.328 17.129 121.959 17.4106 121.583L17.6657 121.267C17.868 120.997 18.088 120.734 18.2991 120.515L18.6598 120.102L19.2405 119.463L19.7419 118.944C19.9003 118.778 20.0674 118.62 20.2346 118.463C20.4018 118.305 20.7977 117.936 21.1144 117.711L21.5367 117.342C22.116 116.86 22.7239 116.403 23.3578 115.973L23.6921 115.763C24.3299 115.337 24.9999 114.947 25.6979 114.597L12.8798 108.228C12.1803 108.58 11.5074 108.969 10.8651 109.393L10.5308 109.604C9.91496 110.025 9.30792 110.484 8.71848 110.973L8.56012 111.085C8.47214 111.168 8.38416 111.258 8.28739 111.341C7.99707 111.589 7.70674 111.852 7.40762 112.093C7.31085 112.183 7.21408 112.259 7.1261 112.349L6.91496 112.574C6.739 112.74 6.58065 112.92 6.41349 113.093C6.24633 113.266 6.18475 113.319 6.07918 113.439C5.97361 113.559 5.91202 113.635 5.82405 113.732C5.73607 113.83 5.58651 114.003 5.47214 114.146L5.22581 114.432C5.08504 114.597 4.96188 114.763 4.82991 114.936L4.58358 115.251L4.47801 115.387C4.24927 115.688 4.02933 116.003 3.80938 116.319V116.379L3.68622 116.567C3.53666 116.793 3.3871 117.019 3.24633 117.244L3.06158 117.56L2.86804 117.891C2.80645 117.989 2.74487 118.087 2.69208 118.184C2.55132 118.44 2.41056 118.703 2.27859 118.936L2.19941 119.072C2.03226 119.395 1.8739 119.726 1.72434 120.057C1.72434 120.117 1.72434 120.185 1.65396 120.245C1.58358 120.305 1.54839 120.485 1.4956 120.606C1.44282 120.726 1.35484 120.937 1.29326 121.102C1.23167 121.267 1.19648 121.358 1.15249 121.493C1.1085 121.628 1.03812 121.794 0.985337 121.944C0.932551 122.095 0.914956 122.132 0.888563 122.223C0.86217 122.313 0.791789 122.561 0.739003 122.734L0.580645 123.298L0.527859 123.486C0.527859 123.621 0.475073 123.757 0.439883 123.892C0.378299 124.193 0.316716 124.486 0.26393 124.779C0.26393 124.855 0.26393 124.937 0.26393 125.02C0.26393 125.103 0.26393 125.17 0.26393 125.246C0.133274 125.882 0.0451547 126.525 0 127.171L0.466276 268.547C0.466276 272.028 1.91789 274.472 4.23167 275.623L17.0499 282C14.7361 280.849 13.3021 278.405 13.2933 274.924Z" fill="#D5D7E2"/>
<path d="M241.716 7.88091C248.851 4.36156 254.639 7.18156 254.666 14.1902L255.132 155.566C255.132 162.567 249.405 171.087 242.27 174.607L26.2346 281.248C19.1085 284.767 13.3108 281.947 13.2932 274.946L12.8182 133.57C12.8182 126.562 18.5542 118.041 25.6804 114.522L241.716 7.88091Z" fill="#F4F6F9"/>
<path d="M235.39 62.0024V63.2808C234.698 64.5818 234.165 65.94 233.798 67.3341C233.322 68.8056 233.053 70.3203 232.997 71.8461L234.334 71.1844V72.8388L229.258 75.3429V73.6961L230.587 73.0418C230.706 71.6698 231.001 70.3132 231.466 68.996C231.919 67.5175 232.508 66.0718 233.226 64.672L230.499 66.0256V67.477L228.818 68.3042V65.236L235.39 62.0024Z" fill="#E26D6D"/>
<path d="M228.651 88.6909L228.677 97.3615L230.05 96.6922V98.3466L224.903 100.881V99.2264L226.355 98.512L226.328 91.4959L224.798 92.2554L224.789 90.601L228.651 88.6909Z" fill="#E26D6D"/>
<path d="M239.613 90.7815L238.592 91.2853V92.6089L239.472 92.1727V93.6767L235.258 95.7522V94.2482L236.428 93.6692V92.3457L232.557 94.2557C232.419 93.8908 232.233 93.5402 232.003 93.2105L236.499 84.6377L238.575 83.6074V89.8641L239.604 89.3602L239.613 90.7815ZM236.419 90.9394V87.3373L233.78 92.2329L236.419 90.9394Z" fill="#E26D6D"/>
<path d="M228.431 112.281C229.434 111.792 230.191 111.672 230.798 111.943C231.109 112.109 231.358 112.349 231.514 112.633C231.67 112.917 231.727 113.234 231.677 113.545C231.677 113.999 231.594 114.451 231.431 114.883C231.267 115.319 231.045 115.738 230.771 116.131C230.499 116.515 230.041 117.109 229.364 117.914C228.637 118.731 228.007 119.608 227.481 120.531C227.251 120.942 227.083 121.377 226.979 121.824L230.041 120.32V118.982L231.721 118.147L231.651 121.192L224.903 124.524C224.883 123.767 224.96 123.01 225.132 122.268C225.293 121.647 225.535 121.045 225.853 120.47C226.272 119.693 226.748 118.94 227.279 118.214C228.079 117.086 228.598 116.304 228.853 115.838C229.094 115.421 229.223 114.964 229.232 114.5C229.249 114.382 229.232 114.262 229.181 114.152C229.13 114.042 229.048 113.944 228.941 113.868C228.83 113.812 228.701 113.786 228.572 113.794C228.443 113.802 228.32 113.843 228.22 113.913C227.785 114.129 227.454 114.47 227.287 114.876C227.061 115.465 226.951 116.083 226.962 116.703L225.035 117.568C224.999 116.727 225.148 115.888 225.475 115.094C225.753 114.46 226.171 113.878 226.707 113.379C227.213 112.94 227.794 112.57 228.431 112.281Z" fill="#E26D6D"/>
<path d="M238.24 107.626L238.267 116.297L239.648 115.612L239.657 117.282L234.51 119.824L234.501 118.154L235.953 117.44L235.935 110.424L234.387 111.183V109.529L238.24 107.626Z" fill="#E26D6D"/>
<path d="M227.982 136.187C228.977 135.691 229.742 135.578 230.34 135.834C230.653 136.003 230.902 136.245 231.058 136.532C231.214 136.818 231.27 137.137 231.22 137.451C231.222 137.903 231.138 138.352 230.974 138.782C230.806 139.219 230.585 139.64 230.314 140.038C230.05 140.421 229.584 141 228.915 141.812C228.186 142.627 227.553 143.501 227.023 144.422C226.809 144.847 226.658 145.295 226.575 145.753L229.636 144.249V142.88L231.317 142.045L231.246 145.091L224.516 148.415C224.491 147.673 224.562 146.932 224.727 146.204C224.897 145.586 225.138 144.983 225.449 144.407C225.874 143.633 226.35 142.879 226.874 142.151C227.445 141.382 227.971 140.588 228.449 139.774C228.693 139.361 228.822 138.906 228.827 138.443C228.843 138.323 228.825 138.202 228.774 138.09C228.724 137.977 228.642 137.877 228.537 137.797C228.424 137.743 228.295 137.72 228.167 137.729C228.038 137.739 227.916 137.78 227.815 137.849C227.4 138.073 227.089 138.413 226.936 138.812C226.703 139.4 226.587 140.018 226.592 140.639L224.666 141.504C224.629 140.663 224.778 139.824 225.106 139.03C225.393 138.402 225.81 137.824 226.337 137.323C226.816 136.876 227.371 136.493 227.982 136.187Z" fill="#E26D6D"/>
<path d="M238.416 136.112C239.639 135.969 240.255 136.518 240.255 137.759C240.255 138.703 239.931 139.626 239.323 140.413C238.629 141.328 237.68 142.08 236.56 142.602C235.346 143.203 234.422 143.354 233.815 143.091C233.496 142.9 233.244 142.638 233.089 142.332C232.933 142.027 232.88 141.691 232.935 141.361C232.96 140.711 233.137 140.072 233.456 139.482C233.775 138.891 234.229 138.362 234.792 137.924C233.754 137.864 233.235 137.33 233.235 136.315C233.249 135.455 233.554 134.616 234.114 133.901C234.743 133.092 235.587 132.422 236.578 131.946C237.66 131.412 238.496 131.254 239.076 131.457C239.657 131.66 239.956 132.164 239.956 132.961C239.881 134.131 239.337 135.244 238.416 136.112ZM237.625 140.03C237.892 139.613 238.031 139.144 238.029 138.669C238.054 138.49 238.03 138.308 237.958 138.138C237.886 137.968 237.769 137.815 237.616 137.691C237.361 137.511 237.009 137.533 236.578 137.751C236.14 137.979 235.787 138.307 235.557 138.699C235.291 139.124 235.155 139.6 235.161 140.083C235.131 140.26 235.152 140.44 235.22 140.609C235.289 140.778 235.405 140.93 235.557 141.053C235.722 141.125 235.908 141.155 236.092 141.139C236.276 141.123 236.451 141.062 236.595 140.962C237.035 140.741 237.392 140.418 237.625 140.03ZM235.663 134.352C235.426 134.723 235.308 135.141 235.32 135.563C235.302 135.71 235.323 135.858 235.38 135.998C235.438 136.137 235.532 136.263 235.654 136.368C235.883 136.518 236.182 136.496 236.534 136.308C236.911 136.107 237.216 135.821 237.413 135.48C237.631 135.12 237.743 134.72 237.739 134.315C237.76 134.164 237.743 134.012 237.688 133.868C237.633 133.723 237.543 133.591 237.422 133.48C237.202 133.337 236.894 133.352 236.543 133.54C236.17 133.739 235.866 134.019 235.663 134.352Z" fill="#E26D6D"/>
<g opacity="0.8">
<path opacity="0.8" d="M36.7214 160.041L36.7478 168.726L38.1202 168.049L38.129 169.704L32.9824 172.238L32.9736 170.584L34.4252 169.869L34.3988 162.853L32.868 163.613V161.943L36.7214 160.041Z" fill="#3A4151"/>
<path opacity="0.8" d="M67.434 144.715C68.4282 144.226 69.1936 144.106 69.7918 144.361C70.1007 144.534 70.347 144.776 70.5025 145.062C70.658 145.348 70.7166 145.665 70.6716 145.978C70.6634 146.435 70.5653 146.888 70.3812 147.317C70.2133 147.752 69.9921 148.17 69.7214 148.565C69.4575 148.946 68.9912 149.54 68.3226 150.347C67.586 151.16 66.952 152.037 66.4311 152.964C66.2143 153.387 66.0635 153.832 65.9824 154.288L69.0528 152.784V151.438L70.7331 150.611L70.654 153.656L63.915 156.98C63.9009 156.239 63.9746 155.498 64.1349 154.769C64.304 154.149 64.5518 153.546 64.8739 152.972C65.2924 152.197 65.7624 151.444 66.2815 150.716C66.8569 149.945 67.3855 149.149 67.8651 148.332C68.1101 147.922 68.2396 147.469 68.2434 147.008C68.2592 146.889 68.2411 146.767 68.1906 146.655C68.14 146.542 68.0586 146.442 67.9531 146.362C67.8408 146.308 67.7127 146.284 67.5845 146.292C67.4564 146.3 67.3337 146.34 67.2317 146.407C66.8188 146.636 66.5087 146.978 66.3519 147.377C66.1175 147.965 66.0044 148.583 66.0176 149.204L64.0909 150.062C64.053 149.22 64.2053 148.38 64.5396 147.587C64.8147 146.964 65.2202 146.388 65.7361 145.888C66.2284 145.425 66.8011 145.029 67.434 144.715Z" fill="#3A4151"/>
<path opacity="0.8" d="M100.091 128.592C101.129 128.08 101.93 127.923 102.51 128.126C103.091 128.329 103.39 128.878 103.39 129.69C103.35 130.866 102.787 131.985 101.815 132.818C103.117 132.585 103.768 133.089 103.777 134.322C103.769 135.312 103.424 136.279 102.783 137.105C102.138 137.962 101.264 138.676 100.232 139.188C97.9795 140.301 96.7595 139.799 96.5718 137.684L98.6041 136.518C98.6041 137.721 99.0968 138.105 100.003 137.661C100.433 137.433 100.78 137.108 101.006 136.721C101.25 136.322 101.38 135.878 101.384 135.428C101.406 135.26 101.383 135.089 101.315 134.93C101.248 134.771 101.139 134.628 100.997 134.51C100.751 134.33 100.364 134.367 99.8622 134.615C99.739 134.683 99.5894 134.766 99.3871 134.864V133.126C99.9223 132.881 100.374 132.52 100.698 132.081C100.951 131.73 101.09 131.328 101.103 130.916C101.12 130.79 101.1 130.663 101.044 130.546C100.989 130.429 100.9 130.326 100.786 130.246C100.656 130.19 100.51 130.166 100.365 130.178C100.22 130.19 100.082 130.237 99.9677 130.314C99.5904 130.514 99.2863 130.8 99.0903 131.141C98.8943 131.481 98.8142 131.862 98.8592 132.239L96.871 133.104C96.9046 132.173 97.2362 131.268 97.8299 130.487C98.3922 129.708 99.1682 129.057 100.091 128.592Z" fill="#3A4151"/>
<path opacity="0.8" d="M137.191 117.966L136.17 118.47V119.794L137.05 119.358V120.862L132.827 122.945V121.441L133.988 120.869V119.568L130.135 121.471C129.993 121.104 129.801 120.753 129.563 120.425L134.067 111.845L136.135 110.83V117.079L137.155 116.575L137.191 117.966ZM133.997 118.132V114.522L131.402 119.418L134.041 118.132" fill="#3A4151"/>
<path opacity="0.8" d="M169.68 94.4287V96.8577L168.132 97.6097L167.991 96.9178L165.29 98.2489L165.158 100.798C165.609 100.193 166.21 99.6796 166.918 99.2942C167.938 98.7903 168.739 98.7151 169.311 99.0911C169.628 99.3388 169.874 99.6469 170.026 99.9904C170.179 100.334 170.235 100.703 170.191 101.069C170.196 102.107 169.893 103.129 169.311 104.039C168.678 105.042 167.722 105.869 166.557 106.423C165.51 106.934 164.683 107.077 164.103 106.844C163.776 106.681 163.503 106.449 163.312 106.17C163.121 105.89 163.018 105.574 163.012 105.25L165.009 104.024C165.141 104.957 165.607 105.227 166.399 104.836C166.858 104.609 167.226 104.268 167.455 103.859C167.7 103.407 167.821 102.913 167.806 102.415C167.806 101.189 167.349 100.806 166.434 101.257C165.842 101.601 165.399 102.104 165.176 102.686H163.478L163.777 97.2938L169.68 94.4287Z" fill="#3A4151"/>
<path opacity="0.8" d="M202.196 82.9305C202.751 83.2013 203.032 83.863 203.076 84.9008C203.104 85.979 202.801 87.0446 202.196 87.9915C201.652 88.8444 200.846 89.5542 199.865 90.0444C198.581 90.6761 197.622 90.7288 197.006 90.1873C196.39 89.6459 196.056 88.4953 196.047 86.7056C195.973 85.0985 196.331 83.4985 197.094 82.0281C197.714 80.9017 198.716 79.9609 199.971 79.3285C201.73 78.4712 202.707 78.8923 202.927 80.6219L201.114 81.6747C200.903 80.9227 200.499 80.667 199.891 80.9678C199.328 81.2963 198.922 81.7876 198.748 82.3515C198.469 83.1161 198.327 83.912 198.325 84.7128C198.77 84.0497 199.41 83.4975 200.182 83.111C200.467 82.9279 200.805 82.8144 201.16 82.7826C201.515 82.7508 201.873 82.8019 202.196 82.9305ZM200.587 87.5553C200.811 87.078 200.916 86.5656 200.894 86.0513C200.924 85.8629 200.906 85.6712 200.84 85.4895C200.775 85.3077 200.664 85.1402 200.516 84.9985C200.38 84.9335 200.224 84.9032 200.069 84.9112C199.913 84.9192 199.763 84.9651 199.636 85.0437C199.108 85.3251 198.655 85.6993 198.308 86.1416C198.246 86.8728 198.394 87.6059 198.739 88.2773C198.985 88.5781 199.346 88.6006 199.795 88.3825C200.172 88.181 200.462 87.8801 200.622 87.5253" fill="#3A4151"/>
<path opacity="0.8" d="M37.4164 188C38.6393 187.849 39.2551 188.398 39.2639 189.654C39.2548 190.597 38.9313 191.518 38.3314 192.309C37.6301 193.214 36.6821 193.96 35.5689 194.482C34.3461 195.084 33.4399 195.234 32.8241 194.971C32.4933 194.788 32.2305 194.528 32.0669 194.221C31.9032 193.915 31.8454 193.575 31.9003 193.241C31.92 192.592 32.0949 191.953 32.4141 191.363C32.7333 190.773 33.1902 190.245 33.7566 189.812C32.7273 189.737 32.1994 189.211 32.1994 188.195C32.204 187.338 32.5106 186.502 33.0792 185.797C33.6988 184.98 34.5411 184.304 35.5337 183.826C36.6158 183.292 37.4516 183.134 38.0411 183.338C38.6305 183.541 38.9208 184.044 38.9208 184.842C38.8634 186.012 38.3315 187.128 37.4164 188ZM36.6246 191.91C36.8957 191.494 37.0352 191.025 37.0293 190.549C37.0526 190.371 37.0291 190.191 36.9606 190.022C36.8921 189.853 36.7803 189.699 36.6334 189.572C36.3607 189.391 36.0176 189.414 35.5865 189.624C35.1487 189.855 34.7952 190.186 34.566 190.579C34.3006 191.005 34.1617 191.48 34.1613 191.963C34.1318 192.14 34.1542 192.321 34.2263 192.489C34.2985 192.657 34.4182 192.807 34.5748 192.925C34.7319 193.007 34.9148 193.044 35.0978 193.032C35.2808 193.019 35.4547 192.959 35.5953 192.858C36.0358 192.631 36.3925 192.303 36.6246 191.91ZM34.6716 186.233C34.4379 186.604 34.3226 187.022 34.3373 187.443C34.3164 187.589 34.3349 187.736 34.3914 187.874C34.4478 188.013 34.5407 188.138 34.6628 188.241C34.8827 188.398 35.1818 188.376 35.5425 188.188C35.9212 187.989 36.2262 187.702 36.4223 187.361C36.6429 187.004 36.7577 186.606 36.7566 186.203C36.7768 186.05 36.7573 185.895 36.6995 185.75C36.6417 185.604 36.5471 185.471 36.4223 185.36C36.22 185.21 35.912 185.233 35.5425 185.436C35.1699 185.628 34.8657 185.904 34.6628 186.233" fill="#3A4151"/>
<path opacity="0.8" d="M69.9765 168.049C70.6012 168.553 70.9355 169.764 70.9443 171.651C70.9443 175.216 69.6569 177.635 67.0821 178.908C66.7894 179.097 66.4489 179.223 66.0881 179.278C65.7274 179.333 65.3566 179.315 65.0059 179.224C64.4604 179.021 64.1261 178.472 64.0733 177.6L65.8328 176.547C66.044 177.299 66.4487 177.562 67.0381 177.299C67.9795 176.84 68.5161 175.592 68.6305 173.539C68.1316 174.198 67.4636 174.751 66.6774 175.156C66.3928 175.34 66.0516 175.45 65.6954 175.471C65.3392 175.492 64.9834 175.425 64.6715 175.276C64.1261 174.975 63.8446 174.321 63.8446 173.321C63.839 172.293 64.1419 171.28 64.7243 170.381C65.2819 169.455 66.1404 168.688 67.1965 168.17C68.4281 167.583 69.3343 167.546 69.9765 168.049ZM68.6745 172.05V171.937C68.7103 171.313 68.5779 170.691 68.2874 170.117C68.0235 169.696 67.6452 169.614 67.1085 169.877C66.7442 170.08 66.4665 170.378 66.3167 170.726C66.097 171.172 65.9833 171.65 65.9824 172.133C65.9508 172.508 66.0686 172.882 66.3167 173.193C66.5366 173.419 66.871 173.411 67.3108 173.193C67.8416 172.892 68.2963 172.504 68.6481 172.05" fill="#3A4151"/>
<path opacity="0.8" d="M96.695 153.942L96.7302 162.62L98.0938 161.943L98.1026 163.598L92.9648 166.132V164.477L94.4164 163.763L94.39 156.732L92.8504 157.499L92.8416 155.844L96.695 153.942Z" fill="#3A4151"/>
<path opacity="0.8" d="M106.707 150.212C107.314 150.836 107.587 152.002 107.587 153.701C107.652 155.209 107.352 156.712 106.707 158.116C106.184 159.241 105.241 160.188 104.023 160.808C102.85 161.394 101.953 161.379 101.331 160.763C100.707 160.154 100.39 158.995 100.39 157.273C100.339 155.779 100.638 154.291 101.27 152.897C101.786 151.751 102.741 150.789 103.979 150.167C105.185 149.573 106.082 149.588 106.707 150.212ZM105.018 157.371C105.144 156.548 105.211 155.719 105.22 154.89C105.253 154.018 105.155 153.146 104.93 152.295C104.745 151.776 104.428 151.618 103.997 151.829C103.737 151.997 103.519 152.21 103.359 152.453C103.199 152.696 103.098 152.965 103.065 153.243C102.855 154.179 102.764 155.132 102.792 156.085C102.75 156.955 102.847 157.825 103.082 158.672C103.267 159.198 103.584 159.341 103.962 159.131C104.28 158.925 104.537 158.659 104.714 158.354C104.891 158.048 104.983 157.712 104.982 157.371" fill="#3A4151"/>
<path opacity="0.8" d="M130.408 136.992L130.434 145.662L131.815 144.986L131.824 146.648L126.677 149.189L126.669 147.52L128.12 146.806L128.103 139.789L126.554 140.556L126.545 138.902L130.408 136.992Z" fill="#3A4151"/>
<path opacity="0.8" d="M138.95 132.773L138.985 141.444L140.349 140.767L140.358 142.436L135.229 144.971L135.22 143.301L136.672 142.587L136.645 135.571L135.106 136.33L135.097 134.676L138.95 132.773Z" fill="#3A4151"/>
<path opacity="0.8" d="M163.302 121.072L163.328 129.75L164.701 129.073L164.71 130.728L159.563 133.269L159.554 131.615L161.006 130.901L160.979 123.869L159.44 124.637L159.431 122.975L163.302 121.072Z" fill="#3A4151"/>
<path opacity="0.8" d="M170.569 117.312C171.581 116.808 172.372 116.695 172.944 116.951C173.255 117.121 173.503 117.364 173.659 117.65C173.815 117.936 173.872 118.255 173.824 118.568C173.825 119.021 173.736 119.471 173.56 119.899C173.401 120.337 173.186 120.758 172.918 121.155C172.654 121.538 172.188 122.117 171.519 122.929C170.786 123.745 170.153 124.621 169.627 125.546C169.407 125.971 169.253 126.418 169.17 126.877L172.24 125.373V124.027L173.921 123.2L173.842 126.246L167.103 129.57C167.082 128.828 167.153 128.087 167.314 127.359C167.485 126.748 167.727 126.154 168.035 125.584C168.462 124.81 168.938 124.057 169.46 123.328C170.261 122.2 170.789 121.418 171.044 120.944C171.277 120.531 171.403 120.079 171.413 119.621C171.43 119.501 171.414 119.381 171.365 119.268C171.316 119.155 171.236 119.055 171.132 118.974C171.02 118.919 170.892 118.893 170.763 118.901C170.634 118.909 170.512 118.95 170.41 119.019C169.981 119.242 169.655 119.584 169.487 119.989C169.253 120.577 169.137 121.195 169.144 121.816L167.208 122.681C167.178 121.837 167.333 120.995 167.666 120.2C167.953 119.574 168.37 118.999 168.897 118.5C169.379 118.032 169.943 117.631 170.569 117.312Z" fill="#3A4151"/>
<path opacity="0.8" d="M196.126 104.874L196.153 113.552L197.525 112.875L197.534 114.53L192.396 117.064L192.387 115.41L193.839 114.695L193.821 107.664L192.273 108.431V106.777L196.126 104.874Z" fill="#3A4151"/>
<path opacity="0.8" d="M203.226 101.189C203.565 100.965 203.957 100.806 204.375 100.725C204.792 100.643 205.226 100.64 205.645 100.715C206.217 100.918 206.525 101.467 206.525 102.287C206.492 103.461 205.935 104.581 204.968 105.415C206.27 105.182 206.921 105.686 206.93 106.919C206.923 107.911 206.574 108.879 205.927 109.702C205.279 110.564 204.402 111.283 203.367 111.8C201.114 112.913 199.909 112.401 199.724 110.296L201.757 109.13C201.757 110.326 202.249 110.702 203.147 110.266C203.578 110.045 203.924 109.721 204.141 109.333C204.399 108.932 204.535 108.482 204.537 108.025C204.557 107.858 204.532 107.69 204.465 107.532C204.398 107.374 204.29 107.232 204.15 107.115C203.886 106.949 203.516 106.98 203.006 107.235C202.892 107.295 202.742 107.363 202.54 107.476V105.731C203.075 105.485 203.526 105.125 203.85 104.686C204.106 104.333 204.243 103.928 204.246 103.513C204.265 103.386 204.246 103.258 204.19 103.139C204.135 103.021 204.045 102.917 203.93 102.836C203.798 102.787 203.654 102.768 203.512 102.783C203.369 102.797 203.234 102.844 203.12 102.919C202.742 103.118 202.436 103.404 202.237 103.744C202.038 104.085 201.954 104.465 201.994 104.844L200.032 105.664C200.066 104.733 200.398 103.827 200.991 103.047C201.547 102.28 202.314 101.642 203.226 101.189Z" fill="#3A4151"/>
<path opacity="0.8" d="M32.173 209.274L32.1994 217.944L33.5806 217.268L33.5894 218.93L28.4428 221.471L28.434 219.802L29.8944 219.088L29.868 212.071L28.3196 212.831V211.176L32.173 209.274Z" fill="#3A4151"/>
<path opacity="0.8" d="M42.4399 204.206V206.642L40.9091 207.394L40.7507 206.695L38.0499 208.033L37.9267 210.56C38.3783 209.955 38.9787 209.442 39.6862 209.056C40.7155 208.545 41.5073 208.484 42.0792 208.86C42.3962 209.109 42.6409 209.417 42.7937 209.76C42.9465 210.103 43.0031 210.473 42.9589 210.838C42.9651 211.874 42.6623 212.893 42.0792 213.801C41.4542 214.805 40.5002 215.63 39.3343 216.177C38.2786 216.696 37.4516 216.847 36.871 216.606C36.5523 216.449 36.2846 216.227 36.0925 215.959C35.9004 215.691 35.7899 215.386 35.7713 215.072L37.7595 213.861C37.9003 214.786 38.3578 215.049 39.1584 214.658C39.6114 214.433 39.9758 214.098 40.2053 213.696C40.4501 213.241 40.5704 212.745 40.5572 212.244C40.5572 211.019 40.0997 210.628 39.1848 211.079C38.5965 211.427 38.1553 211.928 37.9267 212.508H36.2463L36.5279 207.116L42.4399 204.206Z" fill="#3A4151"/>
<path opacity="0.8" d="M63.9678 193.768L63.9941 202.438L65.3754 201.762L65.3842 203.416L60.2376 205.95L60.2288 204.296L61.6804 203.581L61.654 196.565L60.1144 197.325L60.1056 195.67L63.9678 193.768Z" fill="#3A4151"/>
<path opacity="0.8" d="M74.0147 193.347C74.5777 193.617 74.8945 194.279 74.8945 195.317C74.9226 196.393 74.6192 197.456 74.0147 198.4C73.4666 199.257 72.6542 199.97 71.6657 200.461C70.3901 201.092 69.4399 201.137 68.8065 200.611C68.173 200.085 67.8739 198.904 67.8651 197.114C67.7815 195.507 68.1369 193.906 68.9033 192.437C69.5254 191.316 70.5238 190.379 71.7713 189.745C73.5308 188.877 74.5162 189.308 74.7273 191.038L72.9678 192.091C72.739 191.339 72.3343 191.083 71.7273 191.384C71.168 191.715 70.7655 192.205 70.5924 192.768C70.3063 193.528 70.1637 194.323 70.1701 195.121C70.6177 194.464 71.2573 193.917 72.0264 193.535C72.3076 193.354 72.6406 193.241 72.9904 193.208C73.3402 193.175 73.694 193.223 74.0147 193.347ZM72.4135 197.979C72.6407 197.502 72.7457 196.989 72.7214 196.475C72.7214 195.941 72.6071 195.588 72.3431 195.43C72.2125 195.356 72.0596 195.317 71.9033 195.317C71.7469 195.317 71.594 195.356 71.4634 195.43C70.9427 195.711 70.4963 196.083 70.1525 196.52C70.0869 197.252 70.2288 197.988 70.566 198.663C70.8211 198.957 71.173 198.994 71.6393 198.761C72.0066 198.561 72.29 198.266 72.4487 197.919" fill="#3A4151"/>
<path opacity="0.8" d="M96.9062 177.465L96.9326 186.135L98.3138 185.458L98.3226 187.113L93.176 189.647L93.1672 187.993L94.6188 187.278L94.6012 180.262L93.0528 181.022V179.375L96.9062 177.465Z" fill="#3A4151"/>
<path opacity="0.8" d="M107.542 172.208V173.479C106.846 174.778 106.312 176.137 105.95 177.532C105.467 179.002 105.198 180.518 105.15 182.044L106.487 181.382V183.037L101.411 185.541V183.887L102.73 183.232C102.852 181.861 103.147 180.504 103.61 179.187C104.058 177.707 104.646 176.261 105.369 174.863L102.669 176.194V177.645L100.979 178.472V175.419L107.542 172.208Z" fill="#3A4151"/>
<path opacity="0.8" d="M129.95 160.883L129.977 169.568L131.358 168.884L131.367 170.538L126.22 173.08L126.211 171.426L127.663 170.711L127.645 163.68L126.097 164.44V162.785L129.95 160.883Z" fill="#3A4151"/>
<path opacity="0.8" d="M139.126 161.266C140.349 161.123 140.956 161.68 140.965 162.921C140.961 163.864 140.637 164.786 140.032 165.575C139.334 166.487 138.386 167.238 137.27 167.764C136.056 168.358 135.141 168.516 134.525 168.252C134.206 168.061 133.955 167.799 133.8 167.494C133.644 167.188 133.591 166.852 133.645 166.523C133.668 165.871 133.844 165.231 134.163 164.639C134.482 164.047 134.937 163.516 135.501 163.079C134.472 163.018 133.944 162.492 133.936 161.477C133.946 160.616 134.252 159.777 134.815 159.063C135.445 158.25 136.292 157.577 137.287 157.1C138.361 156.574 139.188 156.401 139.768 156.619C140.082 156.758 140.336 156.978 140.495 157.249C140.653 157.519 140.706 157.825 140.648 158.123C140.585 159.29 140.046 160.402 139.126 161.266ZM138.326 165.192C138.6 164.777 138.739 164.307 138.73 163.831C138.756 163.653 138.734 163.472 138.665 163.302C138.597 163.133 138.483 162.979 138.334 162.853C138.177 162.766 137.992 162.725 137.805 162.734C137.619 162.744 137.44 162.804 137.296 162.906C136.854 163.134 136.497 163.465 136.267 163.861C136.002 164.287 135.863 164.762 135.862 165.244C135.831 165.422 135.853 165.603 135.925 165.771C135.997 165.939 136.118 166.089 136.276 166.207C136.54 166.365 136.874 166.335 137.305 166.124C137.743 165.904 138.098 165.58 138.326 165.192ZM136.364 159.507C136.121 159.876 136 160.294 136.012 160.717C135.996 160.865 136.019 161.013 136.078 161.152C136.138 161.291 136.232 161.418 136.355 161.522C136.575 161.672 136.883 161.65 137.235 161.462C137.614 161.266 137.919 160.982 138.114 160.642C138.334 160.282 138.449 159.882 138.449 159.477C138.473 159.325 138.456 159.17 138.398 159.025C138.34 158.88 138.243 158.749 138.114 158.642C137.903 158.484 137.604 158.506 137.235 158.702C136.86 158.895 136.555 159.174 136.355 159.507" fill="#3A4151"/>
<path opacity="0.8" d="M163.284 144.752L163.311 153.423L164.701 152.746V154.393L159.554 156.935V155.28L161.006 154.566L160.979 147.55L159.431 148.309V146.655L163.284 144.752Z" fill="#3A4151"/>
<path opacity="0.8" d="M173.094 140.962C173.736 141.474 174.053 142.677 174.062 144.565C174.062 148.129 172.777 150.545 170.208 151.814C169.914 152.003 169.573 152.131 169.211 152.187C168.849 152.243 168.476 152.226 168.123 152.137C167.578 151.934 167.243 151.385 167.243 150.513L169.003 149.468C169.223 150.22 169.619 150.475 170.208 150.22C171.15 149.761 171.686 148.513 171.809 146.46C171.312 147.116 170.644 147.664 169.856 148.061C169.575 148.248 169.235 148.359 168.879 148.38C168.524 148.402 168.169 148.332 167.859 148.182C167.296 147.888 166.98 147.234 166.98 146.234C166.977 145.206 167.279 144.194 167.859 143.294C168.413 142.352 169.275 141.568 170.34 141.038C171.554 140.496 172.434 140.459 173.094 140.962ZM171.792 144.971V144.865C171.832 144.237 171.702 143.609 171.414 143.03C171.158 142.609 170.762 142.527 170.235 142.79C169.864 142.992 169.583 143.294 169.434 143.647C169.23 144.09 169.128 144.562 169.135 145.038C169.1 145.414 169.219 145.789 169.469 146.099C169.689 146.324 170.015 146.324 170.472 146.099C170.995 145.801 171.444 145.417 171.792 144.971Z" fill="#3A4151"/>
<path opacity="0.8" d="M195.308 128.893C196.32 128.396 197.111 128.276 197.674 128.532C197.983 128.705 198.228 128.947 198.384 129.233C198.539 129.519 198.598 129.836 198.554 130.149C198.55 130.606 198.461 131.061 198.29 131.495C198.123 131.926 197.905 132.342 197.639 132.735C197.375 133.119 196.909 133.706 196.24 134.518C195.507 135.334 194.871 136.211 194.34 137.135C194.124 137.56 193.973 138.007 193.891 138.466L196.971 136.962V135.616L198.66 134.781L198.572 137.789L191.842 141.113C191.816 140.374 191.887 139.635 192.053 138.909C192.221 138.287 192.466 137.683 192.783 137.105C193.208 136.332 193.681 135.579 194.199 134.849C194.777 134.083 195.303 133.29 195.774 132.472C196.019 132.059 196.151 131.604 196.161 131.141C196.178 131.022 196.161 130.901 196.112 130.789C196.063 130.676 195.984 130.575 195.88 130.494C195.767 130.443 195.639 130.42 195.511 130.428C195.384 130.436 195.261 130.475 195.158 130.54C194.722 130.761 194.391 131.107 194.226 131.517C194.001 132.105 193.886 132.719 193.883 133.337L191.956 134.202C191.923 133.36 192.075 132.521 192.405 131.728C192.691 131.1 193.108 130.521 193.636 130.021C194.123 129.574 194.687 129.194 195.308 128.893Z" fill="#3A4151"/>
<path opacity="0.8" d="M206.604 124.712C207.211 125.336 207.484 126.501 207.484 128.201C207.548 129.711 207.249 131.216 206.604 132.623C206.086 133.74 205.161 134.684 203.965 135.315C202.786 135.894 201.88 135.879 201.264 135.27C200.648 134.661 200.331 133.495 200.323 131.773C200.27 130.281 200.569 128.795 201.202 127.404C201.727 126.258 202.684 125.295 203.921 124.667C205.091 124.08 205.997 124.08 206.604 124.712ZM204.915 131.878C205.053 131.051 205.123 130.217 205.126 129.382C205.167 128.514 205.066 127.646 204.827 126.802C204.642 126.276 204.325 126.125 203.894 126.336C203.635 126.504 203.419 126.715 203.259 126.957C203.098 127.199 202.997 127.466 202.962 127.742C202.757 128.684 202.666 129.642 202.689 130.6C202.656 131.467 202.754 132.334 202.979 133.179C203.182 133.698 203.481 133.856 203.903 133.645C204.217 133.435 204.471 133.167 204.646 132.861C204.822 132.555 204.913 132.219 204.915 131.878Z" fill="#3A4151"/>
<path opacity="0.8" d="M31.5396 233.218C32.5513 232.722 33.2991 232.594 33.915 232.857C34.2254 233.028 34.4728 233.27 34.6285 233.556C34.7842 233.843 34.8419 234.161 34.7947 234.474C34.7958 234.927 34.7065 235.377 34.5308 235.805C34.3734 236.243 34.1579 236.664 33.8886 237.061C33.6246 237.444 33.1584 238.031 32.4897 238.828C31.7571 239.65 31.1206 240.531 30.5894 241.46C30.3735 241.885 30.2227 242.332 30.1408 242.791L33.2111 241.287V239.941L34.8915 239.106L34.7947 242.144L28.0557 245.468C28.0372 244.729 28.1109 243.99 28.2757 243.265C28.4421 242.643 28.6839 242.038 28.9971 241.46C29.349 240.823 29.8241 240.071 30.4223 239.204C30.993 238.453 31.5186 237.677 31.9971 236.88C32.2382 236.464 32.3674 236.006 32.3754 235.542C32.3908 235.424 32.3733 235.304 32.3244 235.193C32.2755 235.082 32.1965 234.982 32.0938 234.902C31.9815 234.849 31.8534 234.825 31.7253 234.833C31.5971 234.841 31.4745 234.881 31.3724 234.947C30.9616 235.175 30.6518 235.514 30.4927 235.91C30.2607 236.504 30.1448 237.126 30.1496 237.752L28.1525 238.572C28.1234 237.731 28.2755 236.892 28.6012 236.098C28.8884 235.466 29.3088 234.885 29.8416 234.383C30.3371 233.925 30.9093 233.532 31.5396 233.218Z" fill="#3A4151"/>
<path opacity="0.8" d="M40.0909 228.999C41.0939 228.51 41.8505 228.382 42.4663 228.638C42.7759 228.811 43.0225 229.055 43.178 229.343C43.3336 229.63 43.3918 229.948 43.3461 230.262C43.3554 230.722 43.2751 231.179 43.1085 231.616C42.9515 232.059 42.7298 232.483 42.4487 232.879C42.1936 233.255 41.7185 233.849 41.0587 234.639C40.326 235.461 39.6895 236.343 39.1584 237.271C38.9465 237.698 38.7958 238.144 38.7097 238.602L41.7801 237.098V235.752L43.478 234.917L43.3989 237.963L36.6598 241.287C36.6389 240.548 36.7097 239.809 36.871 239.083C37.0433 238.462 37.288 237.858 37.6012 237.278C38.0214 236.502 38.4974 235.749 39.0264 235.022C39.8182 233.902 40.3461 233.12 40.6012 232.646C40.8423 232.23 40.9716 231.772 40.9795 231.308C40.9977 231.189 40.9796 231.069 40.9272 230.958C40.8748 230.847 40.7898 230.75 40.6804 230.676C40.5687 230.621 40.4402 230.595 40.3115 230.603C40.1829 230.611 40.06 230.652 39.959 230.721C39.5501 230.947 39.2406 231.283 39.0792 231.676C38.8558 232.272 38.7401 232.893 38.7361 233.518L36.8094 234.376C36.7803 233.535 36.9324 232.696 37.2581 231.902C37.5424 231.272 37.9566 230.691 38.481 230.187C38.9504 229.729 39.4923 229.329 40.0909 228.999Z" fill="#3A4151"/>
<path opacity="0.8" d="M63.3431 217.719C64.346 217.223 65.1026 217.11 65.7009 217.373C66.0121 217.542 66.2604 217.783 66.4163 218.068C66.5723 218.353 66.6293 218.67 66.5806 218.983C66.5804 219.438 66.4943 219.89 66.3255 220.321C66.1613 220.757 65.94 221.176 65.6657 221.569C65.4017 221.953 64.9355 222.547 64.2668 223.344C63.5362 224.163 62.9026 225.042 62.3754 225.969C62.1588 226.388 62.0079 226.831 61.9267 227.285L64.997 225.781V224.435L66.695 223.6L66.6158 226.645L59.824 229.962C59.8027 229.225 59.8734 228.489 60.0352 227.766C60.206 227.142 60.4507 226.535 60.7654 225.954C61.1894 225.179 61.6652 224.426 62.1906 223.698C62.9824 222.585 63.5102 221.787 63.7654 221.336C64.0039 220.916 64.133 220.457 64.1437 219.99C64.1634 219.871 64.1462 219.749 64.0937 219.637C64.0413 219.524 63.9553 219.426 63.8446 219.351C63.7329 219.296 63.6044 219.27 63.4757 219.278C63.347 219.287 63.2242 219.328 63.1231 219.396C62.7099 219.622 62.3994 219.961 62.2434 220.359C62.0149 220.953 61.8991 221.575 61.9003 222.201L59.9736 223.058C59.9446 222.215 60.0967 221.374 60.4223 220.577C60.6877 219.962 61.0812 219.394 61.5836 218.9C62.0934 218.429 62.6873 218.031 63.3431 217.719Z" fill="#3A4151"/>
<path opacity="0.8" d="M71.6833 213.568C72.7214 213.064 73.522 212.906 74.0939 213.117C74.6657 213.327 74.9736 213.869 74.9736 214.673C74.9461 215.849 74.3882 216.97 73.4164 217.802C74.7185 217.584 75.3695 218.08 75.3783 219.306C75.374 220.302 75.0251 221.276 74.3754 222.103C73.7298 222.963 72.8517 223.677 71.8153 224.186C69.5631 225.292 68.3578 224.795 68.173 222.682L70.2053 221.509C70.2053 222.72 70.698 223.096 71.5953 222.652C72.025 222.426 72.37 222.1 72.5895 221.712C72.8387 221.314 72.9687 220.87 72.9678 220.419C72.9919 220.251 72.9712 220.08 72.9072 219.92C72.8432 219.76 72.7376 219.614 72.5983 219.494C72.3343 219.328 71.9648 219.358 71.4546 219.614C71.3402 219.667 71.173 219.764 70.9883 219.862V218.117C71.5205 217.88 71.9674 217.524 72.2815 217.087C72.5433 216.736 72.6864 216.33 72.695 215.914C72.7147 215.788 72.6968 215.66 72.643 215.542C72.5891 215.423 72.5011 215.319 72.3871 215.237C72.2555 215.184 72.1088 215.163 71.9641 215.178C71.8193 215.193 71.6824 215.242 71.5689 215.32C71.1904 215.516 70.8841 215.799 70.685 216.137C70.4858 216.475 70.4019 216.853 70.4428 217.23L68.4634 218.08C68.4965 217.15 68.825 216.245 69.4135 215.463C69.9847 214.687 70.7625 214.038 71.6833 213.568Z" fill="#3A4151"/>
<path opacity="0.8" d="M96.044 201.386C97.0381 200.897 97.8035 200.769 98.4018 201.032C98.7107 201.204 98.9569 201.447 99.1125 201.733C99.268 202.019 99.3266 202.336 99.2815 202.649C99.2739 203.102 99.1849 203.551 99.0176 203.98C98.856 204.418 98.6376 204.839 98.3666 205.236C98.1027 205.619 97.6364 206.206 96.9678 207.003C96.2363 207.822 95.6026 208.701 95.0763 209.628C94.8573 210.052 94.7063 210.5 94.6276 210.959L97.698 209.455V208.108L99.3871 207.274L99.2991 210.319L92.5601 213.643C92.546 212.904 92.6196 212.166 92.7801 211.44C92.9477 210.817 93.1955 210.211 93.5191 209.635C93.9357 208.86 94.4057 208.107 94.9267 207.379C95.7273 206.259 96.2551 205.469 96.5103 205.003C96.7547 204.585 96.8841 204.124 96.8886 203.657C96.9015 203.539 96.882 203.421 96.8315 203.311C96.7811 203.202 96.7012 203.103 96.5983 203.025C96.4859 202.972 96.3578 202.948 96.2297 202.956C96.1015 202.964 95.9789 203.003 95.8768 203.07C95.466 203.298 95.1562 203.637 94.9971 204.033C94.765 204.624 94.652 205.244 94.6628 205.868L92.7361 206.725C92.7017 205.886 92.8539 205.049 93.1848 204.258C93.4636 203.627 93.8783 203.045 94.4076 202.544C94.8847 202.092 95.4359 201.702 96.044 201.386Z" fill="#3A4151"/>
<path opacity="0.8" d="M108.264 203.04L107.243 203.544V204.875L108.123 204.439V205.943L103.9 208.026V206.522L105.079 205.943V204.612L101.217 206.522C101.065 206.158 100.877 205.805 100.654 205.469L105.15 196.911L107.217 195.888V202.138L108.238 201.634L108.264 203.04ZM105.079 203.205V199.603L102.44 204.499L105.079 203.205Z" fill="#3A4151"/>
<path opacity="0.8" d="M129.326 184.819C130.32 184.323 131.085 184.21 131.683 184.466C131.994 184.637 132.241 184.879 132.397 185.165C132.553 185.451 132.61 185.769 132.563 186.082C132.561 186.535 132.475 186.984 132.308 187.414C132.14 187.851 131.919 188.272 131.648 188.669C131.393 189.045 130.918 189.632 130.258 190.437C129.529 191.255 128.892 192.132 128.358 193.054C128.143 193.479 127.992 193.926 127.909 194.385L130.979 192.881V191.534L132.677 190.7L132.598 193.708L125.859 197.032C125.834 196.29 125.905 195.549 126.07 194.821C126.243 194.202 126.487 193.6 126.801 193.023C127.223 192.248 127.699 191.495 128.226 190.767C129.018 189.654 129.545 188.857 129.801 188.391C130.037 187.976 130.166 187.522 130.179 187.06C130.194 186.94 130.174 186.818 130.122 186.705C130.07 186.593 129.987 186.493 129.88 186.413C129.767 186.36 129.638 186.337 129.51 186.346C129.381 186.355 129.259 186.397 129.158 186.466C128.745 186.692 128.435 187.031 128.279 187.429C128.053 188.019 127.938 188.635 127.935 189.256L126.009 190.121C125.979 189.279 126.131 188.441 126.457 187.647C126.74 187.019 127.154 186.44 127.68 185.94C128.162 185.5 128.716 185.122 129.326 184.819Z" fill="#3A4151"/>
<path opacity="0.8" d="M140.868 179.299V181.728L139.328 182.48L139.188 181.788L136.487 183.119L136.337 185.669C136.809 185.091 137.417 184.604 138.123 184.24C139.144 183.736 139.944 183.661 140.516 184.037C140.832 184.286 141.076 184.594 141.229 184.937C141.381 185.28 141.439 185.649 141.396 186.015C141.41 187.065 141.107 188.101 140.516 189.023C139.885 190.023 138.929 190.846 137.762 191.391C136.707 191.918 135.897 192.053 135.317 191.813C134.988 191.654 134.713 191.423 134.522 191.145C134.33 190.866 134.228 190.549 134.226 190.226L136.214 189.008C136.355 189.933 136.821 190.203 137.613 189.812C138.064 189.584 138.425 189.246 138.651 188.842C138.906 188.39 139.032 187.893 139.021 187.391C139.021 186.158 138.563 185.782 137.648 186.233C137.051 186.578 136.605 187.083 136.381 187.669H134.692L134.991 182.285L140.868 179.299Z" fill="#3A4151"/>
<path opacity="0.8" d="M162.519 168.756C163.513 168.26 164.279 168.147 164.877 168.41C165.187 168.58 165.434 168.821 165.589 169.106C165.745 169.391 165.803 169.708 165.757 170.02C165.763 170.472 165.68 170.922 165.51 171.351C165.342 171.788 165.121 172.209 164.85 172.606C164.586 172.99 164.12 173.584 163.452 174.381C162.714 175.196 162.08 176.076 161.56 177.006C161.343 177.426 161.193 177.868 161.111 178.322L164.182 176.818V175.472L165.862 174.637L165.783 177.682L159.044 181.014C159.027 180.274 159.104 179.536 159.273 178.81C159.433 178.184 159.678 177.576 160.003 176.998C160.425 176.225 160.895 175.472 161.411 174.742C162.211 173.629 162.739 172.825 162.994 172.366C163.238 171.95 163.367 171.492 163.372 171.027C163.388 170.907 163.37 170.786 163.32 170.674C163.269 170.561 163.188 170.461 163.082 170.381C162.969 170.327 162.84 170.304 162.712 170.313C162.584 170.323 162.461 170.364 162.361 170.433C161.929 170.654 161.602 170.997 161.437 171.403C161.203 171.994 161.089 172.615 161.103 173.238L159.176 174.095C159.137 173.251 159.29 172.409 159.625 171.614C159.903 171.003 160.309 170.44 160.821 169.952C161.311 169.48 161.884 169.077 162.519 168.756Z" fill="#3A4151"/>
<path opacity="0.8" d="M173.824 167.891C174.375 168.162 174.669 168.824 174.704 169.877C174.733 170.948 174.429 172.007 173.824 172.945C173.282 173.804 172.472 174.517 171.484 175.005C170.208 175.637 169.249 175.682 168.625 175.163C168 174.644 167.683 173.464 167.683 171.659C167.6 170.054 167.955 168.455 168.721 166.989C169.339 165.865 170.338 164.927 171.589 164.297C173.349 163.425 174.317 163.861 174.545 165.59L172.786 166.636C172.575 165.884 172.152 165.635 171.545 165.929C170.984 166.257 170.581 166.749 170.411 167.312C170.127 168.079 169.985 168.878 169.988 169.681C170.433 169.018 171.073 168.466 171.845 168.079C172.126 167.901 172.457 167.79 172.805 167.757C173.152 167.724 173.504 167.77 173.824 167.891ZM172.223 172.524C172.441 172.058 172.546 171.559 172.531 171.057C172.531 170.508 172.408 170.155 172.152 170.005C172.018 169.935 171.863 169.901 171.706 169.908C171.549 169.914 171.398 169.961 171.273 170.042C170.748 170.32 170.301 170.692 169.962 171.133C169.899 171.867 170.041 172.604 170.375 173.283C170.63 173.569 170.982 173.607 171.44 173.381C171.816 173.181 172.104 172.879 172.258 172.524" fill="#3A4151"/>
<path opacity="0.8" d="M195.554 152.588C196.548 152.092 197.314 151.979 197.912 152.235C198.222 152.406 198.47 152.648 198.626 152.935C198.781 153.221 198.839 153.539 198.792 153.852C198.793 154.306 198.71 154.758 198.545 155.19C198.377 155.625 198.156 156.044 197.886 156.439C197.622 156.822 197.155 157.416 196.487 158.213C195.751 159.03 195.118 159.909 194.595 160.838C194.379 161.26 194.228 161.705 194.147 162.161L197.208 160.657V159.311L198.889 158.484L198.809 161.53L192.07 164.853C192.054 164.112 192.131 163.37 192.299 162.643C192.457 162.019 192.699 161.414 193.02 160.838C193.444 160.064 193.917 159.311 194.437 158.582C195.012 157.811 195.541 157.015 196.02 156.198C196.263 155.784 196.392 155.329 196.399 154.867C196.413 154.748 196.394 154.629 196.344 154.517C196.293 154.406 196.213 154.307 196.108 154.228C195.997 154.172 195.868 154.147 195.74 154.155C195.611 154.163 195.488 154.204 195.387 154.273C194.974 154.502 194.664 154.844 194.507 155.243C194.274 155.828 194.16 156.444 194.173 157.063L192.185 157.92C192.149 157.079 192.298 156.24 192.625 155.446C192.912 154.821 193.329 154.245 193.856 153.746C194.348 153.287 194.921 152.896 195.554 152.588Z" fill="#3A4151"/>
<path opacity="0.8" d="M207.449 146.888V148.144C206.758 149.445 206.225 150.804 205.856 152.197C205.381 153.669 205.112 155.183 205.056 156.709L206.393 156.055V157.709L201.317 160.214V158.559L202.645 157.905C202.764 156.533 203.059 155.176 203.525 153.859C203.97 152.379 204.559 150.932 205.284 149.535L202.592 150.866V152.31L200.912 153.145V150.077L207.449 146.888Z" fill="#3A4151"/>
<path opacity="0.8" d="M31.5396 256.748C32.5514 256.252 33.2992 256.139 33.915 256.402C34.2225 256.572 34.468 256.812 34.6236 257.095C34.7791 257.378 34.8384 257.693 34.7948 258.004C34.7915 258.462 34.7024 258.916 34.5308 259.35C34.3629 259.785 34.1417 260.203 33.871 260.598C33.6159 260.974 33.1408 261.576 32.481 262.373C31.7452 263.19 31.1085 264.07 30.5807 264.997C30.3639 265.42 30.2131 265.865 30.132 266.321L33.2112 264.817V263.471L34.8915 262.636L34.8124 265.644L28.0734 268.968C28.0475 268.232 28.1184 267.495 28.2845 266.772C28.4543 266.153 28.699 265.551 29.0147 264.975C29.4385 264.2 29.9144 263.447 30.4399 262.719C31.2317 261.606 31.7596 260.816 32.0147 260.358C32.251 259.939 32.38 259.483 32.393 259.019C32.4077 258.899 32.3882 258.777 32.3362 258.664C32.2841 258.552 32.201 258.451 32.0939 258.372C31.9854 258.318 31.8606 258.293 31.7353 258.3C31.61 258.306 31.4898 258.345 31.3901 258.41C30.9378 258.644 30.6002 259.01 30.4399 259.44C30.2151 260.033 30.0993 260.652 30.0968 261.275L28.1525 262.11C28.1219 261.271 28.274 260.434 28.6012 259.643C28.8876 259.013 29.3082 258.435 29.8417 257.936C30.3341 257.469 30.9066 257.068 31.5396 256.748Z" fill="#3A4151"/>
<path opacity="0.8" d="M42.6158 252.522C43.2405 253.033 43.5748 254.229 43.5748 256.124C43.5748 259.683 42.2874 262.099 39.7126 263.373C39.422 263.562 39.0834 263.69 38.7241 263.746C38.3649 263.802 37.9953 263.785 37.6452 263.696C37.0997 263.501 36.7654 262.944 36.7654 262.072L38.5249 261.019C38.7361 261.771 39.1496 262.042 39.739 261.771C40.6804 261.305 41.2082 260.064 41.3314 258.011C40.8364 258.673 40.1639 259.225 39.3695 259.62C39.0862 259.803 38.7478 259.913 38.394 259.937C38.0403 259.961 37.6859 259.898 37.3724 259.756C36.827 259.44 36.5455 258.793 36.4927 257.786C36.4988 256.758 36.801 255.749 37.3724 254.845C37.9463 253.93 38.8169 253.175 39.8798 252.672C41.0675 252.048 41.9736 252.01 42.6158 252.522ZM41.349 256.53V256.432C41.3834 255.805 41.2479 255.179 40.9531 254.605C40.9128 254.51 40.8459 254.424 40.7581 254.357C40.6703 254.289 40.5644 254.241 40.4497 254.216C40.335 254.192 40.215 254.192 40.1003 254.216C39.9856 254.241 39.8796 254.289 39.7918 254.356C39.4249 254.562 39.1444 254.862 38.9912 255.214C38.7785 255.657 38.6766 256.133 38.6921 256.612C38.6491 256.989 38.768 257.366 39.0264 257.673C39.2375 257.898 39.5719 257.891 40.0117 257.673C40.5404 257.376 40.995 256.993 41.349 256.545" fill="#3A4151"/>
<path opacity="0.8" d="M63.2463 241.392C64.2845 240.881 65.0851 240.723 65.6569 240.918C66.2288 241.114 66.5367 241.67 66.5367 242.49C66.5063 243.669 65.9454 244.792 64.9707 245.626C66.2727 245.393 66.9238 245.889 66.9238 247.13C66.9274 248.118 66.5842 249.085 65.9384 249.905C65.2914 250.761 64.4173 251.475 63.3871 251.988C61.1261 253.101 59.868 252.604 59.7361 250.484L61.7595 249.326C61.7595 250.519 62.2258 250.895 63.1584 250.454C63.5834 250.23 63.9275 249.91 64.1525 249.529C64.4042 249.126 64.5343 248.677 64.5308 248.22C64.5554 248.053 64.5332 247.884 64.4659 247.725C64.3985 247.567 64.2881 247.425 64.1437 247.31C63.9062 247.137 63.5191 247.175 63.0176 247.423L62.5425 247.671V245.934C63.0806 245.692 63.5332 245.331 63.8534 244.889C64.1121 244.537 64.2521 244.131 64.2581 243.716C64.2767 243.589 64.2575 243.461 64.2021 243.342C64.1467 243.224 64.057 243.12 63.9414 243.039C63.7478 242.919 63.4663 242.956 63.1408 243.114C62.761 243.312 62.4546 243.598 62.2569 243.939C62.0592 244.279 61.9783 244.661 62.0235 245.039L60.0264 245.904C60.0572 244.976 60.3859 244.073 60.9766 243.295C61.5367 242.509 62.3168 241.855 63.2463 241.392Z" fill="#3A4151"/>
<path opacity="0.8" d="M74.6745 237.166C75.2815 237.79 75.5542 238.955 75.5542 240.655C75.6186 242.162 75.3191 243.665 74.6745 245.069C74.1612 246.186 73.2342 247.129 72.0352 247.754C70.8475 248.34 69.9501 248.325 69.3343 247.754C68.7185 247.182 68.393 245.987 68.393 244.265C68.3414 242.77 68.6406 241.282 69.2727 239.888C69.7893 238.74 70.7482 237.777 71.9912 237.158C73.1613 236.526 74.0674 236.541 74.6745 237.166ZM73.0205 244.325C73.1511 243.502 73.2187 242.673 73.2229 241.843C73.2603 240.971 73.1627 240.099 72.9325 239.249C72.7478 238.73 72.4311 238.572 72 238.782C71.7388 238.95 71.5211 239.163 71.3606 239.406C71.2001 239.649 71.1003 239.918 71.0674 240.196C70.8576 241.133 70.7662 242.086 70.7947 243.039C70.7531 243.908 70.8508 244.779 71.085 245.626C71.2698 246.137 71.5865 246.295 71.9648 246.084C72.2856 245.879 72.5473 245.614 72.7303 245.309C72.9132 245.004 73.0124 244.667 73.0205 244.325Z" fill="#3A4151"/>
</g>
<path d="M235.657 16.4266C242.378 13.1103 247.833 15.7724 247.859 22.3749L247.93 45.138L20.0704 157.6L20 134.837C20 128.234 25.4018 120.203 32.1144 116.886L235.657 16.4266Z" fill="#3E92CC"/>
<path d="M132.695 74.5007L132.765 94.3159L128.279 96.5268V84.6753C128.279 83.3969 128.279 81.953 128.437 80.3513L128.323 80.4039C128.094 81.735 127.883 82.7126 127.698 83.3443L123.018 99.1362L119.305 100.971L114.449 90.0145C114.174 89.2098 113.959 88.391 113.806 87.563L113.683 87.6231C113.806 89.5182 113.877 91.2026 113.877 92.6766V103.633L109.786 105.649L109.724 85.8334L116.375 82.5546L120.537 92.263C120.876 93.0669 121.118 93.8984 121.258 94.7446L121.346 94.6994C121.601 93.4812 121.856 92.3983 122.138 91.4433L126.22 77.6967L132.695 74.5007Z" fill="#F4F6F9"/>
<path d="M147.915 67.0256L155.155 83.2989L150.202 85.7279L148.751 82.0281L141.581 85.5625L140.182 90.6761L135.246 93.105L142.522 69.6802L147.915 67.0256ZM142.522 81.6746L147.686 79.1253L145.496 73.538C145.313 73.0137 145.198 72.4741 145.153 71.9287L145.038 71.9813C144.987 72.6227 144.872 73.2591 144.695 73.8839L142.522 81.6746Z" fill="#F4F6F9"/>
<path opacity="0.4" d="M222.977 333.82C242.319 333.82 258 326.08 258 316.532C258 306.984 242.319 299.243 222.977 299.243C203.634 299.243 187.953 306.984 187.953 316.532C187.953 326.08 203.634 333.82 222.977 333.82Z" fill="#D6D8E5"/>
<path d="M249.853 203.281C249.853 203.281 248.868 215.982 246.924 217.802C244.979 219.622 238.381 220.885 238.381 220.885L233.305 228.021C233.305 228.021 237.941 205.318 238.944 204.777C239.947 204.236 249.853 203.281 249.853 203.281Z" fill="#AA724B"/>
<path d="M240.053 189.181C241.285 188.699 242.68 188.618 243.977 188.955C245.273 189.291 246.381 190.022 247.091 191.008C248.956 193.647 250.9 202.724 251.076 204.273C251.076 204.273 248.437 207.364 244.522 206.853L240.053 189.181Z" fill="#EDEDED"/>
<path d="M225.009 315.915C222.246 316.566 219.294 316.26 216.792 315.065C214.812 315.118 204.07 311.185 202.601 314.486C201.325 317.374 205.979 320.051 208.46 320.57C213.889 321.691 217.909 324.007 220.091 324.398C221.71 324.691 223.812 324.887 225.106 323.789C226.663 322.48 226.522 317.637 225.009 315.915Z" fill="#38226D"/>
<path d="M220.091 323.6C217.909 323.202 213.933 320.893 208.461 319.765C206.384 319.337 202.795 317.389 202.425 315.065C201.95 317.727 206.147 320.089 208.461 320.57C213.889 321.69 217.909 324.007 220.091 324.398C221.71 324.691 223.812 324.886 225.106 323.788C225.442 323.473 225.686 323.094 225.818 322.683C225.012 323.205 224.075 323.559 223.081 323.718C222.087 323.877 221.064 323.837 220.091 323.6Z" fill="#9C73FF"/>
<path d="M241.742 311.456C238.979 312.11 236.025 311.805 233.525 310.606C231.545 310.659 220.795 306.726 219.334 310.027C218.059 312.922 222.713 315.592 225.194 316.111C230.622 317.231 234.642 319.547 236.815 319.938C238.443 320.232 240.545 320.427 241.839 319.337C243.396 318.021 243.255 313.178 241.742 311.456Z" fill="#38226D"/>
<path d="M236.815 319.141C234.642 318.743 230.657 316.434 225.194 315.306C223.108 314.877 219.519 312.93 219.158 310.606C218.674 313.268 222.88 315.629 225.194 316.111C230.622 317.231 234.642 319.547 236.815 319.938C238.443 320.232 240.545 320.427 241.839 319.337C242.175 319.018 242.419 318.637 242.551 318.224C241.743 318.745 240.805 319.1 239.809 319.259C238.814 319.418 237.789 319.378 236.815 319.141Z" fill="#9C73FF"/>
<path d="M242.93 285.624C242.463 282.215 241.633 278.85 240.449 275.57C240.449 275.57 241.188 266.885 241.557 258.658C241.979 249.318 245.771 241.099 242.78 233.646L209.499 239.971C209.499 239.971 211.1 277.285 211.548 281.797C211.803 285.304 212.308 288.795 213.062 292.25C214.601 299.476 216.282 315.659 216.282 315.659C219.801 317.427 225.079 315.975 225.079 315.975C225.079 315.975 225.079 295.716 224.877 290.512C224.595 284.151 224.367 284.639 224.367 284.639L225.484 268.795L226.205 260.914C226.205 260.914 227.147 266.697 227.754 271.863C228.282 276.375 229.513 280.443 230.974 288.828C232.205 296.1 233.481 310.929 233.481 310.929C237.044 312.696 241.839 311.478 241.839 311.478C241.839 311.478 243.889 291.934 242.93 285.624Z" fill="#8C50FF"/>
<path d="M238.258 189.338C235.698 189.444 233.78 190.008 233.463 189.338C233.188 188.206 232.991 187.061 232.874 185.909C233.173 185.27 233.428 184.586 233.428 184.586C236.648 182.894 237.669 179.916 238.091 176.442C238.821 170.516 235.073 165.327 228.132 164.71C221.613 164.124 216.818 168.042 215.534 173.419C214.847 176.081 213.475 181.097 215.331 185.451C216.361 187.887 217.707 189.827 219.035 190.203C220.328 190.179 221.618 190.083 222.897 189.918C222.897 189.918 223.24 191.564 223.478 192.625C223.716 193.685 223.619 194.242 221.164 195.535C218.71 196.828 224.886 199.498 228.924 199.235C232.962 198.972 237.51 196.889 238.76 194.655C240.176 192.196 240.026 189.263 238.258 189.338Z" fill="#AA724B"/>
<path d="M234.545 189.662C235.258 191.166 233.454 193.031 228.625 194.332C223.795 195.633 223.346 193.956 223.346 193.956C223.346 193.956 216.308 196.708 213.977 198.084C211.082 199.814 209.798 204.815 209.411 213.267C208.953 223.043 208.918 237.549 209.296 240.053C209.296 240.053 214.707 244.663 221.613 244.174C228.519 243.686 240.176 238.452 243 234.398C242.921 225.826 241.751 224.434 243.378 219.494C247.091 208.214 249.053 203.559 247.24 196.046C245.754 189.857 243.669 189.083 240.809 189.143C238.712 189.221 236.621 189.394 234.545 189.662Z" fill="#F4F4F4"/>
<path d="M215.402 247.581L218.921 213.538L211.504 210.169L208.601 212.244L209.481 242.821V243.655L209.534 244.731C209.534 244.731 209.358 247.31 215.041 250.386C215.041 250.386 215.129 249.581 215.217 248.822L215.349 247.551L215.402 247.581Z" fill="#AA724B"/>
<path d="M216.29 195.979C212.463 195.918 210.018 197.656 209.085 202.709C208.152 207.762 207.625 211.891 207.625 211.891C209.388 213.565 211.834 214.598 214.46 214.779C219.106 215.222 220.452 213.207 220.452 213.207C220.452 213.207 220.935 207.943 221.191 204.401C221.446 200.859 221.032 196.061 216.29 195.979Z" fill="#EDEDED"/>
<path d="M215.754 172.659C215.754 172.659 209.762 164.868 222.748 163.282C232.117 162.139 238.135 167.282 238.83 172.862C239.49 178.194 235.654 183.736 232.874 185.932C231.519 186.346 228.607 186.586 224.78 185.097C224.629 183.645 224.57 182.186 224.604 180.728C224.604 180.728 229.17 172.516 215.754 172.659Z" fill="#1E1E1E"/>
<path opacity="0.4" d="M125.868 376C145.211 376 160.892 368.26 160.892 358.711C160.892 349.163 145.211 341.423 125.868 341.423C106.525 341.423 90.8446 349.163 90.8446 358.711C90.8446 368.26 106.525 376 125.868 376Z" fill="#D6D8E5"/>
<path d="M103.02 246.927C102.669 249.551 99.0176 260.846 99.8005 264.719C100.584 268.592 113.067 275.067 113.067 275.067L114.827 268.434L107.912 262.644L109.786 251.672L103.02 246.927Z" fill="#FFCEA9"/>
<path d="M112.68 235.797C111.467 235.315 110.088 235.23 108.806 235.561C107.525 235.891 106.43 236.612 105.73 237.587C103.891 240.189 101.982 249.115 101.815 250.634C101.815 250.634 104.384 253.642 108.255 253.176L112.68 235.797Z" fill="#EDEDED"/>
<path d="M126.95 361.78C129.666 362.424 132.569 362.124 135.026 360.945C136.979 360.998 147.545 357.125 148.979 360.374C150.237 363.216 145.663 365.856 143.217 366.39C137.877 367.495 133.927 369.766 131.78 370.15C130.179 370.435 128.111 370.623 126.836 369.548C125.323 368.24 125.455 363.479 126.95 361.78Z" fill="#2B2A30"/>
<path d="M131.789 369.337C133.927 368.954 137.877 366.675 143.226 365.577C145.276 365.156 148.803 363.239 149.164 360.953C149.639 363.57 145.504 365.893 143.226 366.367C137.886 367.472 133.935 369.743 131.789 370.127C130.188 370.413 128.12 370.601 126.845 369.525C126.514 369.214 126.276 368.841 126.15 368.435C126.942 368.951 127.865 369.301 128.844 369.458C129.823 369.615 130.832 369.573 131.789 369.337Z" fill="#BF4B4B"/>
<path d="M109.803 355.2C112.522 355.844 115.428 355.544 117.889 354.365C119.833 354.418 130.399 350.545 131.842 353.794C133.1 356.644 128.525 359.276 126.079 359.81C120.739 360.915 116.789 363.194 114.642 363.57C113.05 363.855 110.982 364.043 109.707 362.976C108.211 361.66 108.308 356.899 109.803 355.2Z" fill="#2B2A30"/>
<path d="M114.642 362.757C116.789 362.374 120.739 360.095 126.079 358.997C128.129 358.576 131.657 356.659 132.009 354.373C132.484 356.99 128.358 359.313 126.079 359.787C120.739 360.892 116.789 363.171 114.642 363.547C113.05 363.833 110.982 364.021 109.707 362.953C109.377 362.641 109.136 362.267 109.003 361.863C109.797 362.376 110.72 362.724 111.699 362.879C112.678 363.034 113.685 362.993 114.642 362.757Z" fill="#BF4B4B"/>
<path d="M109.592 330.655C110.051 327.299 110.87 323.986 112.038 320.758C112.038 320.758 111.308 312.223 110.947 304.131C110.525 294.942 106.804 286.835 109.742 279.526L142.9 285.828C142.9 285.828 140.894 322.458 140.455 326.887C140.225 330.339 139.74 333.775 139.003 337.174C137.49 344.281 135.026 361.193 135.026 361.193C131.507 362.938 126.915 361.945 126.915 361.945C126.915 361.945 127.17 340.551 127.399 335.43C127.672 329.173 127.9 329.654 127.9 329.654L126.801 314.073L126.079 306.32C126.079 306.32 125.199 312.012 124.566 317.088C124.047 321.518 122.806 325.526 121.399 333.775C120.185 340.927 118.223 355.305 118.223 355.305C114.704 357.05 109.953 355.598 109.953 355.598C109.953 355.598 108.651 336.896 109.592 330.655Z" fill="#FD3F3F"/>
<path d="M114.44 235.948C116.965 236.053 118.839 236.609 119.155 235.948C119.433 234.836 119.627 233.711 119.736 232.579C119.446 231.947 119.199 231.278 119.199 231.278C116.023 229.608 115.021 226.675 114.607 223.269C113.894 217.433 117.581 212.335 124.399 211.726C130.812 211.154 135.537 215.004 136.795 220.291C137.472 222.908 138.818 227.811 136.997 232.135C135.977 234.541 134.657 236.444 133.346 236.82C132.077 236.787 130.811 236.692 129.554 236.534C129.554 236.534 129.211 238.151 128.982 239.196C128.754 240.241 128.842 240.783 131.261 242.061C133.68 243.34 127.601 245.957 123.625 245.693C119.648 245.43 115.179 243.385 113.947 241.181C112.61 238.76 112.707 235.88 114.44 235.948Z" fill="#FFCEA9"/>
<path d="M118.091 236.271C117.396 237.775 119.173 239.58 123.915 240.858C128.657 242.137 129.079 240.49 129.079 240.49C129.079 240.49 136.038 243.204 138.299 244.55C141.15 246.25 142.408 251.176 142.795 259.485C143.235 269.103 143.279 283.369 142.9 285.805C142.9 285.805 137.622 290.317 130.777 289.858C123.933 289.4 112.513 284.233 109.733 280.255C109.812 271.825 110.965 270.479 109.364 265.599C105.713 254.477 103.786 249.92 105.563 242.535C107.023 236.444 109.082 235.684 111.897 235.767C113.971 235.84 116.038 236.009 118.091 236.271Z" fill="#F4F4F4"/>
<path d="M153.501 267.434C147.906 268.637 146.595 265.629 145.865 263.132C144.106 257.116 143.129 251.649 141.801 248.22C140.243 244.175 138.607 243.535 136.311 242.746C133.61 241.821 131.287 243.768 132.193 248.912C133.249 254.996 134.648 259.275 137.305 266.471C138 268.351 139.566 271.69 141.897 273.307C144.783 275.3 149.12 275.21 155.692 273.818C158.49 273.217 161.56 271.788 166.865 269.675C168.29 269.111 169.39 268.735 172.144 267.644C174.896 266.596 177.311 264.994 179.182 262.975C180.616 261.2 180.801 260.373 180.51 259.967C180.22 259.56 179.49 259.568 178.751 260.312C177.646 261.572 176.284 262.649 174.73 263.493C174.73 263.493 176.49 261.937 177.449 260.922C178.307 260.026 179.017 259.034 179.56 257.974C180.07 256.943 179.023 255.537 178.232 256.274C177.44 257.011 177.07 257.778 175.592 259.237C174.834 260.029 173.966 260.739 173.006 261.35C173.901 260.313 174.699 259.217 175.39 258.071C176.016 257.179 176.322 256.149 176.27 255.109C176.27 254.567 175.337 253.928 174.51 254.951C173.683 255.973 173.27 257.304 171.51 258.869C170.235 259.997 169.152 260.651 169.117 260.335C169.082 260.019 169.891 259.403 170.349 258.079C170.806 256.755 170.349 255.364 169.469 255.214C168.589 255.063 168.774 255.101 168.097 256.334C167.419 257.568 166.337 258.478 165.554 260.275C165.122 261.546 164.334 262.707 163.258 263.659C161.877 264.915 158.806 266.291 153.501 267.434Z" fill="#FFCEA9"/>
<path d="M134.243 241.919C137.974 241.452 140.604 242.889 142.258 247.717C143.912 252.544 145.056 256.515 145.056 256.515C143.579 258.336 141.345 259.605 138.809 260.064C134.34 260.989 132.739 259.169 132.739 259.169C132.739 259.169 131.498 254.101 130.724 250.657C129.95 247.213 129.625 242.505 134.243 241.919Z" fill="#EDEDED"/>
<path d="M136.575 219.584C136.575 219.584 142.469 211.921 129.695 210.365C120.484 209.237 114.563 214.29 113.859 219.787C113.199 225.051 116.982 230.473 119.71 232.639C121.038 233.045 123.906 233.278 127.672 231.812C127.823 230.384 127.881 228.951 127.848 227.518C127.848 227.518 123.387 219.404 136.575 219.584Z" fill="#44280E"/>
<path d="M186.264 62.3591C187.322 67.4015 183.859 72.5756 178.529 73.9158C173.198 75.2561 168.019 72.2549 166.961 67.2126C165.903 62.1702 169.366 56.996 174.696 55.6558C180.026 54.3155 185.205 57.3167 186.264 62.3591Z" fill="#F4F6F9"/>
<path d="M181.556 63.1566C182.356 65.9502 180.736 69.0188 177.937 70.0104C175.139 71.002 172.223 69.5412 171.423 66.7475C170.624 63.9539 172.244 60.8853 175.042 59.8937C177.84 58.9021 180.757 60.3629 181.556 63.1566Z" fill="#3E92CC"/>
<path d="M158.007 62.5895L163.211 60L162.76 80.3088L158.101 82.4198L158.007 62.5895Z" fill="#F4F6F9"/>
</g>
<defs>
<clipPath id="clip0_172_11">
<rect width="258" height="376" fill="white"/>
</clipPath>
</defs>
</svg>
