<svg width="57" height="61" viewBox="0 0 57 61" fill="none" xmlns="http://www.w3.org/2000/svg">
<path d="M53.6602 34.8188V5.48047C53.6602 4.49337 52.9126 3.69336 51.9902 3.69336H43.5293V1.78711C43.5293 0.800011 42.7817 0 41.8594 0C40.937 0 40.1895 0.800011 40.1895 1.78711V3.69336H33.5098V1.78711C33.5098 0.800011 32.7622 0 31.8398 0C30.9175 0 30.1699 0.800011 30.1699 1.78711V3.69336H23.4902V1.78711C23.4902 0.800011 22.7427 0 21.8203 0C20.8979 0 20.1504 0.800011 20.1504 1.78711V3.69336H13.4707V1.78711C13.4707 0.800011 12.7232 0 11.8008 0C10.8784 0 10.1309 0.800011 10.1309 1.78711V3.69336H1.66992C0.747551 3.69336 0 4.49337 0 5.48047V52.0645C0 53.0516 0.747551 53.8516 1.66992 53.8516H29.4802C32.1799 58.1588 36.7709 61 41.9707 61C50.2577 61 57 53.7845 57 44.916C57 41.0951 55.7476 37.5814 53.6602 34.8188ZM10.1309 7.26758V9.05469C10.1309 10.0418 10.8784 10.8418 11.8008 10.8418C12.7232 10.8418 13.4707 10.0418 13.4707 9.05469V7.26758H20.1504V9.05469C20.1504 10.0418 20.8979 10.8418 21.8203 10.8418C22.7427 10.8418 23.4902 10.0418 23.4902 9.05469V7.26758H30.1699V9.05469C30.1699 10.0418 30.9175 10.8418 31.8398 10.8418C32.7622 10.8418 33.5098 10.0418 33.5098 9.05469V7.26758H40.1895V9.05469C40.1895 10.0418 40.937 10.8418 41.8594 10.8418C42.7817 10.8418 43.5293 10.0418 43.5293 9.05469V7.26758H50.3203V14.416H3.33984V7.26758H10.1309ZM3.33984 50.2773V17.9902H50.3203V31.549C47.9307 29.834 45.0579 28.832 41.9707 28.832C36.6939 28.832 32.0442 31.758 29.3619 36.1727C29.1362 36.0507 28.8818 35.9805 28.6113 35.9805H25.2715C24.3491 35.9805 23.6016 36.7805 23.6016 37.7676C23.6016 38.7547 24.3491 39.5547 25.2715 39.5547H27.8012C27.4241 40.693 27.1632 41.89 27.0349 43.1289H25.2715C24.3491 43.1289 23.6016 43.9289 23.6016 44.916C23.6016 45.9031 24.3491 46.7031 25.2715 46.7031H27.0349C27.1632 47.942 27.4237 49.139 27.8012 50.2773H3.33984ZM41.9707 57.4258C35.525 57.4258 30.2812 51.8141 30.2812 44.916C30.2812 38.018 35.525 32.4062 41.9707 32.4062C48.4164 32.4062 53.6602 38.018 53.6602 44.916C53.6602 51.8141 48.4164 57.4258 41.9707 57.4258Z" fill="white"/>
<path d="M15.1406 21.6836H11.8008C10.8784 21.6836 10.1309 22.4836 10.1309 23.4707C10.1309 24.4578 10.8784 25.2578 11.8008 25.2578H15.1406C16.063 25.2578 16.8105 24.4578 16.8105 23.4707C16.8105 22.4836 16.063 21.6836 15.1406 21.6836Z" fill="white"/>
<path d="M15.1406 28.832H11.8008C10.8784 28.832 10.1309 29.632 10.1309 30.6191C10.1309 31.6062 10.8784 32.4062 11.8008 32.4062H15.1406C16.063 32.4062 16.8105 31.6062 16.8105 30.6191C16.8105 29.632 16.063 28.832 15.1406 28.832Z" fill="white"/>
<path d="M15.1406 35.9805H11.8008C10.8784 35.9805 10.1309 36.7805 10.1309 37.7676C10.1309 38.7547 10.8784 39.5547 11.8008 39.5547H15.1406C16.063 39.5547 16.8105 38.7547 16.8105 37.7676C16.8105 36.7805 16.063 35.9805 15.1406 35.9805Z" fill="white"/>
<path d="M25.2715 25.2578H28.6113C29.5337 25.2578 30.2812 24.4578 30.2812 23.4707C30.2812 22.4836 29.5337 21.6836 28.6113 21.6836H25.2715C24.3491 21.6836 23.6016 22.4836 23.6016 23.4707C23.6016 24.4578 24.3491 25.2578 25.2715 25.2578Z" fill="white"/>
<path d="M25.2715 32.4062H28.6113C29.5337 32.4062 30.2812 31.6062 30.2812 30.6191C30.2812 29.632 29.5337 28.832 28.6113 28.832H25.2715C24.3491 28.832 23.6016 29.632 23.6016 30.6191C23.6016 31.6062 24.3491 32.4062 25.2715 32.4062Z" fill="white"/>
<path d="M15.1406 43.1289H11.8008C10.8784 43.1289 10.1309 43.9289 10.1309 44.916C10.1309 45.9031 10.8784 46.7031 11.8008 46.7031H15.1406C16.063 46.7031 16.8105 45.9031 16.8105 44.916C16.8105 43.9289 16.063 43.1289 15.1406 43.1289Z" fill="white"/>
<path d="M38.6309 25.2578H41.9707C42.8931 25.2578 43.6406 24.4578 43.6406 23.4707C43.6406 22.4836 42.8931 21.6836 41.9707 21.6836H38.6309C37.7085 21.6836 36.9609 22.4836 36.9609 23.4707C36.9609 24.4578 37.7085 25.2578 38.6309 25.2578Z" fill="white"/>
<g clip-path="url(#clip0_321_74)">
<path d="M50.2941 38.6727V42.0311C50.2941 42.6819 49.825 43.2095 49.2463 43.2095H46.2601C45.6815 43.2095 45.2124 42.6819 45.2124 42.0311C45.2124 41.3803 45.6815 40.8527 46.2601 40.8527H47.0607C45.9037 38.9877 44.0076 37.8478 41.9118 37.8478C39.3041 37.8478 37.0052 39.6122 36.0551 42.3428C35.8441 42.9489 35.2363 43.2478 34.6974 43.0107C34.1586 42.7735 33.8927 42.0899 34.1036 41.4839C34.7113 39.7375 35.7587 38.2467 37.1326 37.1726C38.5398 36.0725 40.1924 35.491 41.9118 35.491C43.6312 35.491 45.2838 36.0725 46.691 37.1726C47.2501 37.6097 47.7552 38.1159 48.1985 38.6802V38.6727C48.1985 38.0219 48.6677 37.4943 49.2463 37.4943C49.825 37.4943 50.2941 38.0219 50.2941 38.6727V38.6727ZM49.1261 46.8258C48.5872 46.5886 47.9794 46.8877 47.7685 47.4937C46.8183 50.2243 44.5194 51.9887 41.9118 51.9887C39.8605 51.9887 38.0004 50.8967 36.8375 49.1016H37.5634C38.1421 49.1016 38.6112 48.574 38.6112 47.9232C38.6112 47.2724 38.1421 46.7448 37.5634 46.7448H34.5772C33.9985 46.7448 33.5294 47.2724 33.5294 47.9232V51.2816C33.5294 51.9325 33.9985 52.4601 34.5772 52.4601C35.1559 52.4601 35.625 51.9325 35.625 51.2816V51.1563C36.0684 51.7206 36.5734 52.2268 37.1326 52.6639C38.5398 53.764 40.1924 54.3455 41.9118 54.3455C43.6312 54.3455 45.2838 53.764 46.691 52.6639C48.0649 51.5898 49.1123 50.099 49.72 48.3526C49.9309 47.7466 49.665 47.063 49.1261 46.8258V46.8258Z" fill="white"/>
</g>
<defs>
<clipPath id="clip0_321_74">
<rect width="16.7647" height="18.8545" fill="white" transform="translate(33.5294 35.491)"/>
</clipPath>
</defs>
</svg>
