<svg width="93" height="77" viewBox="0 0 93 77" fill="none" xmlns="http://www.w3.org/2000/svg">
<path d="M91.9289 24.9119L47.3664 0.23477C46.821 -0.067189 46.1789 -0.067189 45.6336 0.23477L1.07113 24.9119C0.414686 25.2754 0 26.0186 0 26.8311C0 27.644 0.414686 28.387 1.07113 28.7503L15.8231 36.9193V53.3176C15.8231 63.445 29.2981 71.3784 46.5002 71.3784C63.7023 71.3784 77.1771 63.4454 77.1771 53.3176V36.9193L82.3259 34.0681V49.7182C79.9524 50.614 78.2401 53.1056 78.2401 56.0336C78.2401 58.6883 79.6474 60.9849 81.6789 62.0585L77.5631 74.0852C77.3375 74.7446 77.4187 75.4847 77.7805 76.0649C78.1423 76.6451 78.7383 76.9915 79.375 76.9915H89.1532C89.7899 76.9915 90.3858 76.6451 90.7478 76.0649C91.1095 75.4847 91.1907 74.7446 90.9653 74.0854L86.8495 62.0587C88.8806 60.9851 90.2879 58.6885 90.2879 56.0338C90.2879 53.1056 88.5751 50.6138 86.2012 49.7182V31.9224L91.9294 28.7505C92.5859 28.387 93.0004 27.6438 93.0004 26.8313C93 26.0186 92.5853 25.2754 91.9289 24.9119ZM65.9553 62.6522C60.7911 65.5118 53.8817 67.087 46.5 67.087C39.1183 67.087 32.2091 65.512 27.0447 62.6522C22.3759 60.0667 19.698 56.6645 19.698 53.3178V39.0654L45.6336 53.4276C45.9064 53.5787 46.2032 53.6542 46.5 53.6542C46.7968 53.6542 47.0936 53.5787 47.3664 53.4276L73.302 39.0654V53.3178C73.302 56.6645 70.6242 60.0667 65.9553 62.6522ZM82.1809 72.7003L84.2638 66.6143L86.3465 72.7003H82.1809ZM86.4123 56.034C86.4124 57.3465 85.4485 58.4139 84.2638 58.4139C83.0788 58.4139 82.115 57.3463 82.115 56.034C82.115 54.7252 83.0739 53.6606 84.2542 53.6548C84.2573 53.6548 84.2602 53.6552 84.2633 53.6552C84.2665 53.6552 84.2696 53.6548 84.2727 53.6548C85.4532 53.6604 86.4123 54.725 86.4123 56.034ZM83.87 28.4149L46.6736 24.6949C45.608 24.5874 44.666 25.4587 44.5697 26.639C44.4734 27.8195 45.2594 28.8625 46.3251 28.9692L77.2788 32.0648L46.5 49.1093L6.26987 26.8311L46.5 4.55333L86.7301 26.8313L83.87 28.4149Z" fill="white"/>
</svg>
