<svg width="19" height="19" viewBox="0 0 19 19" fill="none" xmlns="http://www.w3.org/2000/svg">
<path d="M15.8816 3.11835C14.2483 1.48506 11.9923 0.474976 9.5 0.474976V9.49998L15.8816 3.11835Z" fill="#B53838"/>
<path d="M18.525 9.50003C18.525 7.19034 17.6439 4.88066 15.8816 3.11841L9.5 9.50003H18.525Z" fill="#B86E3E"/>
<path d="M15.8816 15.8816C17.5149 14.2483 18.525 11.9923 18.525 9.5H9.5L15.8816 15.8816Z" fill="#B88F28"/>
<path d="M9.5 18.525C11.8097 18.525 14.1194 17.6439 15.8816 15.8816L9.5 9.5V18.525Z" fill="#51966C"/>
<path d="M3.11841 15.8816C4.7517 17.5149 7.00771 18.525 9.50003 18.525V9.5L3.11841 15.8816Z" fill="#5682BA"/>
<path d="M0.474976 9.5C0.474976 11.8097 1.3561 14.1194 3.11835 15.8816L9.49998 9.5H0.474976Z" fill="#4965A8"/>
<path d="M3.11835 3.11841C1.48506 4.7517 0.474976 7.00771 0.474976 9.50003H9.49998L3.11835 3.11841Z" fill="#7E5D9E"/>
<path d="M9.50003 0.474976C7.19034 0.474976 4.88066 1.3561 3.11841 3.11835L9.50003 9.49998V0.474976Z" fill="#914683"/>
<path d="M15.7137 3.28631C14.1234 1.69601 11.9265 0.712524 9.5 0.712524V9.50002L15.7137 3.28631Z" fill="#EB6060" style="mix-blend-mode:overlay"/>
<path d="M18.2875 9.49997C18.2875 7.25108 17.4297 5.00219 15.7137 3.28625L9.5 9.49997H18.2875Z" fill="#F08A48" style="mix-blend-mode:overlay"/>
<path d="M15.7137 15.7137C17.304 14.1234 18.2875 11.9265 18.2875 9.5H9.5L15.7137 15.7137Z" fill="#FFDF59" style="mix-blend-mode:overlay"/>
<path d="M9.5 18.2875C11.7489 18.2875 13.9978 17.4297 15.7137 15.7137L9.5 9.5V18.2875Z" fill="#76D67D" style="mix-blend-mode:overlay"/>
<path d="M3.28625 15.7137C4.87656 17.304 7.07343 18.2875 9.49997 18.2875V9.5L3.28625 15.7137Z" fill="#669FED" style="mix-blend-mode:overlay"/>
<path d="M0.712524 9.5C0.712524 11.7489 1.57037 13.9978 3.28631 15.7137L9.50002 9.5H0.712524Z" fill="#6F85E8" style="mix-blend-mode:overlay"/>
<path d="M3.28631 3.28625C1.69601 4.87655 0.712524 7.07343 0.712524 9.49997H9.50002L3.28631 3.28625Z" fill="#B05DE3" style="mix-blend-mode:overlay"/>
<path d="M9.49997 0.712524C7.25108 0.712524 5.00219 1.57037 3.28625 3.28631L9.49997 9.50002V0.712524Z" fill="#DC5DE3" style="mix-blend-mode:overlay"/>
</svg>
