<svg width="28" height="28" viewBox="0 0 28 28" fill="none" xmlns="http://www.w3.org/2000/svg">
<g clip-path="url(#clip0_172_114)">
<path d="M14 8.53125C12.9184 8.53125 11.8611 8.85199 10.9617 9.4529C10.0624 10.0538 9.36145 10.9079 8.94754 11.9072C8.53362 12.9065 8.42532 14.0061 8.63633 15.0669C8.84735 16.1277 9.36819 17.1022 10.133 17.867C10.8978 18.6318 11.8723 19.1527 12.9331 19.3637C13.9939 19.5747 15.0935 19.4664 16.0928 19.0525C17.0921 18.6385 17.9462 17.9376 18.5471 17.0383C19.148 16.1389 19.4688 15.0816 19.4688 14C19.4688 12.5496 18.8926 11.1586 17.867 10.133C16.8414 9.10742 15.4504 8.53125 14 8.53125ZM14 18.1562C13.178 18.1562 12.3744 17.9125 11.6909 17.4558C11.0074 16.9991 10.4747 16.35 10.1601 15.5905C9.84555 14.8311 9.76324 13.9954 9.92361 13.1892C10.084 12.3829 10.4798 11.6423 11.0611 11.0611C11.6424 10.4798 12.3829 10.084 13.1892 9.92361C13.9954 9.76324 14.8311 9.84555 15.5905 10.1601C16.35 10.4747 16.9991 11.0074 17.4558 11.6909C17.9125 12.3744 18.1563 13.178 18.1563 14C18.1563 15.1023 17.7184 16.1595 16.9389 16.9389C16.1595 17.7184 15.1023 18.1562 14 18.1562Z" fill="black"/>
<path d="M26.4688 10.5H24.5153C24.4698 10.4997 24.4256 10.4852 24.3887 10.4585C24.3519 10.4318 24.3242 10.3943 24.3097 10.3512C24.1826 9.99018 24.0365 9.63604 23.8722 9.29031C23.8517 9.24952 23.8444 9.20333 23.8515 9.15821C23.8586 9.1131 23.8796 9.07133 23.9116 9.03875L25.2919 7.65625C25.4341 7.51406 25.5469 7.34525 25.6238 7.15946C25.7008 6.97367 25.7404 6.77454 25.7404 6.57344C25.7404 6.37234 25.7008 6.17321 25.6238 5.98742C25.5469 5.80163 25.4341 5.63282 25.2919 5.49062L22.5072 2.70813C22.365 2.56592 22.1962 2.45311 22.0104 2.37615C21.8246 2.29919 21.6255 2.25958 21.4244 2.25958C21.2233 2.25958 21.0241 2.29919 20.8384 2.37615C20.6526 2.45311 20.4838 2.56592 20.3416 2.70813L18.9613 4.08844C18.9287 4.12044 18.8869 4.14144 18.8418 4.1485C18.7967 4.15556 18.7505 4.14833 18.7097 4.12781C18.364 3.96343 18.0098 3.81739 17.6488 3.69031C17.6057 3.67576 17.5682 3.64813 17.5415 3.61128C17.5148 3.57442 17.5003 3.53017 17.5 3.48469V1.53125C17.5 1.12514 17.3387 0.735658 17.0515 0.448493C16.7643 0.161328 16.3749 0 15.9688 0H12.0312C11.6251 0 11.2357 0.161328 10.9485 0.448493C10.6613 0.735658 10.5 1.12514 10.5 1.53125V3.48469C10.4997 3.53017 10.4852 3.57442 10.4585 3.61128C10.4318 3.64813 10.3943 3.67576 10.3512 3.69031C9.99018 3.81744 9.63604 3.96348 9.29031 4.12781C9.24952 4.14833 9.20333 4.15556 9.15821 4.1485C9.1131 4.14144 9.07133 4.12044 9.03875 4.08844L7.65625 2.70813C7.51406 2.56592 7.34525 2.45311 7.15946 2.37615C6.97367 2.29919 6.77454 2.25958 6.57344 2.25958C6.37234 2.25958 6.17321 2.29919 5.98742 2.37615C5.80163 2.45311 5.63282 2.56592 5.49062 2.70813L2.70813 5.49281C2.56592 5.635 2.45311 5.80381 2.37615 5.9896C2.29919 6.17539 2.25958 6.37453 2.25958 6.57562C2.25958 6.77672 2.29919 6.97585 2.37615 7.16164C2.45311 7.34743 2.56592 7.51625 2.70813 7.65844L4.08844 9.03875C4.12044 9.07133 4.14144 9.1131 4.1485 9.15821C4.15556 9.20333 4.14833 9.24952 4.12781 9.29031C3.96343 9.63602 3.81739 9.99016 3.69031 10.3512C3.67576 10.3943 3.64813 10.4318 3.61128 10.4585C3.57442 10.4852 3.53017 10.4997 3.48469 10.5H1.53125C1.12514 10.5 0.735658 10.6613 0.448493 10.9485C0.161328 11.2357 0 11.6251 0 12.0312L0 15.9688C0 16.3749 0.161328 16.7643 0.448493 17.0515C0.735658 17.3387 1.12514 17.5 1.53125 17.5H3.48469C3.53017 17.5003 3.57442 17.5148 3.61128 17.5415C3.64813 17.5682 3.67576 17.6057 3.69031 17.6488C3.81744 18.0098 3.96348 18.364 4.12781 18.7097C4.14833 18.7505 4.15556 18.7967 4.1485 18.8418C4.14144 18.8869 4.12044 18.9287 4.08844 18.9613L2.70813 20.3438C2.56592 20.4859 2.45311 20.6548 2.37615 20.8405C2.29919 21.0263 2.25958 21.2255 2.25958 21.4266C2.25958 21.6277 2.29919 21.8268 2.37615 22.0126C2.45311 22.1984 2.56592 22.3672 2.70813 22.5094L5.49281 25.2941C5.635 25.4363 5.80381 25.5491 5.9896 25.626C6.17539 25.703 6.37453 25.7426 6.57562 25.7426C6.77672 25.7426 6.97585 25.703 7.16164 25.626C7.34743 25.5491 7.51625 25.4363 7.65844 25.2941L9.03875 23.9137C9.07133 23.8818 9.1131 23.8608 9.15821 23.8537C9.20333 23.8466 9.24952 23.8539 9.29031 23.8744C9.63602 24.0388 9.99016 24.1848 10.3512 24.3119C10.3943 24.3264 10.4318 24.3541 10.4585 24.3909C10.4852 24.4278 10.4997 24.472 10.5 24.5175V26.4688C10.5 26.8749 10.6613 27.2643 10.9485 27.5515C11.2357 27.8387 11.6251 28 12.0312 28H15.9688C16.3749 28 16.7643 27.8387 17.0515 27.5515C17.3387 27.2643 17.5 26.8749 17.5 26.4688V24.5153C17.5003 24.4698 17.5148 24.4256 17.5415 24.3887C17.5682 24.3519 17.6057 24.3242 17.6488 24.3097C18.0098 24.1826 18.364 24.0365 18.7097 23.8722C18.7505 23.8517 18.7967 23.8444 18.8418 23.8515C18.8869 23.8586 18.9287 23.8796 18.9613 23.9116L20.3438 25.2919C20.4859 25.4341 20.6548 25.5469 20.8405 25.6238C21.0263 25.7008 21.2255 25.7404 21.4266 25.7404C21.6277 25.7404 21.8268 25.7008 22.0126 25.6238C22.1984 25.5469 22.3672 25.4341 22.5094 25.2919L25.2941 22.5072C25.4363 22.365 25.5491 22.1962 25.626 22.0104C25.703 21.8246 25.7426 21.6255 25.7426 21.4244C25.7426 21.2233 25.703 21.0241 25.626 20.8384C25.5491 20.6526 25.4363 20.4838 25.2941 20.3416L23.9137 18.9613C23.8818 18.9287 23.8608 18.8869 23.8537 18.8418C23.8466 18.7967 23.8539 18.7505 23.8744 18.7097C24.0388 18.364 24.1848 18.0098 24.3119 17.6488C24.3264 17.6057 24.3541 17.5682 24.3909 17.5415C24.4278 17.5148 24.472 17.5003 24.5175 17.5H26.4688C26.8749 17.5 27.2643 17.3387 27.5515 17.0515C27.8387 16.7643 28 16.3749 28 15.9688V12.0312C28 11.6251 27.8387 11.2357 27.5515 10.9485C27.2643 10.6613 26.8749 10.5 26.4688 10.5ZM26.6875 15.9688C26.6875 16.0268 26.6645 16.0824 26.6234 16.1234C26.5824 16.1645 26.5268 16.1875 26.4688 16.1875H24.5153C24.198 16.1879 23.8887 16.2868 23.6301 16.4706C23.3714 16.6543 23.1763 16.9139 23.0716 17.2134C22.9596 17.5306 22.8311 17.8416 22.6866 18.1453C22.548 18.4316 22.5019 18.7539 22.5548 19.0675C22.6078 19.3811 22.757 19.6704 22.9819 19.8953L24.3622 21.2756C24.4029 21.3166 24.4258 21.3721 24.4258 21.4298C24.4258 21.4876 24.4029 21.5431 24.3622 21.5841L21.5797 24.3644C21.5387 24.4051 21.4833 24.428 21.4255 24.428C21.3677 24.428 21.3122 24.4051 21.2712 24.3644L19.8909 22.9841C19.666 22.7592 19.3767 22.6099 19.0631 22.557C18.7495 22.5041 18.4272 22.5501 18.1409 22.6888C17.8366 22.8334 17.5248 22.9619 17.2069 23.0738C16.9078 23.1788 16.6487 23.3741 16.4653 23.6327C16.2819 23.8913 16.1833 24.2005 16.1831 24.5175V26.4688C16.1831 26.5268 16.1601 26.5824 16.1191 26.6234C16.078 26.6645 16.0224 26.6875 15.9644 26.6875H12.0312C11.9732 26.6875 11.9176 26.6645 11.8766 26.6234C11.8355 26.5824 11.8125 26.5268 11.8125 26.4688V24.5153C11.8121 24.198 11.7132 23.8887 11.5294 23.6301C11.3457 23.3714 11.0861 23.1763 10.7866 23.0716C10.4694 22.9596 10.1584 22.8311 9.85469 22.6866C9.56844 22.548 9.24614 22.5019 8.93254 22.5548C8.61894 22.6078 8.3296 22.757 8.10469 22.9819L6.72437 24.3622C6.68339 24.4029 6.62795 24.4258 6.57016 24.4258C6.51237 24.4258 6.45692 24.4029 6.41594 24.3622L3.63563 21.5797C3.59488 21.5387 3.57201 21.4833 3.57201 21.4255C3.57201 21.3677 3.59488 21.3122 3.63563 21.2712L5.01594 19.8909C5.2408 19.666 5.39006 19.3767 5.44298 19.0631C5.4959 18.7495 5.44986 18.4272 5.31125 18.1409C5.16661 17.8366 5.0381 17.5248 4.92625 17.2069C4.82058 16.9089 4.62528 16.651 4.36718 16.4685C4.10907 16.286 3.8008 16.1878 3.48469 16.1875H1.53125C1.47323 16.1875 1.41759 16.1645 1.37657 16.1234C1.33555 16.0824 1.3125 16.0268 1.3125 15.9688V12.0312C1.3125 11.9732 1.33555 11.9176 1.37657 11.8766C1.41759 11.8355 1.47323 11.8125 1.53125 11.8125H3.48469C3.80197 11.8121 4.11131 11.7132 4.36994 11.5294C4.62858 11.3457 4.82373 11.0861 4.92844 10.7866C5.04036 10.4694 5.16887 10.1584 5.31344 9.85469C5.45204 9.56844 5.49808 9.24614 5.44516 8.93254C5.39224 8.61894 5.24299 8.3296 5.01813 8.10469L3.63781 6.72437C3.59707 6.68339 3.5742 6.62795 3.5742 6.57016C3.5742 6.51237 3.59707 6.45692 3.63781 6.41594L6.42031 3.63563C6.4613 3.59488 6.51674 3.57201 6.57453 3.57201C6.63232 3.57201 6.68776 3.59488 6.72875 3.63563L8.10906 5.01594C8.33397 5.2408 8.62331 5.39006 8.93692 5.44298C9.25052 5.4959 9.57282 5.44986 9.85906 5.31125C10.1634 5.16661 10.4752 5.0381 10.7931 4.92625C11.0911 4.82058 11.349 4.62528 11.5315 4.36718C11.714 4.10907 11.8122 3.8008 11.8125 3.48469V1.53125C11.8125 1.47323 11.8355 1.41759 11.8766 1.37657C11.9176 1.33555 11.9732 1.3125 12.0312 1.3125H15.9688C16.0268 1.3125 16.0824 1.33555 16.1234 1.37657C16.1645 1.41759 16.1875 1.47323 16.1875 1.53125V3.48469C16.1879 3.80197 16.2868 4.11131 16.4706 4.36994C16.6543 4.62858 16.9139 4.82373 17.2134 4.92844C17.5306 5.04036 17.8416 5.16887 18.1453 5.31344C18.4316 5.45204 18.7539 5.49808 19.0675 5.44516C19.3811 5.39224 19.6704 5.24299 19.8953 5.01813L21.2756 3.63781C21.3166 3.59707 21.3721 3.5742 21.4298 3.5742C21.4876 3.5742 21.5431 3.59707 21.5841 3.63781L24.3687 6.4225C24.4095 6.46349 24.4324 6.51893 24.4324 6.57672C24.4324 6.63451 24.4095 6.68995 24.3687 6.73094L22.9884 8.11125C22.7636 8.33616 22.6143 8.6255 22.5614 8.9391C22.5085 9.25271 22.5545 9.57501 22.6931 9.86125C22.8378 10.1656 22.9663 10.4774 23.0781 10.7953C23.1832 11.0944 23.3785 11.3535 23.6371 11.5369C23.8957 11.7203 24.2049 11.8189 24.5219 11.8191H26.4688C26.5268 11.8191 26.5824 11.8421 26.6234 11.8831C26.6645 11.9242 26.6875 11.9798 26.6875 12.0378V15.9688Z" fill="black"/>
</g>
<defs>
<clipPath id="clip0_172_114">
<rect width="28" height="28" fill="white"/>
</clipPath>
</defs>
</svg>
