<svg width="28" height="28" viewBox="0 0 28 28" fill="none" xmlns="http://www.w3.org/2000/svg">
<path d="M14 3C14.2652 3 14.5196 2.89464 14.7071 2.70711C14.8946 2.51957 15 2.26522 15 2V1C15 0.734784 14.8946 0.48043 14.7071 0.292893C14.5196 0.105357 14.2652 0 14 0C13.7348 0 13.4804 0.105357 13.2929 0.292893C13.1054 0.48043 13 0.734784 13 1V2C13 2.26522 13.1054 2.51957 13.2929 2.70711C13.4804 2.89464 13.7348 3 14 3Z" fill="black"/>
<path d="M14 25C13.7348 25 13.4804 25.1054 13.2929 25.2929C13.1054 25.4804 13 25.7348 13 26V27C13 27.2652 13.1054 27.5196 13.2929 27.7071C13.4804 27.8946 13.7348 28 14 28C14.2652 28 14.5196 27.8946 14.7071 27.7071C14.8946 27.5196 15 27.2652 15 27V26C15 25.7348 14.8946 25.4804 14.7071 25.2929C14.5196 25.1054 14.2652 25 14 25Z" fill="black"/>
<path d="M27 13H26C25.7348 13 25.4804 13.1054 25.2929 13.2929C25.1054 13.4804 25 13.7348 25 14C25 14.2652 25.1054 14.5196 25.2929 14.7071C25.4804 14.8946 25.7348 15 26 15H27C27.2652 15 27.5196 14.8946 27.7071 14.7071C27.8946 14.5196 28 14.2652 28 14C28 13.7348 27.8946 13.4804 27.7071 13.2929C27.5196 13.1054 27.2652 13 27 13Z" fill="black"/>
<path d="M2 13H1C0.734784 13 0.48043 13.1054 0.292893 13.2929C0.105357 13.4804 0 13.7348 0 14C0 14.2652 0.105357 14.5196 0.292893 14.7071C0.48043 14.8946 0.734784 15 1 15H2C2.26522 15 2.51957 14.8946 2.70711 14.7071C2.89464 14.5196 3 14.2652 3 14C3 13.7348 2.89464 13.4804 2.70711 13.2929C2.51957 13.1054 2.26522 13 2 13Z" fill="black"/>
<path d="M22.485 4.09994L21.778 4.80694C21.6825 4.89919 21.6063 5.00953 21.5539 5.13154C21.5015 5.25354 21.4739 5.38476 21.4728 5.51754C21.4716 5.65032 21.4969 5.782 21.5472 5.9049C21.5975 6.02779 21.6717 6.13944 21.7656 6.23334C21.8595 6.32723 21.9712 6.40148 22.094 6.45176C22.2169 6.50204 22.3486 6.52735 22.4814 6.52619C22.6142 6.52504 22.7454 6.49745 22.8674 6.44504C22.9894 6.39263 23.0997 6.31645 23.192 6.22094L23.9 5.51494C23.9929 5.42203 24.0666 5.31173 24.1169 5.19034C24.1672 5.06894 24.193 4.93884 24.193 4.80744C24.193 4.67605 24.1672 4.54594 24.1169 4.42454C24.0666 4.30315 23.9929 4.19285 23.9 4.09994C23.8071 4.00703 23.6968 3.93333 23.5754 3.88305C23.454 3.83276 23.3239 3.80688 23.1925 3.80688C23.0611 3.80688 22.931 3.83276 22.8096 3.88305C22.6882 3.93333 22.5779 4.00703 22.485 4.09994Z" fill="black"/>
<path d="M4.808 21.7781L4.1 22.4851C4.00709 22.578 3.93339 22.6883 3.88311 22.8097C3.83283 22.9311 3.80695 23.0612 3.80695 23.1926C3.80695 23.324 3.83283 23.4541 3.88311 23.5755C3.93339 23.6968 4.00709 23.8071 4.1 23.9001C4.28764 24.0877 4.54214 24.1931 4.8075 24.1931C4.9389 24.1931 5.06901 24.1672 5.1904 24.117C5.31179 24.0667 5.42209 23.993 5.515 23.9001L6.222 23.1931C6.31491 23.1002 6.38863 22.99 6.43893 22.8686C6.48924 22.7473 6.51516 22.6173 6.5152 22.4859C6.51525 22.3546 6.48943 22.2245 6.4392 22.1031C6.38898 21.9818 6.31535 21.8715 6.2225 21.7786C6.12966 21.6856 6.01942 21.6119 5.89809 21.5616C5.77676 21.5113 5.6467 21.4854 5.51536 21.4854C5.25009 21.4853 4.99564 21.5905 4.808 21.7781Z" fill="black"/>
<path d="M23.192 21.778C23.0034 21.5959 22.7508 21.4951 22.4886 21.4974C22.2264 21.4996 21.9756 21.6048 21.7902 21.7902C21.6048 21.9756 21.4996 22.2264 21.4974 22.4886C21.4951 22.7508 21.5959 23.0034 21.778 23.192L22.485 23.9C22.6727 24.0877 22.9272 24.1931 23.1925 24.1931C23.4579 24.1931 23.7124 24.0877 23.9 23.9C24.0877 23.7124 24.1931 23.4579 24.1931 23.1925C24.1931 22.9272 24.0877 22.6727 23.9 22.485L23.192 21.778Z" fill="black"/>
<path d="M4.808 6.22194C4.9966 6.4041 5.2492 6.50489 5.5114 6.50262C5.77359 6.50034 6.0244 6.39517 6.20981 6.20976C6.39522 6.02435 6.50039 5.77354 6.50266 5.51134C6.50494 5.24915 6.40415 4.99654 6.22199 4.80794L5.51499 4.09994C5.32735 3.9123 5.07286 3.80688 4.8075 3.80688C4.54213 3.80688 4.28764 3.9123 4.1 4.09994C3.91236 4.28758 3.80695 4.54208 3.80695 4.80744C3.80695 5.0728 3.91236 5.3273 4.1 5.51494L4.808 6.22194Z" fill="black"/>
<path d="M22.7 15.483C22.571 15.3556 22.4098 15.2658 22.2337 15.223C22.0575 15.1802 21.8731 15.186 21.7 15.24C21.029 15.4472 20.3303 15.5511 19.628 15.548C17.725 15.5461 15.9005 14.7894 14.5548 13.4439C13.2091 12.0984 12.4521 10.274 12.45 8.37097C12.4475 7.6689 12.5521 6.97055 12.76 6.29997C12.8143 6.12673 12.8204 5.94197 12.7776 5.76553C12.7349 5.58909 12.6449 5.42761 12.5174 5.29841C12.3898 5.16922 12.2295 5.07719 12.0536 5.03218C11.8777 4.98718 11.6929 4.99091 11.519 5.04297C10.001 5.50202 8.62783 6.34667 7.53352 7.49454C6.43921 8.64242 5.66108 10.0543 5.27503 11.5925C4.88899 13.1307 4.9082 14.7427 5.3308 16.2713C5.75341 17.7999 6.56497 19.1928 7.68633 20.3143C8.80769 21.4357 10.2006 22.2474 11.7291 22.6702C13.2576 23.0929 14.8697 23.1123 16.4079 22.7263C17.9461 22.3404 19.3581 21.5624 20.5061 20.4682C21.654 19.374 22.4988 18.001 22.958 16.483C23.0101 16.3086 23.0136 16.1233 22.9681 15.9471C22.9226 15.7709 22.8299 15.6104 22.7 15.483Z" fill="black"/>
</svg>
