<svg width="55" height="55" viewBox="0 0 55 55" fill="none" xmlns="http://www.w3.org/2000/svg">
<path d="M54.1475 12.5321C53.6859 11.8637 53.0358 11.3508 52.1978 10.9926C52.2426 11.8285 52.1879 12.5089 52.0336 13.0346L42.1257 48.3764C41.9491 48.9969 41.5636 49.4922 40.9698 49.8623C40.3751 50.2327 39.7587 50.4177 39.1202 50.4177H8.63666C5.99454 50.4177 4.40951 49.5834 3.88085 47.9112C3.66072 47.2665 3.67182 46.7537 3.91417 46.3717C4.15617 46.0133 4.57447 45.8339 5.16929 45.8339H33.8695C35.9173 45.8339 37.3318 45.4219 38.1136 44.5982C38.8959 43.7746 39.6827 41.9422 40.4749 39.1018L49.5243 6.65977C50.0085 4.89336 49.8105 3.34155 48.9296 2.00508C48.0487 0.66861 46.7939 0 45.1644 0H20.0314C19.7452 0 19.1836 0.107108 18.3469 0.322077L18.3797 0.214342C17.7632 0.0713638 17.2402 0.00589477 16.8109 0.0173079C16.3817 0.0297244 15.9853 0.166808 15.6221 0.429812C15.2588 0.69244 14.9669 0.972627 14.7468 1.27087C14.5267 1.56937 14.3118 1.9514 14.1027 2.4167C13.8939 2.88264 13.7175 3.31245 13.5744 3.70627C13.4313 4.10008 13.266 4.51811 13.0792 4.96021C12.8918 5.40181 12.7106 5.76578 12.5343 6.05211C12.4021 6.24312 12.2153 6.49371 11.9728 6.80412C11.731 7.11441 11.5327 7.38908 11.3786 7.62775C11.2246 7.86642 11.1253 8.08127 11.0815 8.27241C11.0378 8.487 11.0596 8.80331 11.1476 9.22133C11.2355 9.63872 11.2687 9.94287 11.2464 10.134C11.1585 11.041 10.8556 12.1926 10.3384 13.5896C9.82121 14.9862 9.35283 15.9951 8.93465 16.6154C8.84661 16.7346 8.60461 17.0032 8.20818 17.4211C7.81175 17.8388 7.56963 18.2025 7.48183 18.5128C7.39368 18.632 7.38813 18.9664 7.46517 19.5154C7.54222 20.0647 7.57009 20.4464 7.54788 20.6612C7.45939 21.473 7.18465 22.5471 6.72205 23.8841C6.25945 25.2207 5.79731 26.319 5.33471 27.1782C5.26889 27.3213 5.08195 27.5956 4.77332 28.0019C4.46538 28.4079 4.27787 28.7421 4.21193 29.004C4.16797 29.195 4.17375 29.5292 4.22859 30.0066C4.2833 30.4839 4.27787 30.8419 4.21193 31.0804C4.03598 31.9869 3.7056 33.0796 3.22114 34.357C2.73679 35.6335 2.24133 36.7269 1.73454 37.6331C1.6029 37.8721 1.42082 38.1529 1.18993 38.4748C0.958683 38.7966 0.777183 39.0774 0.644961 39.3159C0.512971 39.5546 0.424824 39.8052 0.38075 40.068C0.358771 40.2113 0.392087 40.444 0.480119 40.7667C0.568035 41.0885 0.601235 41.3451 0.578909 41.5367C0.556698 41.8706 0.512971 42.3127 0.446919 42.862C0.38075 43.4105 0.34755 43.7323 0.34755 43.8276C-0.136798 45.2604 -0.115051 46.7764 0.413719 48.3765C1.03029 50.2375 2.12542 51.808 3.6997 53.0848C5.27409 54.3622 6.90864 55 8.60427 55H39.0882C40.5188 55 41.8675 54.4806 43.1336 53.4428C44.3996 52.4042 45.2421 51.1217 45.6597 49.5929L54.7417 17.1517C55.2267 15.4325 55.0287 13.8928 54.1475 12.5321ZM19.0073 12.6038L19.701 10.3118C19.7889 10.0016 19.9704 9.73304 20.2458 9.50628C20.5211 9.2799 20.8019 9.16614 21.0881 9.16614H41.1688C41.4768 9.16614 41.6968 9.2794 41.8291 9.50628C41.9609 9.73317 41.9835 10.0016 41.8956 10.3118L41.2013 12.6038C41.1129 12.9142 40.9321 13.1821 40.6561 13.4095C40.3805 13.6358 40.1002 13.7491 39.8142 13.7491H19.7341C19.4257 13.7491 19.2057 13.6362 19.0735 13.4095C18.9414 13.1821 18.9194 12.9142 19.0073 12.6038ZM16.2663 21.7705L16.9599 19.479C17.0478 19.1687 17.2295 18.9002 17.5046 18.6734C17.7799 18.4465 18.0605 18.3333 18.347 18.3333H38.4269C38.7353 18.3333 38.9558 18.4462 39.0877 18.6734C39.2196 18.9003 39.2417 19.1687 39.1534 19.479L38.4598 21.7705C38.372 22.0808 38.1903 22.3496 37.9152 22.5761C37.6395 22.803 37.3593 22.9162 37.0727 22.9162H16.9927C16.6846 22.9162 16.4644 22.8034 16.3324 22.5761C16.2001 22.3496 16.1782 22.0808 16.2663 21.7705Z" fill="white"/>
</svg>
