<svg width="50" height="54" viewBox="0 0 50 54" fill="none" xmlns="http://www.w3.org/2000/svg">
<g clip-path="url(#clip0_321_87)">
<path d="M50 11.7475C50 9.00738 47.9358 6.77808 45.3987 6.77808H4.60129C2.06466 6.77818 0.00087891 9.00643 0 11.7483V11.7492V42.2507C0 45.0251 2.08516 47.2218 4.60285 47.2218H45.3971C47.9658 47.2218 49.9999 44.9699 49.9999 42.2507V11.7492C49.9999 11.7489 49.9999 11.7487 49.9999 11.7485C50 11.7482 50 11.7479 50 11.7475V11.7475ZM4.60129 9.94226H45.3987C46.3204 9.94226 47.0703 10.7522 47.0703 11.7501C47.0703 12.2804 46.8263 12.7726 46.4171 13.0671L25.9282 27.8197C25.3645 28.2257 24.6357 28.2258 24.0719 27.8197C24.0719 27.8197 3.58253 13.0668 3.58292 13.0671C3.58302 13.0672 3.58263 13.0669 3.58253 13.0668C3.17374 12.7726 2.9297 12.2804 2.9297 11.7475C2.9297 10.7521 3.6796 9.94226 4.60129 9.94226V9.94226ZM45.3972 44.0577H4.60285C3.69083 44.0577 2.9297 43.2613 2.9297 42.2507V16.3996L22.4467 30.4522C23.2223 31.0107 24.1111 31.2899 25 31.2899C25.889 31.2899 26.7779 31.0107 27.5534 30.4522L47.0703 16.3996V42.2508C47.0703 43.2357 46.3329 44.0577 45.3972 44.0577V44.0577Z" fill="white"/>
</g>
<defs>
<clipPath id="clip0_321_87">
<rect width="50" height="54" fill="white"/>
</clipPath>
</defs>
</svg>
