<svg width="70" height="70" viewBox="0 0 70 70" fill="none" xmlns="http://www.w3.org/2000/svg">
<g clip-path="url(#clip0_222_40)">
<path d="M32.4844 60.6375H36.8156V56.3062H32.4844V60.6375ZM34.65 8.6625C33.4546 8.6625 32.4844 9.6327 32.4844 10.8281V32.5363H15.1594C13.9639 32.5363 12.9937 33.5065 12.9937 34.702C12.9937 35.8974 13.9639 36.8676 15.1594 36.8676H34.65C35.8454 36.8676 36.8156 35.8974 36.8156 34.702V10.8281C36.8156 9.6327 35.8454 8.6625 34.65 8.6625ZM14.5812 49.4455L17.5784 52.4492L20.5756 49.4455L17.5784 46.4419L14.5812 49.4455ZM20.9913 18.0245L17.927 14.9623L14.8647 18.0245L17.927 21.0867L20.9913 18.0245ZM47.8083 17.9162L50.8056 20.9199L53.8028 17.9162L50.8056 14.9125L47.8083 17.9162ZM47.1738 49.3286L50.236 52.3908L53.2983 49.3286L50.236 46.2665L47.1738 49.3286ZM56.3062 32.4844V36.8156H60.6375V32.4844H56.3062ZM34.65 0C15.5123 0 0 15.5146 0 34.65C0 53.7877 15.5123 69.3 34.65 69.3C53.7877 69.3 69.3 53.7854 69.3 34.65C69.3 15.5146 53.7877 0 34.65 0ZM34.65 64.9687C17.9053 64.9687 4.33125 51.3947 4.33125 34.65C4.33125 17.9053 17.9053 4.33125 34.65 4.33125C51.3947 4.33125 64.9687 17.9053 64.9687 34.65C64.9687 51.3947 51.3947 64.9687 34.65 64.9687Z" fill="#3E92CC"/>
</g>
<defs>
<clipPath id="clip0_222_40">
<rect width="69.3" height="69.3" rx="34.65" fill="white"/>
</clipPath>
</defs>
</svg>
