<svg width="63" height="63" viewBox="0 0 63 63" fill="none" xmlns="http://www.w3.org/2000/svg">
<path d="M29.5312 55.125H33.4688V51.1875H29.5312V55.125ZM31.5 7.875C30.4132 7.875 29.5312 8.757 29.5312 9.84375V29.5785H13.7812C12.6945 29.5785 11.8125 30.4605 11.8125 31.5473C11.8125 32.634 12.6945 33.516 13.7812 33.516H31.5C32.5868 33.516 33.4688 32.634 33.4688 31.5473V9.84375C33.4688 8.757 32.5868 7.875 31.5 7.875ZM13.2556 44.9505L15.9804 47.6811L18.7051 44.9505L15.9804 42.2199L13.2556 44.9505ZM19.083 16.3859L16.2972 13.6021L13.5134 16.3859L16.2972 19.1697L19.083 16.3859ZM43.4621 16.2875L46.1869 19.0181L48.9117 16.2875L46.1869 13.5568L43.4621 16.2875ZM42.8853 44.8442L45.6691 47.628L48.453 44.8442L45.6691 42.0604L42.8853 44.8442ZM51.1875 29.5312V33.4688H55.125V29.5312H51.1875ZM31.5 0C14.1021 0 0 14.1042 0 31.5C0 48.8979 14.1021 63 31.5 63C48.8979 63 63 48.8958 63 31.5C63 14.1042 48.8979 0 31.5 0ZM31.5 59.0625C16.2776 59.0625 3.9375 46.7224 3.9375 31.5C3.9375 16.2776 16.2776 3.9375 31.5 3.9375C46.7224 3.9375 59.0625 16.2776 59.0625 31.5C59.0625 46.7224 46.7224 59.0625 31.5 59.0625Z" fill="#3E92CC"/>
</svg>
