<svg width="32" height="32" viewBox="0 0 32 32" fill="none" xmlns="http://www.w3.org/2000/svg">
<circle cx="16" cy="16" r="16" fill="#3E92CC"/>
<g clip-path="url(#clip0_172_187)">
<path d="M15.8982 8.33812C15.5504 8.33812 15.2682 8.62036 15.2682 8.96812V15.2832H10.2282C9.88042 15.2832 9.59818 15.5655 9.59818 15.9132C9.59818 16.261 9.88042 16.5432 10.2282 16.5432H15.8982C16.2459 16.5432 16.5282 16.261 16.5282 15.9132V8.96812C16.5282 8.62036 16.2459 8.33812 15.8982 8.33812ZM15.8982 5.81812C10.3309 5.81812 5.81818 10.3315 5.81818 15.8981C5.81818 21.4654 10.3309 25.9781 15.8982 25.9781C21.4655 25.9781 25.9782 21.4648 25.9782 15.8981C25.9782 10.3315 21.4655 5.81812 15.8982 5.81812ZM15.8982 24.7181C11.027 24.7181 7.07818 20.7693 7.07818 15.8981C7.07818 11.0269 11.027 7.07812 15.8982 7.07812C20.7694 7.07812 24.7182 11.0269 24.7182 15.8981C24.7182 20.7693 20.7694 24.7181 15.8982 24.7181Z" fill="white"/>
</g>
<defs>
<clipPath id="clip0_172_187">
<rect width="20.16" height="20.16" fill="white" transform="translate(5.81818 5.81812)"/>
</clipPath>
</defs>
</svg>
