<svg width="22" height="22" viewBox="0 0 22 22" fill="none" xmlns="http://www.w3.org/2000/svg">
<circle cx="11" cy="11" r="11" fill="#3E92CC"/>
<path d="M9.2222 8.84619H14.6952C14.8085 8.84619 14.9003 8.75437 14.9003 8.64111C14.9003 8.52786 14.8085 8.43604 14.6952 8.43604H9.2222C9.10894 8.43604 9.01712 8.52786 9.01712 8.64111C9.01712 8.75437 9.10894 8.84619 9.2222 8.84619Z" fill="white"/>
<path d="M9.2222 10.3662H14.6952C14.8085 10.3662 14.9003 10.2744 14.9003 10.1611C14.9003 10.0479 14.8085 9.95605 14.6952 9.95605H9.2222C9.10894 9.95605 9.01712 10.0479 9.01712 10.1611C9.01712 10.2744 9.10894 10.3662 9.2222 10.3662Z" fill="white"/>
<path d="M9.2222 11.8862H14.6952C14.8085 11.8862 14.9003 11.7943 14.9003 11.6811C14.9003 11.5678 14.8085 11.476 14.6952 11.476H9.2222C9.10894 11.476 9.01712 11.5678 9.01712 11.6811C9.01712 11.7943 9.10894 11.8862 9.2222 11.8862Z" fill="white"/>
<path d="M16.7067 6.6256C16.7049 6.5742 16.6834 6.52394 16.6469 6.48749L14.2195 4.06007C14.1816 4.02212 14.1281 4 14.0745 4H8.01468C7.5712 4 7.21042 4.3608 7.21042 4.80429V4.95873H7.05598C6.64129 4.95873 6.29897 5.27422 6.25626 5.67776H6.09726C5.65377 5.67776 5.29297 6.03856 5.29297 6.48205V14.2694C5.29297 14.3827 5.38479 14.2694 5.49805 14.2694C5.6113 14.2694 5.70312 14.3827 5.70312 14.2694V6.48202C5.70312 6.26469 5.87993 6.08789 6.09726 6.08789H6.2517V16.4767C6.2517 16.9202 6.6125 17.281 7.05598 17.281H13.1667C13.28 17.281 13 17.1891 13 17.0759C13 16.9626 13.28 16.8708 13.1667 16.8708H7.05598C6.83866 16.8708 6.66185 16.694 6.66185 16.4767V5.76299C6.66185 5.54566 6.83866 5.36886 7.05598 5.36886H7.21042L7.21042 7.375C7.21042 7.48826 7.30224 6.69104 7.4155 6.69104C7.52876 6.69104 7.62058 7.49297 7.62058 7.37971V4.80429C7.62058 4.58696 7.79738 4.41016 8.01468 4.41016H13.8694V6.03339C13.8694 6.47682 14.2302 6.83757 14.6736 6.83757H16.2968V15.518C16.2968 15.7353 16.12 15.9121 15.9027 15.9121H8.01468C7.79736 15.9121 7.62058 15.7353 7.62058 15.518V7.37971C7.62058 7.26646 7.52876 5.67776 7.4155 5.67776C7.30224 5.67776 7.21042 6.30094 7.21042 7.37971V15.518C7.21042 15.9614 7.57122 16.3222 8.01468 16.3222H15.3381V16.4767C15.3381 16.694 15.1613 16.8708 14.944 16.8708H13.1667C13.0535 16.8708 12.9617 16.9626 12.9617 17.0759C12.9617 17.1891 13.0535 17.281 13.1667 17.281H14.3699C14.3308 17.4574 14.1733 17.5898 13.9853 17.5898H6.09726C5.87993 17.5898 5.70312 17.413 5.70312 17.1957V14.2694C5.70312 14.1562 5.6113 14.0644 5.49805 14.0644C5.38479 14.0644 5.29297 14.1562 5.29297 14.2694V17.1957C5.29297 17.6392 5.65377 18 6.09726 18H13.9853C14.4 18 14.7423 17.6845 14.785 17.281H14.944C15.3875 17.281 15.7483 16.9202 15.7483 16.4767V16.3222H15.9028C16.3462 16.3222 16.707 15.9614 16.707 15.518V6.63249C16.707 6.6302 16.7067 6.6279 16.7067 6.6256ZM14.6736 6.42741C14.4564 6.42741 14.2796 6.25066 14.2796 6.03339V4.70016L16.0069 6.42741H14.6736Z" fill="white"/>
</svg>
