<svg width="64" height="64" viewBox="0 0 64 64" fill="none" xmlns="http://www.w3.org/2000/svg">
<path fill-rule="evenodd" clip-rule="evenodd" d="M48 21.3333C48 19.1241 49.7908 17.3333 52 17.3333C54.2092 17.3333 56 19.1241 56 21.3333V48.4037L52 54.4037L48 48.4037V21.3333ZM52 20C51.2636 20 50.6667 20.5969 50.6667 21.3333V47.5963L52 49.5963L53.3333 47.5963V21.3333C53.3333 20.5969 52.7364 20 52 20Z" fill="white"/>
<path fill-rule="evenodd" clip-rule="evenodd" d="M54.6666 26.6667H49.3333V24H54.6666V26.6667Z" fill="white"/>
<path fill-rule="evenodd" clip-rule="evenodd" d="M13.3333 10.6667C11.8606 10.6667 10.6667 11.8606 10.6667 13.3333V50.6656C10.6667 52.1384 11.8606 53.3323 13.3333 53.3323H40C41.4728 53.3323 42.6667 52.1384 42.6667 50.6656V13.3333C42.6667 11.8606 41.4728 10.6667 40 10.6667H13.3333ZM8 13.3333C8 10.3878 10.3878 8 13.3333 8H40C42.9455 8 45.3333 10.3878 45.3333 13.3333V50.6656C45.3333 53.6112 42.9455 55.9989 40 55.9989H13.3333C10.3878 55.9989 8 53.6112 8 50.6656V13.3333Z" fill="white"/>
<path fill-rule="evenodd" clip-rule="evenodd" d="M26.6667 20C26.6667 19.2636 27.2636 18.6667 28 18.6667H38.6667C39.4031 18.6667 40 19.2636 40 20C40 20.7364 39.4031 21.3333 38.6667 21.3333H28C27.2636 21.3333 26.6667 20.7364 26.6667 20Z" fill="white"/>
<path fill-rule="evenodd" clip-rule="evenodd" d="M26.6667 25.3333C26.6667 24.5969 27.2636 24 28 24H38.6667C39.4031 24 40 24.5969 40 25.3333C40 26.0697 39.4031 26.6667 38.6667 26.6667H28C27.2636 26.6667 26.6667 26.0697 26.6667 25.3333Z" fill="white"/>
<path fill-rule="evenodd" clip-rule="evenodd" d="M26.6667 37.3333C26.6667 36.5969 27.2636 36 28 36H38.6667C39.4031 36 40 36.5969 40 37.3333C40 38.0697 39.4031 38.6667 38.6667 38.6667H28C27.2636 38.6667 26.6667 38.0697 26.6667 37.3333Z" fill="white"/>
<path fill-rule="evenodd" clip-rule="evenodd" d="M26.6667 42.6667C26.6667 41.9303 27.2636 41.3333 28 41.3333H38.6667C39.4031 41.3333 40 41.9303 40 42.6667C40 43.4031 39.4031 44 38.6667 44H28C27.2636 44 26.6667 43.4031 26.6667 42.6667Z" fill="white"/>
<path fill-rule="evenodd" clip-rule="evenodd" d="M16 37.3333V41.3333H20V37.3333H16ZM14.6666 34.6667H21.3333C22.0697 34.6667 22.6666 35.2636 22.6666 36V42.6667C22.6666 43.4031 22.0697 44 21.3333 44H14.6666C13.9302 44 13.3333 43.4031 13.3333 42.6667V36C13.3333 35.2636 13.9302 34.6667 14.6666 34.6667Z" fill="white"/>
<path fill-rule="evenodd" clip-rule="evenodd" d="M23.6094 19.0572C24.1301 19.5779 24.1301 20.4221 23.6094 20.9428L17.3333 27.2189L13.7238 23.6095C13.2031 23.0888 13.2031 22.2445 13.7238 21.7239C14.2445 21.2032 15.0888 21.2032 15.6094 21.7239L17.3333 23.4477L21.7238 19.0572C22.2445 18.5365 23.0888 18.5365 23.6094 19.0572Z" fill="white"/>
</svg>
