<svg width="32" height="32" viewBox="0 0 32 32" fill="none" xmlns="http://www.w3.org/2000/svg">
<circle cx="16" cy="16" r="16" fill="#3E92CC"/>
<path d="M12.9296 11.3232H22.0246C22.2128 11.3232 22.3654 11.1693 22.3654 10.9795C22.3654 10.7897 22.2128 10.6357 22.0246 10.6357H12.9296C12.7414 10.6357 12.5888 10.7897 12.5888 10.9795C12.5888 11.1693 12.7414 11.3232 12.9296 11.3232Z" fill="white"/>
<path d="M12.9296 13.8708H22.0246C22.2128 13.8708 22.3654 13.7169 22.3654 13.5271C22.3654 13.3373 22.2128 13.1833 22.0246 13.1833H12.9296C12.7414 13.1833 12.5888 13.3373 12.5888 13.5271C12.5888 13.7169 12.7414 13.8708 12.9296 13.8708Z" fill="white"/>
<path d="M12.9296 16.4187H22.0246C22.2128 16.4187 22.3654 16.2648 22.3654 16.075C22.3654 15.8851 22.2128 15.7312 22.0246 15.7312H12.9296C12.7414 15.7312 12.5888 15.8851 12.5888 16.075C12.5888 16.2648 12.7414 16.4187 12.9296 16.4187Z" fill="white"/>
<path d="M25.3672 7.60096C25.3643 7.51479 25.3286 7.43055 25.268 7.36946L21.2341 3.30065C21.171 3.23703 21.0822 3.19995 20.9931 3.19995H10.9229C10.186 3.19995 9.58643 3.80472 9.58643 4.54809V4.80696H9.32979C8.64065 4.80696 8.07179 5.33578 8.00082 6.01219H7.73659C6.9996 6.01219 6.40002 6.61696 6.40002 7.36033V20.4135C6.40002 20.6033 6.55261 20.4135 6.74082 20.4135C6.92903 20.4135 7.08162 20.6033 7.08162 20.4135V7.36029C7.08162 6.99601 7.37543 6.69965 7.73659 6.69965H7.99323V24.1132C7.99323 24.8566 8.5928 25.4614 9.32979 25.4614H19.4846C19.6728 25.4614 19.2075 25.3075 19.2075 25.1176C19.2075 24.9278 19.6728 24.7739 19.4846 24.7739H9.32979C8.96864 24.7739 8.67482 24.4775 8.67482 24.1132V6.15506C8.67482 5.79077 8.96864 5.49441 9.32979 5.49441H9.58643L9.58643 8.8571C9.58643 9.04694 9.73902 7.71064 9.92723 7.71064C10.1154 7.71064 10.268 9.05484 10.268 8.865V4.54809C10.268 4.18381 10.5618 3.88745 10.9229 3.88745H20.6523V6.6083C20.6523 7.35158 21.2518 7.95626 21.9887 7.95626H24.6862V22.5062C24.6862 22.8705 24.3923 23.1669 24.0312 23.1669H10.9229C10.5618 23.1669 10.268 22.8705 10.268 22.5062V8.865C10.268 8.67516 10.1154 6.01219 9.92723 6.01219C9.73902 6.01219 9.58643 7.05676 9.58643 8.865V22.5062C9.58643 23.2496 10.186 23.8544 10.9229 23.8544H23.093V24.1132C23.093 24.4775 22.7992 24.7739 22.438 24.7739H19.4846C19.2964 24.7739 19.1438 24.9278 19.1438 25.1176C19.1438 25.3075 19.2964 25.4614 19.4846 25.4614H21.4839C21.419 25.7571 21.1573 25.9791 20.8448 25.9791H7.73659C7.37543 25.9791 7.08162 25.6828 7.08162 25.3185V20.4135C7.08162 20.2236 6.92903 20.0697 6.74082 20.0697C6.55261 20.0697 6.40002 20.2236 6.40002 20.4135V25.3185C6.40002 26.0618 6.9996 26.6666 7.73659 26.6666H20.8449C21.534 26.6666 22.1029 26.1378 22.1738 25.4614H22.4381C23.1751 25.4614 23.7746 24.8566 23.7746 24.1132V23.8544H24.0313C24.7683 23.8544 25.3678 23.2496 25.3678 22.5062V7.61251C25.3678 7.60866 25.3673 7.60481 25.3672 7.60096ZM21.9887 7.26876C21.6277 7.26876 21.3339 6.97249 21.3339 6.6083V4.37356L24.2043 7.26876H21.9887Z" fill="white"/>
</svg>
