<svg width="30" height="30" viewBox="0 0 30 30" fill="none" xmlns="http://www.w3.org/2000/svg">
<path d="M15 6C12.1094 6 9.75 8.35939 9.75 11.25C9.75 13.0566 10.6734 14.6641 12.0703 15.6094C9.39496 16.7567 7.5 19.4109 7.5 22.5H9C9 19.177 11.677 16.5 15 16.5C18.323 16.5 21 19.177 21 22.5H22.5C22.5 19.4109 20.605 16.7567 17.9297 15.6094C19.3266 14.6641 20.25 13.0566 20.25 11.25C20.25 8.35939 17.8906 6 15 6ZM15 7.5C17.08 7.5 18.75 9.17005 18.75 11.25C18.75 13.33 17.08 15 15 15C12.92 15 11.25 13.33 11.25 11.25C11.25 9.17005 12.92 7.5 15 7.5Z" fill="black"/>
<circle cx="15" cy="15" r="14" stroke="black" stroke-width="2"/>
</svg>
