<svg width="32" height="32" viewBox="0 0 32 32" fill="none" xmlns="http://www.w3.org/2000/svg">
<circle cx="16" cy="16" r="16" fill="#3E92CC"/>
<path d="M24.6573 6.55569L21.7239 3.35569C21.6784 3.30619 21.6245 3.26696 21.5651 3.24024C21.5057 3.21352 21.442 3.19983 21.3778 3.19995H10.6222C10.4926 3.19995 10.3682 3.25614 10.2765 3.35616C10.1849 3.45618 10.1333 3.59184 10.1333 3.73329V6.39995H7.6889C7.55924 6.39995 7.43489 6.45614 7.3432 6.55616C7.25152 6.65618 7.20001 6.79184 7.20001 6.93328V26.1333C7.20001 26.2747 7.25152 26.4104 7.3432 26.5104C7.43489 26.6104 7.55924 26.6666 7.6889 26.6666H21.3778C21.5075 26.6666 21.6318 26.6104 21.7235 26.5104C21.8152 26.4104 21.8667 26.2747 21.8667 26.1333V23.4666H24.3111C24.4408 23.4666 24.5651 23.4104 24.6568 23.3104C24.7485 23.2104 24.8 23.0747 24.8 22.9333V6.93328C24.8001 6.8632 24.7876 6.79378 24.7631 6.72899C24.7386 6.66419 24.7026 6.60531 24.6573 6.55569ZM21.8667 5.02075L23.1309 6.39995H21.8667V5.02075ZM20.8889 25.5999H8.17779V7.46662H10.1333V22.9333C10.1333 23.0747 10.1849 23.2104 10.2765 23.3104C10.3682 23.4104 10.4926 23.4666 10.6222 23.4666H20.8889V25.5999ZM11.1111 22.4V4.26662H20.8889V6.93328C20.8889 7.07473 20.9404 7.21039 21.0321 7.31041C21.1238 7.41043 21.2481 7.46662 21.3778 7.46662H23.8222V22.4H11.1111Z" fill="white"/>
<path d="M12.5778 9.59992C12.7075 9.59992 12.8318 9.54373 12.9235 9.44371C13.0152 9.34369 13.0667 9.20803 13.0667 9.06659V8.53325H14.0445V9.06659C14.0445 9.20803 14.096 9.34369 14.1877 9.44371C14.2794 9.54373 14.4037 9.59992 14.5334 9.59992C14.663 9.59992 14.7874 9.54373 14.8791 9.44371C14.9708 9.34369 15.0223 9.20803 15.0223 9.06659V6.93325C15.0223 6.50891 14.8677 6.10194 14.5927 5.80188C14.3176 5.50182 13.9446 5.33325 13.5556 5.33325C13.1666 5.33325 12.7936 5.50182 12.5185 5.80188C12.2435 6.10194 12.0889 6.50891 12.0889 6.93325V9.06659C12.0889 9.20803 12.1404 9.34369 12.2321 9.44371C12.3238 9.54373 12.4482 9.59992 12.5778 9.59992ZM13.5556 6.39992C13.6853 6.39992 13.8096 6.45611 13.9013 6.55613C13.993 6.65615 14.0445 6.7918 14.0445 6.93325V7.46659H13.0667V6.93325C13.0667 6.7918 13.1182 6.65615 13.2099 6.55613C13.3016 6.45611 13.4259 6.39992 13.5556 6.39992Z" fill="white"/>
<path d="M12.8013 18.1048H15.7346C15.8643 18.1048 15.9886 18.0486 16.0803 17.9485C16.172 17.8485 16.2235 17.7129 16.2235 17.5714C16.2235 17.43 16.172 17.2943 16.0803 17.1943C15.9886 17.0943 15.8643 17.0381 15.7346 17.0381H12.8013C12.6716 17.0381 12.5473 17.0943 12.4556 17.1943C12.3639 17.2943 12.3124 17.43 12.3124 17.5714C12.3124 17.7129 12.3639 17.8485 12.4556 17.9485C12.5473 18.0486 12.6716 18.1048 12.8013 18.1048Z" fill="white"/>
<path d="M22.3556 20.2666H12.5778C12.4482 20.2666 12.3238 20.3228 12.2321 20.4228C12.1404 20.5228 12.0889 20.6585 12.0889 20.7999C12.0889 20.9414 12.1404 21.077 12.2321 21.1771C12.3238 21.2771 12.4482 21.3333 12.5778 21.3333H22.3556C22.4853 21.3333 22.6096 21.2771 22.7013 21.1771C22.793 21.077 22.8445 20.9414 22.8445 20.7999C22.8445 20.6585 22.793 20.5228 22.7013 20.4228C22.6096 20.3228 22.4853 20.2666 22.3556 20.2666Z" fill="white"/>
<path d="M22.579 14.5352H12.8013C12.6716 14.5352 12.5473 14.5913 12.4556 14.6914C12.3639 14.7914 12.3124 14.927 12.3124 15.0685C12.3124 15.2099 12.3639 15.3456 12.4556 15.4456C12.5473 15.5456 12.6716 15.6018 12.8013 15.6018H22.579C22.7087 15.6018 22.8331 15.5456 22.9247 15.4456C23.0164 15.3456 23.0679 15.2099 23.0679 15.0685C23.0679 14.927 23.0164 14.7914 22.9247 14.6914C22.8331 14.5913 22.7087 14.5352 22.579 14.5352Z" fill="white"/>
<path d="M22.579 12.032H12.8013C12.6716 12.032 12.5473 12.0882 12.4556 12.1882C12.3639 12.2882 12.3124 12.4239 12.3124 12.5653C12.3124 12.7068 12.3639 12.8424 12.4556 12.9424C12.5473 13.0425 12.6716 13.0986 12.8013 13.0986H22.579C22.7087 13.0986 22.8331 13.0425 22.9247 12.9424C23.0164 12.8424 23.0679 12.7068 23.0679 12.5653C23.0679 12.4239 23.0164 12.2882 22.9247 12.1882C22.8331 12.0882 22.7087 12.032 22.579 12.032Z" fill="white"/>
</svg>
