<svg width="15" height="15" viewBox="0 0 15 15" fill="none" xmlns="http://www.w3.org/2000/svg">
<path d="M12.4219 5.85938C12.4219 8.57813 7.5 14.0625 7.5 14.0625C7.5 14.0625 2.57812 8.57813 2.57812 5.85938C2.57812 4.55401 3.09668 3.30211 4.01971 2.37908C4.94274 1.45605 6.19464 0.9375 7.5 0.9375C8.80536 0.9375 10.0573 1.45605 10.9803 2.37908C11.9033 3.30211 12.4219 4.55401 12.4219 5.85938V5.85938Z" stroke="white" stroke-linecap="round" stroke-linejoin="round"/>
<path d="M7.5 6.84375C8.22487 6.84375 8.8125 6.25612 8.8125 5.53125C8.8125 4.80638 8.22487 4.21875 7.5 4.21875C6.77513 4.21875 6.1875 4.80638 6.1875 5.53125C6.1875 6.25612 6.77513 6.84375 7.5 6.84375Z" fill="white" stroke="white" stroke-width="2" stroke-linecap="round" stroke-linejoin="round"/>
</svg>
