<svg width="15" height="17" viewBox="0 0 15 17" fill="none" xmlns="http://www.w3.org/2000/svg">
<path d="M5.37042 13.4583L7.30208 11.5266L9.23375 13.4583L10.0729 12.6191L8.14125 10.6875L10.0729 8.75579L9.23375 7.91663L7.30208 9.84829L5.37042 7.91663L4.53125 8.75579L6.46292 10.6875L4.53125 12.6191L5.37042 13.4583ZM13.0417 2.37496H12.25V0.791626H10.6667V2.37496H4.33333V0.791626H2.75V2.37496H1.95833C1.07958 2.37496 0.382917 3.08746 0.382917 3.95829L0.375 15.0416C0.375 15.9125 1.07958 16.625 1.95833 16.625H13.0417C13.9125 16.625 14.625 15.9125 14.625 15.0416V3.95829C14.625 3.08746 13.9125 2.37496 13.0417 2.37496ZM13.0417 15.0416H1.95833V6.33329H13.0417V15.0416Z" fill="white"/>
</svg>
