<svg width="54" height="55" viewBox="0 0 54 55" fill="none" xmlns="http://www.w3.org/2000/svg">
<path d="M1.81 18.311V47.692C1.81 49.045 2.89 50.145 4.2184 50.145H49.0924C50.4208 50.145 51.5008 49.056 51.5008 47.692V18.311H1.81Z" fill="#3E92CC"/>
<path d="M51.49 11.568C51.49 10.215 50.4208 9.11501 49.0816 9.11501H43.714H9.586H4.2184C2.89 9.12601 1.81 10.215 1.81 11.568V18.311H51.49V11.568Z" fill="#3E92CC"/>
<path d="M24.5116 22.799H19.36V28.046H24.5116V22.799Z" fill="#3E92CC"/>
<path d="M33.9508 22.799H28.7992V28.046H33.9508V22.799Z" fill="#3E92CC"/>
<path d="M43.3792 22.799H38.2276V28.046H43.3792V22.799Z" fill="#3E92CC"/>
<path d="M15.0724 32.006H9.92078V37.253H15.0724V32.006Z" fill="#3E92CC"/>
<path d="M24.5116 32.006H19.36V37.253H24.5116V32.006Z" fill="#3E92CC"/>
<path d="M33.9508 32.006H28.7992V37.253H33.9508V32.006Z" fill="#3E92CC"/>
<path d="M43.3792 32.006H38.2276V37.253H43.3792V32.006Z" fill="#3E92CC"/>
<path d="M15.0724 41.213H9.92078V46.46H15.0724V41.213Z" fill="#3E92CC"/>
<path d="M24.5116 41.213H19.36V46.46H24.5116V41.213Z" fill="#3E92CC"/>
<path d="M33.9508 41.213H28.7992V46.46H33.9508V41.213Z" fill="#3E92CC"/>
<path d="M13.744 6.948V11.513C13.744 12.679 12.8044 13.636 11.6596 13.636C10.504 13.636 9.5752 12.679 9.5752 11.513V6.948C9.5752 5.782 10.504 4.825 11.6596 4.825C12.232 4.825 12.7504 5.067 13.1392 5.441C13.5172 5.837 13.744 6.365 13.744 6.948Z" fill="#3E92CC"/>
<path d="M23.734 6.948V11.513C23.734 12.679 22.7944 13.636 21.6496 13.636C20.494 13.636 19.5652 12.679 19.5652 11.513V6.948C19.5652 5.782 20.494 4.825 21.6496 4.825C22.222 4.825 22.7404 5.067 23.1292 5.441C23.5072 5.837 23.734 6.365 23.734 6.948Z" fill="#3E92CC"/>
<path d="M33.724 6.948V11.513C33.724 12.679 32.7844 13.636 31.6396 13.636C30.484 13.636 29.5552 12.679 29.5552 11.513V6.948C29.5552 5.782 30.484 4.825 31.6396 4.825C32.212 4.825 32.7304 5.067 33.1192 5.441C33.4972 5.837 33.724 6.365 33.724 6.948Z" fill="#3E92CC"/>
<path d="M43.7248 6.948V11.513C43.7248 12.679 42.7852 13.636 41.6404 13.636C40.4848 13.636 39.556 12.679 39.556 11.513V6.948C39.556 5.782 40.4848 4.825 41.6404 4.825C42.2128 4.825 42.7312 5.067 43.12 5.441C43.4872 5.837 43.7248 6.365 43.7248 6.948Z" fill="#3E92CC"/>
<path d="M49.0816 8.301H44.524V6.948C44.524 6.167 44.2216 5.43 43.6708 4.858C43.12 4.308 42.3964 4 41.6296 4C40.0312 4 38.7352 5.32 38.7352 6.948V8.29H34.534V6.948C34.534 6.167 34.2316 5.43 33.6808 4.858C33.13 4.308 32.4064 4 31.6396 4C30.0412 4 28.7452 5.32 28.7452 6.948V8.29H24.544V6.948C24.544 6.167 24.2416 5.43 23.6908 4.858C23.14 4.308 22.4164 4 21.6496 4C20.0512 4 18.7552 5.32 18.7552 6.948V8.29H14.554V6.948C14.554 6.167 14.2516 5.43 13.7008 4.858C13.15 4.308 12.4264 4 11.6596 4C10.0612 4 8.7652 5.32 8.7652 6.948V8.29H4.2184C2.4472 8.29 1 9.753 1 11.568V47.692C1 49.496 2.4364 50.97 4.2184 50.97H49.0924C50.8636 50.97 52.3108 49.507 52.3108 47.692V11.568C52.3 9.764 50.8636 8.301 49.0816 8.301ZM40.366 6.948C40.366 6.233 40.9384 5.65 41.6404 5.65C42.0724 5.65 42.3748 5.859 42.5368 6.024C42.7096 6.2 42.9148 6.508 42.9148 6.948V9.115V9.126V9.137V11.513C42.9148 12.228 42.3424 12.811 41.6404 12.811C40.9384 12.811 40.366 12.228 40.366 11.513V6.948ZM30.376 6.948C30.376 6.233 30.9484 5.65 31.6504 5.65C32.0824 5.65 32.3848 5.859 32.5468 6.024C32.7196 6.2 32.9248 6.508 32.9248 6.948V9.104C32.9248 9.115 32.9248 9.115 32.9248 9.126C32.9248 9.137 32.9248 9.137 32.9248 9.148V11.524C32.9248 12.239 32.3524 12.822 31.6504 12.822C30.9484 12.822 30.376 12.239 30.376 11.524V6.948ZM21.6604 5.65C22.0924 5.65 22.3948 5.859 22.5568 6.024C22.7296 6.2 22.9348 6.508 22.9348 6.948V11.513C22.9348 12.228 22.3624 12.811 21.6604 12.811C20.9584 12.811 20.386 12.228 20.386 11.513V9.137C20.386 9.126 20.386 9.126 20.386 9.126V9.115V6.948C20.386 6.233 20.9476 5.65 21.6604 5.65ZM11.6596 5.65C12.0916 5.65 12.394 5.859 12.556 6.024C12.7288 6.2 12.934 6.508 12.934 6.948V11.513C12.934 12.228 12.3616 12.811 11.6596 12.811C10.9576 12.811 10.3852 12.228 10.3852 11.513V9.126C10.3852 9.126 10.3852 9.126 10.3852 9.115C10.3852 9.104 10.3852 9.115 10.3852 9.104V6.948C10.396 6.233 10.9576 5.65 11.6596 5.65ZM4.2184 9.951H8.776V11.513C8.776 13.141 10.072 14.461 11.6704 14.461C13.2688 14.461 14.5648 13.141 14.5648 11.513V9.951H18.766V11.513C18.766 13.141 20.062 14.461 21.6604 14.461C23.2588 14.461 24.5548 13.141 24.5548 11.513V9.951H28.756V11.513C28.756 13.141 30.052 14.461 31.6504 14.461C33.2488 14.461 34.5448 13.141 34.5448 11.513V9.951H38.746V11.513C38.746 13.141 40.042 14.461 41.6404 14.461C43.2388 14.461 44.5348 13.141 44.5348 11.513V9.951H49.0924C49.9672 9.951 50.6908 10.677 50.6908 11.579V17.497H2.62V11.579C2.62 10.677 3.3328 9.951 4.2184 9.951ZM49.0816 49.32H4.2184C3.3436 49.32 2.62 48.594 2.62 47.692V19.136H50.68V47.692C50.68 48.583 49.9672 49.32 49.0816 49.32Z" fill="white"/>
<path d="M24.5008 21.974H19.3492C18.9064 21.974 18.5392 22.348 18.5392 22.799V28.046C18.5392 28.497 18.9064 28.871 19.3492 28.871H24.5008C24.9436 28.871 25.3108 28.497 25.3108 28.046V22.799C25.3108 22.348 24.9544 21.974 24.5008 21.974ZM23.6908 27.221H20.17V23.624H23.7016V27.221H23.6908Z" fill="white"/>
<path d="M33.94 21.974H28.7884C28.3456 21.974 27.9784 22.348 27.9784 22.799V28.046C27.9784 28.497 28.3456 28.871 28.7884 28.871H33.94C34.3828 28.871 34.75 28.497 34.75 28.046V22.799C34.75 22.348 34.3936 21.974 33.94 21.974ZM33.13 27.221H29.5984V23.624H33.13V27.221Z" fill="white"/>
<path d="M43.3792 21.974H38.2276C37.7848 21.974 37.4176 22.348 37.4176 22.799V28.046C37.4176 28.497 37.7848 28.871 38.2276 28.871H43.3792C43.822 28.871 44.1892 28.497 44.1892 28.046V22.799C44.1892 22.348 43.8328 21.974 43.3792 21.974ZM42.5692 27.221H39.0376V23.624H42.5692V27.221Z" fill="white"/>
<path d="M15.0724 31.181H9.92078C9.47798 31.181 9.11078 31.555 9.11078 32.006V37.253C9.11078 37.704 9.47798 38.078 9.92078 38.078H15.0724C15.5152 38.078 15.8824 37.704 15.8824 37.253V32.006C15.8824 31.544 15.5152 31.181 15.0724 31.181ZM14.2624 36.428H10.7308V32.831H14.2624V36.428Z" fill="white"/>
<path d="M24.5008 31.181H19.3492C18.9064 31.181 18.5392 31.555 18.5392 32.006V37.253C18.5392 37.704 18.9064 38.078 19.3492 38.078H24.5008C24.9436 38.078 25.3108 37.704 25.3108 37.253V32.006C25.3108 31.544 24.9544 31.181 24.5008 31.181ZM23.6908 36.428H20.17V32.831H23.7016V36.428H23.6908Z" fill="white"/>
<path d="M33.94 31.181H28.7884C28.3456 31.181 27.9784 31.555 27.9784 32.006V37.253C27.9784 37.704 28.3456 38.078 28.7884 38.078H33.94C34.3828 38.078 34.75 37.704 34.75 37.253V32.006C34.75 31.544 34.3936 31.181 33.94 31.181ZM33.13 36.428H29.5984V32.831H33.13V36.428Z" fill="white"/>
<path d="M43.3792 31.181H38.2276C37.7848 31.181 37.4176 31.555 37.4176 32.006V37.253C37.4176 37.704 37.7848 38.078 38.2276 38.078H43.3792C43.822 38.078 44.1892 37.704 44.1892 37.253V32.006C44.1892 31.544 43.8328 31.181 43.3792 31.181ZM42.5692 36.428H39.0376V32.831H42.5692V36.428Z" fill="white"/>
<path d="M15.0724 40.388H9.92078C9.47798 40.388 9.11078 40.762 9.11078 41.213V46.46C9.11078 46.911 9.47798 47.285 9.92078 47.285H15.0724C15.5152 47.285 15.8824 46.911 15.8824 46.46V41.213C15.8824 40.751 15.5152 40.388 15.0724 40.388ZM14.2624 45.624H10.7308V42.027H14.2624V45.624Z" fill="white"/>
<path d="M24.5008 40.388H19.3492C18.9064 40.388 18.5392 40.762 18.5392 41.213V46.46C18.5392 46.911 18.9064 47.285 19.3492 47.285H24.5008C24.9436 47.285 25.3108 46.911 25.3108 46.46V41.213C25.3108 40.751 24.9544 40.388 24.5008 40.388ZM23.6908 45.624H20.17V42.027H23.7016V45.624H23.6908Z" fill="white"/>
<path d="M33.94 40.388H28.7884C28.3456 40.388 27.9784 40.762 27.9784 41.213V46.46C27.9784 46.911 28.3456 47.285 28.7884 47.285H33.94C34.3828 47.285 34.75 46.911 34.75 46.46V41.213C34.75 40.751 34.3936 40.388 33.94 40.388ZM33.13 45.624H29.5984V42.027H33.13V45.624Z" fill="white"/>
</svg>
