<svg width="50" height="50" viewBox="0 0 50 50" fill="none" xmlns="http://www.w3.org/2000/svg">
<path d="M50 25C50 38.8073 38.8073 50 25 50C11.1927 50 0 38.8073 0 25C0 11.1927 11.1927 0 25 0C38.8073 0 50 11.1927 50 25Z" fill="#3E92CC"/>
<path d="M25 5.46875C24.1909 5.46875 23.5352 6.1245 23.5352 6.93359C23.5352 7.74269 24.1909 8.39844 25 8.39844C34.1541 8.39844 41.6016 15.8459 41.6016 25C41.6016 34.1541 34.1541 41.6016 25 41.6016C15.8459 41.6016 8.39844 34.1541 8.39844 25C8.39844 24.1909 7.74269 23.5352 6.93359 23.5352C6.1245 23.5352 5.46875 24.1909 5.46875 25C5.46875 35.7697 14.2303 44.5312 25 44.5312C35.7697 44.5312 44.5312 35.7697 44.5312 25C44.5312 14.2303 35.7697 5.46875 25 5.46875Z" fill="#FAFAFA"/>
<path d="M17.0967 10.1841C17.2836 10.1841 17.4732 10.1482 17.6567 10.0723L19.6369 9.25217C20.3842 8.94242 20.7393 8.08563 20.4296 7.33795C20.1202 6.59065 19.2631 6.23589 18.5158 6.54526L16.5355 7.36542C15.7882 7.67517 15.4331 8.53195 15.7425 9.27963C15.9763 9.84383 16.5218 10.1841 17.0967 10.1841Z" fill="#FAFAFA"/>
<path d="M11.4674 14.4478C11.8424 14.4478 12.217 14.3048 12.5031 14.0187L14.0186 12.5031C14.5909 11.9309 14.5909 11.0035 14.0186 10.4313C13.4468 9.85949 12.5191 9.85949 11.9473 10.4313L10.4313 11.9473C9.85949 12.5191 9.85949 13.4464 10.4313 14.0187C10.7174 14.3048 11.0924 14.4478 11.4674 14.4478Z" fill="#FAFAFA"/>
<path d="M7.33833 20.4297C7.52143 20.5056 7.71141 20.5418 7.89833 20.5418C8.47282 20.5418 9.01832 20.2012 9.25216 19.637L10.0723 17.6568C10.3817 16.9095 10.0269 16.0523 9.27963 15.7429C8.53195 15.4332 7.67517 15.7883 7.36541 16.5356L6.54525 18.5158C6.23588 19.2635 6.59065 20.1203 7.33833 20.4297Z" fill="#FAFAFA"/>
<path d="M25 17.411C24.1909 17.411 23.5351 18.0668 23.5351 18.8759V23.5351H18.8759C18.0668 23.5351 17.411 24.1909 17.411 25C17.411 25.8091 18.0668 26.4648 18.8759 26.4648H23.5351V31.1241C23.5351 31.9332 24.1909 32.5889 25 32.5889C25.8091 32.5889 26.4648 31.9332 26.4648 31.1241V26.4648H31.1241C31.9332 26.4648 32.5889 25.8091 32.5889 25C32.5889 24.1909 31.9332 23.5351 31.1241 23.5351H26.4648V18.8759C26.4648 18.0668 25.8091 17.411 25 17.411Z" fill="#FAFAFA"/>
</svg>
