<svg width="72" height="71" viewBox="0 0 72 71" fill="none" xmlns="http://www.w3.org/2000/svg">
<ellipse cx="36" cy="35.5" rx="36" ry="35.5" fill="#3E92CC"/>
<path d="M35.8 14.2C28.8626 14.2 23.2 19.7838 23.2 26.625C23.2 30.9006 25.4161 34.705 28.7688 36.9421C22.348 39.6576 17.8 45.9392 17.8 53.25H21.4C21.4 45.3855 27.8248 39.05 35.8 39.05C43.7752 39.05 50.2 45.3855 50.2 53.25H53.8C53.8 45.9392 49.2521 39.6576 42.8313 36.9421C46.184 34.705 48.4 30.9006 48.4 26.625C48.4 19.7838 42.7375 14.2 35.8 14.2ZM35.8 17.75C40.7919 17.75 44.8 21.7024 44.8 26.625C44.8 31.5475 40.7919 35.5 35.8 35.5C30.8082 35.5 26.8 31.5475 26.8 26.625C26.8 21.7024 30.8082 17.75 35.8 17.75Z" fill="white"/>
</svg>
