<svg width="104" height="169" viewBox="0 0 104 169" fill="none" xmlns="http://www.w3.org/2000/svg">
<g clip-path="url(#clip0_385_73)">
<path d="M97.9173 37.9118L52.8757 13.2347C52.3244 12.9327 51.6754 12.9327 51.1243 13.2347L6.08265 37.9118C5.41914 38.2754 5 39.0185 5 39.831C5 40.644 5.41914 41.3869 6.08265 41.7502L20.9932 49.9192V66.3175C20.9932 76.4449 34.6131 84.3783 52.0002 84.3783C69.3872 84.3783 83.007 76.4453 83.007 66.3175V49.9192L88.2111 47.068V62.7182C85.8121 63.614 84.0814 66.1055 84.0814 69.0335C84.0814 71.6882 85.5038 73.9848 87.5572 75.0584L83.3971 87.0851C83.1691 87.7445 83.2511 88.4847 83.6169 89.0648C83.9826 89.645 84.585 89.9914 85.2285 89.9914H95.1118C95.7553 89.9914 96.3577 89.645 96.7236 89.0648C97.0892 88.4847 97.1712 87.7445 96.9434 87.0853L92.7833 75.0586C94.8363 73.985 96.2588 71.6884 96.2588 69.0337C96.2588 66.1055 94.5275 63.6138 92.1281 62.7182V44.9223L97.9179 41.7504C98.5814 41.3869 99.0004 40.6438 99.0004 39.8312C99 39.0185 98.5809 38.2754 97.9173 37.9118ZM71.6645 75.6521C66.4448 78.5118 59.4611 80.0869 52 80.0869C44.5389 80.0869 37.5554 78.512 32.3355 75.6521C27.6165 73.0666 24.9098 69.6644 24.9098 66.3177V52.0653L51.1243 66.4276C51.4 66.5786 51.7 66.6541 52 66.6541C52.3 66.6541 52.6 66.5786 52.8757 66.4276L79.0902 52.0653V66.3177C79.0902 69.6644 76.3836 73.0666 71.6645 75.6521ZM88.0646 85.7002L90.1699 79.6142L92.275 85.7002H88.0646ZM92.3414 69.0339C92.3416 70.3464 91.3673 71.4138 90.1699 71.4138C88.9721 71.4138 87.998 70.3462 87.998 69.0339C87.998 67.7251 88.9672 66.6605 90.1601 66.6547C90.1633 66.6547 90.1662 66.6551 90.1693 66.6551C90.1726 66.6551 90.1758 66.6547 90.1789 66.6547C91.372 66.6603 92.3414 67.7249 92.3414 69.0339ZM89.7718 41.4149L52.1755 37.6948C51.0984 37.5874 50.1463 38.4586 50.0489 39.6389C49.9516 40.8194 50.7461 41.8625 51.8232 41.9691L83.1098 45.0647L52 62.1092L11.3373 39.831L52 17.5533L92.6627 39.8312L89.7718 41.4149Z" fill="white"/>
</g>
<path d="M18.5153 127.154C17.4446 127.154 16.4766 126.971 15.6113 126.604C14.7606 126.237 14.086 125.709 13.5873 125.02C13.0886 124.331 12.832 123.517 12.8173 122.578H16.1173C16.1613 123.209 16.3813 123.707 16.7773 124.074C17.188 124.441 17.7453 124.624 18.4493 124.624C19.168 124.624 19.7326 124.455 20.1433 124.118C20.554 123.766 20.7593 123.311 20.7593 122.754C20.7593 122.299 20.62 121.925 20.3413 121.632C20.0626 121.339 19.7106 121.111 19.2853 120.95C18.8746 120.774 18.3026 120.583 17.5693 120.378C16.572 120.085 15.758 119.799 15.1273 119.52C14.5113 119.227 13.976 118.794 13.5213 118.222C13.0813 117.635 12.8613 116.858 12.8613 115.89C12.8613 114.981 13.0886 114.189 13.5433 113.514C13.998 112.839 14.636 112.326 15.4573 111.974C16.2786 111.607 17.2173 111.424 18.2733 111.424C19.8573 111.424 21.1406 111.813 22.1233 112.59C23.1206 113.353 23.6706 114.423 23.7733 115.802H20.3853C20.356 115.274 20.1286 114.841 19.7033 114.504C19.2926 114.152 18.7426 113.976 18.0533 113.976C17.452 113.976 16.968 114.13 16.6013 114.438C16.2493 114.746 16.0733 115.193 16.0733 115.78C16.0733 116.191 16.2053 116.535 16.4693 116.814C16.748 117.078 17.0853 117.298 17.4813 117.474C17.892 117.635 18.464 117.826 19.1973 118.046C20.1946 118.339 21.0086 118.633 21.6393 118.926C22.27 119.219 22.8126 119.659 23.2673 120.246C23.722 120.833 23.9493 121.603 23.9493 122.556C23.9493 123.377 23.7366 124.14 23.3113 124.844C22.886 125.548 22.2626 126.113 21.4413 126.538C20.62 126.949 19.6446 127.154 18.5153 127.154ZM25.8276 120.906C25.8276 119.645 26.0842 118.545 26.5976 117.606C27.1109 116.653 27.8222 115.919 28.7316 115.406C29.6409 114.878 30.6822 114.614 31.8556 114.614C33.3662 114.614 34.6129 114.995 35.5956 115.758C36.5929 116.506 37.2602 117.562 37.5976 118.926H34.2756C34.0996 118.398 33.7989 117.987 33.3736 117.694C32.9629 117.386 32.4496 117.232 31.8336 117.232C30.9536 117.232 30.2569 117.555 29.7436 118.2C29.2302 118.831 28.9736 119.733 28.9736 120.906C28.9736 122.065 29.2302 122.967 29.7436 123.612C30.2569 124.243 30.9536 124.558 31.8336 124.558C33.0802 124.558 33.8942 124.001 34.2756 122.886H37.5976C37.2602 124.206 36.5929 125.255 35.5956 126.032C34.5982 126.809 33.3516 127.198 31.8556 127.198C30.6822 127.198 29.6409 126.941 28.7316 126.428C27.8222 125.9 27.1109 125.167 26.5976 124.228C26.0842 123.275 25.8276 122.167 25.8276 120.906ZM46.7179 114.636C47.6419 114.636 48.4633 114.841 49.1819 115.252C49.9006 115.648 50.4579 116.242 50.8539 117.034C51.2646 117.811 51.4699 118.75 51.4699 119.85V127H48.3899V120.268C48.3899 119.3 48.1479 118.559 47.6639 118.046C47.1799 117.518 46.5199 117.254 45.6839 117.254C44.8333 117.254 44.1586 117.518 43.6599 118.046C43.1759 118.559 42.9339 119.3 42.9339 120.268V127H39.8539V110.72H42.9339V116.33C43.3299 115.802 43.8579 115.391 44.5179 115.098C45.1779 114.79 45.9113 114.636 46.7179 114.636ZM59.8109 127.198C58.6375 127.198 57.5815 126.941 56.6429 126.428C55.7042 125.9 54.9635 125.159 54.4209 124.206C53.8929 123.253 53.6289 122.153 53.6289 120.906C53.6289 119.659 53.9002 118.559 54.4429 117.606C55.0002 116.653 55.7555 115.919 56.7089 115.406C57.6622 114.878 58.7255 114.614 59.8989 114.614C61.0722 114.614 62.1355 114.878 63.0889 115.406C64.0422 115.919 64.7902 116.653 65.3329 117.606C65.8902 118.559 66.1689 119.659 66.1689 120.906C66.1689 122.153 65.8829 123.253 65.3109 124.206C64.7535 125.159 63.9909 125.9 63.0229 126.428C62.0695 126.941 60.9989 127.198 59.8109 127.198ZM59.8109 124.514C60.3682 124.514 60.8889 124.382 61.3729 124.118C61.8715 123.839 62.2675 123.429 62.5609 122.886C62.8542 122.343 63.0009 121.683 63.0009 120.906C63.0009 119.747 62.6929 118.86 62.0769 118.244C61.4755 117.613 60.7349 117.298 59.8549 117.298C58.9749 117.298 58.2342 117.613 57.6329 118.244C57.0462 118.86 56.7529 119.747 56.7529 120.906C56.7529 122.065 57.0389 122.959 57.6109 123.59C58.1975 124.206 58.9309 124.514 59.8109 124.514ZM73.8402 127.198C72.6668 127.198 71.6108 126.941 70.6722 126.428C69.7335 125.9 68.9928 125.159 68.4502 124.206C67.9222 123.253 67.6582 122.153 67.6582 120.906C67.6582 119.659 67.9295 118.559 68.4722 117.606C69.0295 116.653 69.7848 115.919 70.7382 115.406C71.6915 114.878 72.7548 114.614 73.9282 114.614C75.1015 114.614 76.1648 114.878 77.1182 115.406C78.0715 115.919 78.8195 116.653 79.3622 117.606C79.9195 118.559 80.1982 119.659 80.1982 120.906C80.1982 122.153 79.9122 123.253 79.3402 124.206C78.7828 125.159 78.0202 125.9 77.0522 126.428C76.0988 126.941 75.0282 127.198 73.8402 127.198ZM73.8402 124.514C74.3975 124.514 74.9182 124.382 75.4022 124.118C75.9008 123.839 76.2968 123.429 76.5902 122.886C76.8835 122.343 77.0302 121.683 77.0302 120.906C77.0302 119.747 76.7222 118.86 76.1062 118.244C75.5048 117.613 74.7642 117.298 73.8842 117.298C73.0042 117.298 72.2635 117.613 71.6622 118.244C71.0755 118.86 70.7822 119.747 70.7822 120.906C70.7822 122.065 71.0682 122.959 71.6402 123.59C72.2268 124.206 72.9602 124.514 73.8402 124.514ZM85.5375 110.72V127H82.4575V110.72H85.5375ZM6.86004 160.154C5.78937 160.154 4.82137 159.971 3.95604 159.604C3.10537 159.237 2.43071 158.709 1.93204 158.02C1.43337 157.331 1.17671 156.517 1.16204 155.578H4.46204C4.50604 156.209 4.72604 156.707 5.12204 157.074C5.53271 157.441 6.09004 157.624 6.79404 157.624C7.51271 157.624 8.07737 157.455 8.48804 157.118C8.89871 156.766 9.10404 156.311 9.10404 155.754C9.10404 155.299 8.96471 154.925 8.68604 154.632C8.40737 154.339 8.05537 154.111 7.63004 153.95C7.21937 153.774 6.64737 153.583 5.91404 153.378C4.91671 153.085 4.10271 152.799 3.47204 152.52C2.85604 152.227 2.32071 151.794 1.86604 151.222C1.42604 150.635 1.20604 149.858 1.20604 148.89C1.20604 147.981 1.43337 147.189 1.88804 146.514C2.34271 145.839 2.98071 145.326 3.80204 144.974C4.62337 144.607 5.56204 144.424 6.61804 144.424C8.20204 144.424 9.48537 144.813 10.468 145.59C11.4654 146.353 12.0154 147.423 12.118 148.802H8.73004C8.70071 148.274 8.47337 147.841 8.04804 147.504C7.63737 147.152 7.08737 146.976 6.39804 146.976C5.79671 146.976 5.31271 147.13 4.94604 147.438C4.59404 147.746 4.41804 148.193 4.41804 148.78C4.41804 149.191 4.55004 149.535 4.81404 149.814C5.09271 150.078 5.43004 150.298 5.82604 150.474C6.23671 150.635 6.80871 150.826 7.54204 151.046C8.53937 151.339 9.35337 151.633 9.98404 151.926C10.6147 152.219 11.1574 152.659 11.612 153.246C12.0667 153.833 12.294 154.603 12.294 155.556C12.294 156.377 12.0814 157.14 11.656 157.844C11.2307 158.548 10.6074 159.113 9.78604 159.538C8.96471 159.949 7.98937 160.154 6.86004 160.154ZM14.1723 153.906C14.1723 152.645 14.429 151.545 14.9423 150.606C15.4556 149.653 16.167 148.919 17.0763 148.406C17.9856 147.878 19.027 147.614 20.2003 147.614C21.711 147.614 22.9576 147.995 23.9403 148.758C24.9376 149.506 25.605 150.562 25.9423 151.926H22.6203C22.4443 151.398 22.1436 150.987 21.7183 150.694C21.3076 150.386 20.7943 150.232 20.1783 150.232C19.2983 150.232 18.6016 150.555 18.0883 151.2C17.575 151.831 17.3183 152.733 17.3183 153.906C17.3183 155.065 17.575 155.967 18.0883 156.612C18.6016 157.243 19.2983 157.558 20.1783 157.558C21.425 157.558 22.239 157.001 22.6203 155.886H25.9423C25.605 157.206 24.9376 158.255 23.9403 159.032C22.943 159.809 21.6963 160.198 20.2003 160.198C19.027 160.198 17.9856 159.941 17.0763 159.428C16.167 158.9 15.4556 158.167 14.9423 157.228C14.429 156.275 14.1723 155.167 14.1723 153.906ZM35.0627 147.636C35.9867 147.636 36.808 147.841 37.5267 148.252C38.2453 148.648 38.8027 149.242 39.1987 150.034C39.6093 150.811 39.8147 151.75 39.8147 152.85V160H36.7347V153.268C36.7347 152.3 36.4927 151.559 36.0087 151.046C35.5247 150.518 34.8647 150.254 34.0287 150.254C33.178 150.254 32.5033 150.518 32.0047 151.046C31.5207 151.559 31.2787 152.3 31.2787 153.268V160H28.1987V143.72H31.2787V149.33C31.6747 148.802 32.2027 148.391 32.8627 148.098C33.5227 147.79 34.256 147.636 35.0627 147.636ZM54.0736 153.642C54.0736 154.082 54.0443 154.478 53.9856 154.83H45.0756C45.1489 155.71 45.4569 156.399 45.9996 156.898C46.5423 157.397 47.2096 157.646 48.0016 157.646C49.1456 157.646 49.9596 157.155 50.4436 156.172H53.7656C53.4136 157.345 52.7389 158.313 51.7416 159.076C50.7443 159.824 49.5196 160.198 48.0676 160.198C46.8943 160.198 45.8383 159.941 44.8996 159.428C43.9756 158.9 43.2496 158.159 42.7216 157.206C42.2083 156.253 41.9516 155.153 41.9516 153.906C41.9516 152.645 42.2083 151.537 42.7216 150.584C43.2349 149.631 43.9536 148.897 44.8776 148.384C45.8016 147.871 46.8649 147.614 48.0676 147.614C49.2263 147.614 50.2603 147.863 51.1696 148.362C52.0936 148.861 52.8049 149.572 53.3036 150.496C53.8169 151.405 54.0736 152.454 54.0736 153.642ZM50.8836 152.762C50.8689 151.97 50.5829 151.339 50.0256 150.87C49.4683 150.386 48.7863 150.144 47.9796 150.144C47.2169 150.144 46.5716 150.379 46.0436 150.848C45.5303 151.303 45.2149 151.941 45.0976 152.762H50.8836ZM55.5297 153.862C55.5297 152.63 55.7717 151.537 56.2557 150.584C56.7544 149.631 57.429 148.897 58.2797 148.384C59.1304 147.871 60.0764 147.614 61.1177 147.614C61.9097 147.614 62.665 147.79 63.3837 148.142C64.1024 148.479 64.6744 148.934 65.0997 149.506V143.72H68.2237V160H65.0997V158.196C64.7184 158.797 64.183 159.281 63.4937 159.648C62.8044 160.015 62.005 160.198 61.0957 160.198C60.069 160.198 59.1304 159.934 58.2797 159.406C57.429 158.878 56.7544 158.137 56.2557 157.184C55.7717 156.216 55.5297 155.109 55.5297 153.862ZM65.1217 153.906C65.1217 153.158 64.975 152.52 64.6817 151.992C64.3884 151.449 63.9924 151.039 63.4937 150.76C62.995 150.467 62.4597 150.32 61.8877 150.32C61.3157 150.32 60.7877 150.459 60.3037 150.738C59.8197 151.017 59.4237 151.427 59.1157 151.97C58.8224 152.498 58.6757 153.129 58.6757 153.862C58.6757 154.595 58.8224 155.241 59.1157 155.798C59.4237 156.341 59.8197 156.759 60.3037 157.052C60.8024 157.345 61.3304 157.492 61.8877 157.492C62.4597 157.492 62.995 157.353 63.4937 157.074C63.9924 156.781 64.3884 156.37 64.6817 155.842C64.975 155.299 65.1217 154.654 65.1217 153.906ZM82.7379 147.812V160H79.6359V158.46C79.2399 158.988 78.7192 159.406 78.0739 159.714C77.4432 160.007 76.7539 160.154 76.0059 160.154C75.0525 160.154 74.2092 159.956 73.4759 159.56C72.7425 159.149 72.1632 158.555 71.7379 157.778C71.3272 156.986 71.1219 156.047 71.1219 154.962V147.812H74.2019V154.522C74.2019 155.49 74.4439 156.238 74.9279 156.766C75.4119 157.279 76.0719 157.536 76.9079 157.536C77.7585 157.536 78.4259 157.279 78.9099 156.766C79.3939 156.238 79.6359 155.49 79.6359 154.522V147.812H82.7379ZM88.8568 143.72V160H85.7768V143.72H88.8568ZM103.23 153.642C103.23 154.082 103.201 154.478 103.142 154.83H94.2318C94.3052 155.71 94.6132 156.399 95.1558 156.898C95.6985 157.397 96.3658 157.646 97.1578 157.646C98.3018 157.646 99.1158 157.155 99.5998 156.172H102.922C102.57 157.345 101.895 158.313 100.898 159.076C99.9005 159.824 98.6758 160.198 97.2238 160.198C96.0505 160.198 94.9945 159.941 94.0558 159.428C93.1318 158.9 92.4058 158.159 91.8778 157.206C91.3645 156.253 91.1078 155.153 91.1078 153.906C91.1078 152.645 91.3645 151.537 91.8778 150.584C92.3912 149.631 93.1098 148.897 94.0338 148.384C94.9578 147.871 96.0212 147.614 97.2238 147.614C98.3825 147.614 99.4165 147.863 100.326 148.362C101.25 148.861 101.961 149.572 102.46 150.496C102.973 151.405 103.23 152.454 103.23 153.642ZM100.04 152.762C100.025 151.97 99.7392 151.339 99.1818 150.87C98.6245 150.386 97.9425 150.144 97.1358 150.144C96.3732 150.144 95.7278 150.379 95.1998 150.848C94.6865 151.303 94.3712 151.941 94.2538 152.762H100.04Z" fill="white"/>
<defs>
<clipPath id="clip0_385_73">
<rect width="94" height="103" fill="white" transform="translate(5)"/>
</clipPath>
</defs>
</svg>
