<svg width="48" height="51" viewBox="0 0 48 51" fill="none" xmlns="http://www.w3.org/2000/svg">
<path fill-rule="evenodd" clip-rule="evenodd" d="M40 11.3333C40 9.0205 41.7908 7.14575 44 7.14575C46.2092 7.14575 48 9.0205 48 11.3333V39.6726L44 45.9538L40 39.6726V11.3333ZM44 9.93742C43.2636 9.93742 42.6667 10.5623 42.6667 11.3333V38.8273L44 40.921L45.3333 38.8273V11.3333C45.3333 10.5623 44.7364 9.93742 44 9.93742Z" fill="white"/>
<path fill-rule="evenodd" clip-rule="evenodd" d="M46.6667 16.9167H41.3334V14.125H46.6667V16.9167Z" fill="white"/>
<path fill-rule="evenodd" clip-rule="evenodd" d="M5.33333 2.79167C3.86057 2.79167 2.66667 4.04154 2.66667 5.58333V44.6655C2.66667 46.2074 3.86057 47.4572 5.33333 47.4572H32C33.4728 47.4572 34.6667 46.2074 34.6667 44.6655V5.58333C34.6667 4.04154 33.4728 2.79167 32 2.79167H5.33333ZM0 5.58333C0 2.49974 2.38781 0 5.33333 0H32C34.9455 0 37.3333 2.49974 37.3333 5.58333V44.6655C37.3333 47.7492 34.9455 50.2489 32 50.2489H5.33333C2.38781 50.2489 0 47.7492 0 44.6655V5.58333Z" fill="white"/>
<path fill-rule="evenodd" clip-rule="evenodd" d="M18.6666 9.93758C18.6666 9.16666 19.2636 8.54175 20 8.54175H30.6666C31.403 8.54175 32 9.16666 32 9.93758C32 10.7085 31.403 11.3334 30.6666 11.3334H20C19.2636 11.3334 18.6666 10.7085 18.6666 9.93758Z" fill="white"/>
<path fill-rule="evenodd" clip-rule="evenodd" d="M18.6666 15.5208C18.6666 14.7499 19.2636 14.125 20 14.125H30.6666C31.403 14.125 32 14.7499 32 15.5208C32 16.2918 31.403 16.9167 30.6666 16.9167H20C19.2636 16.9167 18.6666 16.2918 18.6666 15.5208Z" fill="white"/>
<path fill-rule="evenodd" clip-rule="evenodd" d="M18.6666 28.0833C18.6666 27.3124 19.2636 26.6875 20 26.6875H30.6666C31.403 26.6875 32 27.3124 32 28.0833C32 28.8543 31.403 29.4792 30.6666 29.4792H20C19.2636 29.4792 18.6666 28.8543 18.6666 28.0833Z" fill="white"/>
<path fill-rule="evenodd" clip-rule="evenodd" d="M18.6666 33.6666C18.6666 32.8957 19.2636 32.2708 20 32.2708H30.6666C31.403 32.2708 32 32.8957 32 33.6666C32 34.4375 31.403 35.0624 30.6666 35.0624H20C19.2636 35.0624 18.6666 34.4375 18.6666 33.6666Z" fill="white"/>
<path fill-rule="evenodd" clip-rule="evenodd" d="M8.00004 28.0834V32.2709H12V28.0834H8.00004ZM6.66671 25.2917H13.3334C14.0698 25.2917 14.6667 25.9167 14.6667 26.6876V33.6667C14.6667 34.4377 14.0698 35.0626 13.3334 35.0626H6.66671C5.93031 35.0626 5.33337 34.4377 5.33337 33.6667V26.6876C5.33337 25.9167 5.93031 25.2917 6.66671 25.2917Z" fill="white"/>
<path fill-rule="evenodd" clip-rule="evenodd" d="M15.6095 8.95055C16.1302 9.49563 16.1302 10.3795 15.6095 10.9245L9.33337 17.4949L5.7239 13.7162C5.2032 13.1711 5.2032 12.2873 5.7239 11.7422C6.24457 11.1971 7.08884 11.1971 7.6095 11.7422L9.33337 13.5469L13.7239 8.95055C14.2446 8.40548 15.0888 8.40548 15.6095 8.95055Z" fill="white"/>
</svg>
