<svg width="45" height="58" viewBox="0 0 45 58" fill="none" xmlns="http://www.w3.org/2000/svg">
<path fill-rule="evenodd" clip-rule="evenodd" d="M6.4 3.2C4.63269 3.2 3.2 4.63269 3.2 6.4V51.1987C3.2 52.9661 4.63269 54.3987 6.4 54.3987H38.4C40.1674 54.3987 41.6 52.9661 41.6 51.1987V6.4C41.6 4.63269 40.1674 3.2 38.4 3.2H6.4ZM0 6.4C0 2.86538 2.86538 0 6.4 0H38.4C41.9346 0 44.8 2.86538 44.8 6.4V51.1987C44.8 54.7334 41.9346 57.5987 38.4 57.5987H6.4C2.86538 57.5987 0 54.7334 0 51.1987V6.4Z" fill="white"/>
<path fill-rule="evenodd" clip-rule="evenodd" d="M22.4 14.3998C22.4 13.5161 23.1163 12.7998 24 12.7998H36.8C37.6837 12.7998 38.4 13.5161 38.4 14.3998C38.4 15.2835 37.6837 15.9998 36.8 15.9998H24C23.1163 15.9998 22.4 15.2835 22.4 14.3998Z" fill="white"/>
<path fill-rule="evenodd" clip-rule="evenodd" d="M22.4 20.8C22.4 19.9163 23.1163 19.2 24 19.2H36.8C37.6837 19.2 38.4 19.9163 38.4 20.8C38.4 21.6836 37.6837 22.4 36.8 22.4H24C23.1163 22.4 22.4 21.6836 22.4 20.8Z" fill="white"/>
<path fill-rule="evenodd" clip-rule="evenodd" d="M22.4 35.1999C22.4 34.3162 23.1163 33.5999 24 33.5999H36.8C37.6837 33.5999 38.4 34.3162 38.4 35.1999C38.4 36.0835 37.6837 36.7999 36.8 36.7999H24C23.1163 36.7999 22.4 36.0835 22.4 35.1999Z" fill="white"/>
<path fill-rule="evenodd" clip-rule="evenodd" d="M22.4 41.6C22.4 40.7163 23.1163 40 24 40H36.8C37.6837 40 38.4 40.7163 38.4 41.6C38.4 42.4837 37.6837 43.2 36.8 43.2H24C23.1163 43.2 22.4 42.4837 22.4 41.6Z" fill="white"/>
<path fill-rule="evenodd" clip-rule="evenodd" d="M9.60002 35.2V40H14.4V35.2H9.60002ZM8.00002 32H16C16.8837 32 17.6 32.7163 17.6 33.6V41.6C17.6 42.4837 16.8837 43.2 16 43.2H8.00002C7.11634 43.2 6.40002 42.4837 6.40002 41.6V33.6C6.40002 32.7163 7.11634 32 8.00002 32Z" fill="white"/>
<path fill-rule="evenodd" clip-rule="evenodd" d="M18.7314 13.2686C19.3562 13.8934 19.3562 14.9066 18.7314 15.5314L11.2 23.0627L6.86866 18.7314C6.24381 18.1066 6.24381 17.0934 6.86866 16.4686C7.49346 15.8438 8.50658 15.8438 9.13138 16.4686L11.2 18.5373L16.4687 13.2686C17.0935 12.6438 18.1066 12.6438 18.7314 13.2686Z" fill="white"/>
</svg>
