<svg xmlns="http://www.w3.org/2000/svg" version="1.1" xmlns:xlink="http://www.w3.org/1999/xlink" width="512" height="512" x="0" y="0" viewBox="0 0 24 24" style="enable-background:new 0 0 512 512" xml:space="preserve" class=""><g><g xmlns="http://www.w3.org/2000/svg"><path d="M20.854,4.146l-3-3A.5.5,0,0,0,17.5,1H6.5a.5.5,0,0,0-.5.5V4H3.5a.5.5,0,0,0-.5.5v18a.5.5,0,0,0,.5.5h14a.5.5,0,0,0,.5-.5V20h2.5a.5.5,0,0,0,.5-.5V4.5A.5.5,0,0,0,20.854,4.146ZM18,2.707,19.293,4H18ZM17,22H4V5H6V19.5a.5.5,0,0,0,.5.5H17ZM7,19V2H17V4.5a.5.5,0,0,0,.5.5H20V19Z" fill="#000000" data-original="#000000" class=""></path><path d="M8.5,7A.5.5,0,0,0,9,6.5V6h1v.5a.5.5,0,0,0,1,0v-2a1.5,1.5,0,0,0-3,0v2A.5.5,0,0,0,8.5,7Zm1-3a.5.5,0,0,1,.5.5V5H9V4.5A.5.5,0,0,1,9.5,4Z" fill="#000000" data-original="#000000" class=""></path><path d="M12.5,5H13v.5a.5.5,0,0,0,1,0V5h.5a.5.5,0,0,0,0-1H14V3.5a.5.5,0,0,0-1,0V4h-.5a.5.5,0,0,0,0,1Z" fill="#000000" data-original="#000000" class=""></path><path d="M8.5,16h2a.5.5,0,0,0,.5-.5v-2a.5.5,0,0,0-.5-.5h-2a.5.5,0,0,0-.5.5v2A.5.5,0,0,0,8.5,16ZM9,14h1v1H9Z" fill="#000000" data-original="#000000" class=""></path><path d="M12.5,14h3a.5.5,0,0,0,0-1h-3a.5.5,0,0,0,0,1Z" fill="#000000" data-original="#000000" class=""></path><path d="M18.5,15h-6a.5.5,0,0,0,0,1h6a.5.5,0,0,0,0-1Z" fill="#000000" data-original="#000000" class=""></path><path d="M8.5,12h2a.5.5,0,0,0,.5-.5v-2a.5.5,0,0,0-.5-.5h-2a.5.5,0,0,0-.5.5v2A.5.5,0,0,0,8.5,12ZM9,10h1v1H9Z" fill="#000000" data-original="#000000" class=""></path><path d="M12.5,10h3a.5.5,0,0,0,0-1h-3a.5.5,0,0,0,0,1Z" fill="#000000" data-original="#000000" class=""></path><path d="M18.5,11h-6a.5.5,0,0,0,0,1h6a.5.5,0,0,0,0-1Z" fill="#000000" data-original="#000000" class=""></path><path d="M18.5,17H8.5a.5.5,0,0,0,0,1h10a.5.5,0,0,0,0-1Z" fill="#000000" data-original="#000000" class=""></path></g></g></svg>