<svg width="71" height="64" viewBox="0 0 71 64" fill="none" xmlns="http://www.w3.org/2000/svg">
<path d="M34.9526 58.5457C35.1236 58.6265 35.312 58.6666 35.4998 58.6666C35.6876 58.6666 35.8759 58.6265 36.0469 58.5457C49.9344 52.0145 58.5609 39.1864 58.5609 25.0676V14.9739C58.5609 14.5494 58.2812 14.165 57.8496 13.9957L35.9718 5.42178C35.6702 5.30407 35.3293 5.30407 35.0277 5.42178L13.1505 13.9957C12.7189 14.165 12.4392 14.5494 12.4392 14.9739V25.0676C12.4392 39.1864 21.0658 52.0145 34.9526 58.5457ZM14.8059 15.6733L35.4998 7.56292L56.1942 15.6733V25.0676C56.1942 38.2025 48.2818 50.153 35.4998 56.3921C22.7183 50.153 14.8059 38.2025 14.8059 25.0676V15.6733Z" fill="white"/>
<path d="M30.7884 43.1754C31.1021 43.1754 31.4031 43.0629 31.625 42.8629L49.8465 26.4374C50.3087 26.0207 50.3087 25.3457 49.8465 24.9291L45.639 21.1364C45.1767 20.7197 44.4279 20.7197 43.9657 21.1364L30.7884 33.0134L27.0344 29.6301C26.5722 29.2134 25.8233 29.2134 25.3611 29.6301L21.1536 33.4228C20.6913 33.8395 20.6913 34.5145 21.1536 34.9311L29.9517 42.8629C30.1736 43.0629 30.4746 43.1754 30.7884 43.1754V43.1754ZM26.1978 31.8926L29.9517 35.2759C30.414 35.6926 31.1628 35.6926 31.625 35.2759L44.8023 23.3989L47.3365 25.6832L30.7884 40.6004L23.6635 34.177L26.1978 31.8926Z" fill="white"/>
</svg>
