<svg width="47" height="54" viewBox="0 0 47 54" fill="none" xmlns="http://www.w3.org/2000/svg">
<path d="M22.9526 53.5457C23.1236 53.6265 23.312 53.6666 23.4998 53.6666C23.6876 53.6666 23.8759 53.6265 24.0469 53.5457C37.9344 47.0145 46.5609 34.1864 46.5609 20.0676V9.97386C46.5609 9.54938 46.2812 9.16501 45.8496 8.99574L23.9718 0.421777C23.6702 0.304069 23.3293 0.304069 23.0277 0.421777L1.15048 8.99574C0.718864 9.16501 0.439209 9.54938 0.439209 9.97386V20.0676C0.439209 34.1864 9.06576 47.0145 22.9526 53.5457ZM2.80588 10.6733L23.4998 2.56292L44.1942 10.6733V20.0676C44.1942 33.2025 36.2818 45.153 23.4998 51.3921C10.7183 45.153 2.80588 33.2025 2.80588 20.0676V10.6733Z" fill="white"/>
<path d="M18.7884 38.1754C19.1021 38.1754 19.4031 38.0629 19.625 37.8629L37.8465 21.4374C38.3088 21.0207 38.3088 20.3457 37.8465 19.9291L33.639 16.1364C33.1767 15.7197 32.4279 15.7197 31.9657 16.1364L18.7884 28.0134L15.0344 24.6301C14.5722 24.2134 13.8233 24.2134 13.3611 24.6301L9.15356 28.4228C8.69132 28.8395 8.69132 29.5145 9.15356 29.9311L17.9517 37.8629C18.1736 38.0629 18.4746 38.1754 18.7884 38.1754ZM14.1978 26.8926L17.9517 30.2759C18.414 30.6926 19.1628 30.6926 19.625 30.2759L32.8023 18.3989L35.3365 20.6832L18.7884 35.6004L11.6635 29.177L14.1978 26.8926Z" fill="black"/>
</svg>
