<svg width="291" height="252" viewBox="0 0 291 252" fill="none" xmlns="http://www.w3.org/2000/svg">
<path d="M185.44 188.917V249.664H58.0496C43.5352 249.664 31.7261 236.038 31.7261 219.29C31.7261 202.543 43.5352 188.917 58.0496 188.917H185.44Z" fill="#F2F2F2"/>
<path d="M188.569 249.196C188.569 249.816 188.363 250.41 187.996 250.848C187.629 251.286 187.132 251.532 186.613 251.533H55.7805C48.6748 251.533 41.86 248.16 36.8355 242.158C31.811 236.155 28.9882 228.013 28.9882 219.524C28.9882 211.034 31.811 202.893 36.8355 196.89C41.86 190.887 48.6748 187.515 55.7805 187.515H186.613C187.132 187.515 187.629 187.761 187.996 188.199C188.363 188.637 188.569 189.232 188.569 189.851C188.569 190.471 188.363 191.065 187.996 191.503C187.629 191.941 187.132 192.188 186.613 192.188H55.7805C49.7121 192.188 43.8922 195.068 39.6012 200.194C35.3102 205.321 32.8995 212.274 32.8995 219.524C32.8995 226.774 35.3102 233.727 39.6012 238.853C43.8922 243.98 49.7121 246.86 55.7805 246.86H186.613C187.132 246.86 187.629 247.106 187.996 247.544C188.363 247.983 188.569 248.577 188.569 249.196Z" fill="#3E92CC"/>
<path d="M185.44 202.935H48.5447C48.4409 202.935 48.3414 202.886 48.2681 202.798C48.1947 202.711 48.1535 202.592 48.1535 202.468C48.1535 202.344 48.1947 202.225 48.2681 202.137C48.3414 202.05 48.4409 202.001 48.5447 202.001H185.44C185.544 202.001 185.643 202.05 185.716 202.137C185.79 202.225 185.831 202.344 185.831 202.468C185.831 202.592 185.79 202.711 185.716 202.798C185.643 202.886 185.544 202.935 185.44 202.935Z" fill="#3E92CC"/>
<path d="M185.44 214.15H48.5447C48.4409 214.15 48.3414 214.101 48.2681 214.013C48.1947 213.925 48.1535 213.807 48.1535 213.683C48.1535 213.559 48.1947 213.44 48.2681 213.352C48.3414 213.265 48.4409 213.215 48.5447 213.215H185.44C185.544 213.215 185.643 213.265 185.716 213.352C185.79 213.44 185.831 213.559 185.831 213.683C185.831 213.807 185.79 213.925 185.716 214.013C185.643 214.101 185.544 214.15 185.44 214.15Z" fill="#3E92CC"/>
<path d="M185.44 225.365H48.5447C48.4409 225.365 48.3414 225.316 48.2681 225.228C48.1947 225.14 48.1535 225.021 48.1535 224.898C48.1535 224.774 48.1947 224.655 48.2681 224.567C48.3414 224.479 48.4409 224.43 48.5447 224.43H185.44C185.544 224.43 185.643 224.479 185.716 224.567C185.79 224.655 185.831 224.774 185.831 224.898C185.831 225.021 185.79 225.14 185.716 225.228C185.643 225.316 185.544 225.365 185.44 225.365Z" fill="#3E92CC"/>
<path d="M185.44 236.58H48.5447C48.4409 236.58 48.3414 236.53 48.2681 236.443C48.1947 236.355 48.1535 236.236 48.1535 236.112C48.1535 235.988 48.1947 235.87 48.2681 235.782C48.3414 235.694 48.4409 235.645 48.5447 235.645H185.44C185.544 235.645 185.643 235.694 185.716 235.782C185.79 235.87 185.831 235.988 185.831 236.112C185.831 236.236 185.79 236.355 185.716 236.443C185.643 236.53 185.544 236.58 185.44 236.58Z" fill="#3E92CC"/>
<path d="M283.894 200.351L251.991 247.654L152.795 152.164C141.493 141.284 139.454 121.822 148.249 108.781C157.044 95.7404 173.395 93.982 184.698 104.862L283.894 200.351Z" fill="#F2F2F2"/>
<path d="M254.673 249.636C254.348 250.118 253.875 250.426 253.36 250.492C252.844 250.559 252.327 250.377 251.924 249.989L150.047 151.919C144.514 146.592 140.978 138.858 140.218 130.418C139.458 121.977 141.536 113.521 145.994 106.911C150.452 100.301 156.926 96.0767 163.991 95.1687C171.056 94.2607 178.134 96.743 183.667 102.069L285.544 200.139C285.744 200.332 285.91 200.57 286.034 200.839C286.157 201.108 286.234 201.404 286.262 201.709C286.289 202.014 286.266 202.323 286.194 202.617C286.122 202.912 286.002 203.187 285.84 203.426C285.679 203.665 285.48 203.863 285.255 204.01C285.029 204.157 284.782 204.25 284.526 204.283C284.271 204.315 284.012 204.288 283.766 204.201C283.519 204.115 283.29 203.971 283.09 203.778L181.213 105.708C178.873 103.454 176.185 101.773 173.301 100.76C170.418 99.7479 167.395 99.4241 164.407 99.8074C161.419 100.191 158.523 101.274 155.885 102.994C153.247 104.715 150.919 107.04 149.033 109.836C147.147 112.632 145.741 115.845 144.895 119.29C144.048 122.736 143.778 126.346 144.1 129.916C144.423 133.487 145.33 136.946 146.771 140.097C148.213 143.248 150.16 146.028 152.501 148.28L254.378 246.35C254.781 246.739 255.039 247.304 255.095 247.92C255.15 248.536 254.999 249.153 254.673 249.636Z" fill="#5A5A5A"/>
<path d="M276.532 211.267L169.934 108.653C169.894 108.614 169.861 108.567 169.836 108.513C169.812 108.459 169.796 108.4 169.791 108.339C169.785 108.278 169.79 108.216 169.804 108.158C169.819 108.099 169.843 108.044 169.875 107.996C169.907 107.948 169.947 107.908 169.992 107.879C170.037 107.85 170.087 107.831 170.138 107.825C170.189 107.818 170.24 107.823 170.29 107.841C170.339 107.858 170.385 107.887 170.425 107.925L277.023 210.54C277.063 210.578 277.096 210.626 277.121 210.68C277.145 210.733 277.161 210.793 277.166 210.854C277.172 210.915 277.167 210.976 277.153 211.035C277.138 211.094 277.114 211.149 277.082 211.197C277.05 211.245 277.01 211.285 276.965 211.314C276.92 211.344 276.87 211.362 276.819 211.369C276.768 211.375 276.716 211.37 276.667 211.352C276.618 211.335 276.572 211.306 276.532 211.267V211.267Z" fill="#3E92CC"/>
<path d="M270.642 220L164.045 117.386C163.964 117.308 163.912 117.195 163.901 117.072C163.89 116.949 163.921 116.826 163.986 116.729C164.051 116.633 164.145 116.571 164.248 116.558C164.351 116.544 164.455 116.58 164.535 116.658L271.133 219.272C271.173 219.311 271.206 219.358 271.231 219.412C271.256 219.466 271.271 219.525 271.277 219.586C271.282 219.647 271.278 219.709 271.263 219.768C271.249 219.827 271.225 219.882 271.192 219.93C271.16 219.978 271.12 220.017 271.075 220.047C271.03 220.076 270.981 220.095 270.929 220.101C270.878 220.108 270.827 220.102 270.777 220.085C270.728 220.068 270.682 220.039 270.642 220Z" fill="#3E92CC"/>
<path d="M264.752 228.733L158.155 126.119C158.074 126.041 158.022 125.928 158.011 125.805C158 125.681 158.031 125.558 158.096 125.461C158.161 125.365 158.255 125.303 158.358 125.29C158.462 125.277 158.565 125.313 158.646 125.391L265.243 228.005C265.283 228.044 265.316 228.091 265.341 228.145C265.366 228.199 265.381 228.258 265.387 228.319C265.392 228.38 265.388 228.442 265.373 228.501C265.359 228.56 265.335 228.614 265.302 228.662C265.27 228.71 265.23 228.75 265.185 228.779C265.14 228.809 265.091 228.827 265.04 228.834C264.989 228.84 264.937 228.835 264.888 228.817C264.838 228.8 264.792 228.771 264.752 228.733V228.733Z" fill="#3E92CC"/>
<path d="M258.863 237.466L152.265 134.851C152.225 134.813 152.192 134.765 152.167 134.711C152.143 134.658 152.127 134.598 152.122 134.537C152.116 134.476 152.121 134.415 152.135 134.356C152.15 134.297 152.174 134.242 152.206 134.194C152.238 134.146 152.278 134.107 152.323 134.077C152.368 134.048 152.418 134.029 152.469 134.023C152.52 134.016 152.571 134.022 152.621 134.039C152.67 134.056 152.716 134.085 152.756 134.124L259.354 236.738C259.394 236.776 259.427 236.824 259.452 236.878C259.476 236.932 259.492 236.991 259.497 237.052C259.503 237.113 259.498 237.175 259.484 237.234C259.469 237.293 259.445 237.348 259.413 237.395C259.381 237.443 259.341 237.483 259.296 237.512C259.251 237.542 259.201 237.56 259.15 237.567C259.099 237.573 259.047 237.568 258.998 237.55C258.949 237.533 258.903 237.504 258.863 237.466Z" fill="#3E92CC"/>
<path d="M290.609 252H0.391129C0.287395 252 0.18791 251.951 0.114559 251.863C0.0412078 251.775 0 251.657 0 251.533C0 251.409 0.0412078 251.29 0.114559 251.202C0.18791 251.115 0.287395 251.065 0.391129 251.065H290.609C290.713 251.065 290.812 251.115 290.885 251.202C290.959 251.29 291 251.409 291 251.533C291 251.657 290.959 251.775 290.885 251.863C290.812 251.951 290.713 252 290.609 252Z" fill="#3E92CC"/>
<path d="M132.233 182.532L127.762 182.531L125.635 161.926L132.235 161.927L132.233 182.532Z" fill="#FFB8B8"/>
<path d="M124.568 181.005H133.191V187.492H119.138C119.138 186.64 119.279 185.796 119.551 185.009C119.824 184.222 120.224 183.507 120.728 182.905C121.233 182.302 121.831 181.825 122.49 181.499C123.149 181.173 123.855 181.005 124.568 181.005Z" fill="#2F2E41"/>
<path d="M86.5514 182.532L82.08 182.531L79.9534 161.926L86.5529 161.927L86.5514 182.532Z" fill="#FFB8B8"/>
<path d="M78.886 181.005H87.5095V187.492H73.4564C73.4564 186.64 73.5968 185.796 73.8697 185.009C74.1425 184.222 74.5425 183.507 75.0467 182.905C75.5508 182.302 76.1494 181.825 76.8082 181.499C77.4669 181.173 78.1729 181.005 78.886 181.005Z" fill="#2F2E41"/>
<path d="M101.487 29.688V27.3515C101.487 23.3547 102.816 19.5217 105.181 16.6955C107.547 13.8693 110.755 12.2816 114.1 12.2816H114.101C117.446 12.2816 120.654 13.8693 123.02 16.6955C125.385 19.5217 126.714 23.3547 126.714 27.3515V29.688C126.714 32.5694 125.756 35.3328 124.051 37.3703C122.346 39.4077 120.032 40.5524 117.621 40.5524H110.58C109.386 40.5524 108.204 40.2714 107.1 39.7254C105.997 39.1794 104.995 38.3791 104.15 37.3703C103.306 36.3614 102.636 35.1637 102.179 33.8456C101.722 32.5275 101.487 31.1147 101.487 29.688Z" fill="#2F2E41"/>
<path d="M114.1 41.3563C119.406 41.3563 123.707 36.2179 123.707 29.8793C123.707 23.5408 119.406 18.4023 114.1 18.4023C108.795 18.4023 104.494 23.5408 104.494 29.8793C104.494 36.2179 108.795 41.3563 114.1 41.3563Z" fill="#FFB8B8"/>
<path d="M61.8471 69.3242C62.237 68.8844 62.7028 68.5521 63.2118 68.3507C63.7207 68.1492 64.2605 68.0835 64.793 68.1583C65.3255 68.233 65.8378 68.4463 66.2939 68.7832C66.7499 69.1201 67.1386 69.5723 67.4325 70.1081L75.6676 68.247L77.8348 73.95L66.1744 76.383C65.3883 76.9133 64.4668 77.0806 63.5843 76.8534C62.7019 76.6261 61.9198 76.02 61.3864 75.1499C60.853 74.2798 60.6053 73.2062 60.6902 72.1325C60.7751 71.0588 61.1868 70.0596 61.8471 69.3242V69.3242Z" fill="#FFB8B8"/>
<path d="M106.611 48.5842L106.719 48.7791L93.2147 59.4072L70.4282 68.1002C70.1261 68.2162 69.867 68.4536 69.695 68.7721C69.523 69.0906 69.4487 69.4705 69.4848 69.8471L69.9819 74.9623C70.0039 75.1887 70.0653 75.4071 70.1621 75.6034C70.259 75.7998 70.3891 75.9699 70.5441 76.1026C70.6992 76.2354 70.8757 76.3281 71.0625 76.3746C71.2492 76.4211 71.4421 76.4205 71.6286 76.3728L93.0741 70.8809C94.112 70.6166 95.0933 70.1004 95.9573 69.3643L111.128 56.4687C111.678 55.9987 112.117 55.3666 112.402 54.634C112.687 53.9013 112.809 53.093 112.755 52.2877C112.699 51.4813 112.469 50.706 112.086 50.0382C111.704 49.3704 111.182 48.8331 110.573 48.4791C109.964 48.1251 109.289 47.9666 108.613 48.0192C107.937 48.0718 107.284 48.3337 106.719 48.7791L106.611 48.5842Z" fill="#3E92CC"/>
<path d="M127.842 176.684C127.499 176.684 127.163 176.565 126.875 176.341C126.588 176.117 126.361 175.798 126.223 175.422L105.724 114.908C105.677 114.777 105.596 114.666 105.494 114.591C105.392 114.516 105.273 114.48 105.154 114.488C105.034 114.497 104.919 114.548 104.825 114.636C104.731 114.725 104.661 114.845 104.626 114.982L87.9018 173.895C87.8312 174.169 87.7144 174.423 87.5586 174.641C87.4028 174.859 87.2113 175.037 86.9958 175.164C86.7803 175.29 86.5455 175.363 86.3057 175.377C86.0659 175.391 85.8262 175.346 85.6014 175.245L79.9932 172.733C79.6888 172.598 79.4218 172.364 79.2217 172.059C79.0217 171.753 78.8965 171.387 78.8601 171.002C76.3372 144.744 98.3384 78.4656 98.5609 77.7993L98.6225 77.6147L118.678 82.915L118.72 82.9694C126.722 93.3981 133.299 159.175 134.536 172.255C134.582 172.728 134.492 173.205 134.281 173.608C134.07 174.011 133.75 174.316 133.374 174.473L128.424 176.565C128.237 176.644 128.04 176.684 127.842 176.684Z" fill="#3A3A3A"/>
<path d="M110.561 85.0484C105.702 85.0484 100.285 83.891 98.6172 79.1136L98.5788 79.0038L98.6307 78.9021C99.9469 76.322 101.687 71.9206 100.751 71.0945C98.9096 69.4674 98.0158 66.7908 98.0951 63.1387C98.2674 55.2109 102.789 48.1722 109.346 45.6238H109.346C111.177 44.924 113.039 44.351 114.925 43.9077C116.3 43.5764 117.719 43.6128 119.08 44.0145C120.442 44.4162 121.712 45.1731 122.799 46.2309C123.901 47.2957 124.791 48.6386 125.406 50.1633C126.021 51.6879 126.346 53.3564 126.357 55.0489C126.426 63.5212 125.334 75.3212 119.742 83.4225C119.48 83.7984 119.116 84.0518 118.712 84.138C116.022 84.7194 113.295 85.024 110.561 85.0484Z" fill="#3E92CC"/>
<path d="M108.754 84.7312C109.018 83.5979 109.646 82.6351 110.502 82.052C111.357 81.4689 112.37 81.3126 113.322 81.6171C113.516 81.682 113.705 81.7658 113.888 81.8677L120.141 75.0693L124.489 78.5694L115.547 88.023C115.144 88.8927 114.508 89.5761 113.742 89.9645C112.975 90.3529 112.122 90.4239 111.318 90.1662C110.85 90.0131 110.411 89.7505 110.028 89.3937C109.646 89.037 109.326 88.5931 109.087 88.0877C108.849 87.5823 108.696 87.0254 108.639 86.4493C108.582 85.8732 108.621 85.2892 108.754 84.7312Z" fill="#FFB8B8"/>
<path d="M119.15 84.8175C118.745 84.8178 118.351 84.6502 118.037 84.3431L115.572 81.9358C115.366 81.7351 115.201 81.4814 115.089 81.1938C114.977 80.9062 114.921 80.5921 114.925 80.275C114.93 79.9579 114.994 79.646 115.113 79.3627C115.232 79.0794 115.404 78.832 115.614 78.639L125.956 69.1625C126.079 69.0497 126.159 68.8836 126.18 68.7003C126.201 68.5171 126.16 68.3315 126.067 68.1837L119.684 58.1015C118.942 56.934 118.57 55.4907 118.634 54.0271C118.697 52.5634 119.192 51.1738 120.031 50.1043C120.914 48.9645 122.124 48.2631 123.42 48.1393C124.716 48.0154 126.004 48.4782 127.027 49.4357L127.068 49.4866L133.733 60.8895C134.454 61.5647 135.035 62.4298 135.429 63.4172C135.824 64.4047 136.022 65.4878 136.008 66.582C135.995 67.6761 135.77 68.7517 135.351 69.7247C134.931 70.6977 134.33 71.5418 133.592 72.191L120.198 84.4052C119.895 84.673 119.527 84.8175 119.15 84.8175Z" fill="#3E92CC"/>
<path d="M105.591 26.6507V20.9563L114.1 16.5171L122.214 20.9563V26.6507C122.214 26.8986 122.132 27.1363 121.985 27.3115C121.838 27.4868 121.639 27.5853 121.432 27.5853H106.373C106.166 27.5853 105.967 27.4868 105.82 27.3115C105.674 27.1363 105.591 26.8986 105.591 26.6507Z" fill="#2F2E41"/>
<path d="M113.71 13.0371C112.459 8.25276 115.086 2.76973 118.971 0.875977C122.855 -1.01777 127.503 0.306016 130.78 3.43478C134.058 6.56354 136.092 11.2498 137.169 16.0941C138.247 20.9383 138.451 25.9897 138.65 30.9964C143.423 32.0438 146.67 38.8067 145.016 44.2572C143.363 49.7076 137.244 52.4154 133.017 49.5666C128.791 46.7178 127.567 39.0599 130.617 34.551C132.06 32.4175 132.867 29.7697 132.908 27.027C132.95 24.2843 132.224 21.6035 130.846 19.4091C129.468 17.2148 127.517 15.6323 125.302 14.9124C123.086 14.1924 120.733 14.3762 118.614 15.4345C116.262 16.6097 113.311 13.5563 113.71 13.0371Z" fill="#2F2E41"/>
<path d="M60.083 47.2344C54.3688 47.1896 48.7261 45.7132 43.5194 42.9004C43.2094 42.7354 42.9464 42.4662 42.7622 42.1257C42.578 41.7852 42.4807 41.3881 42.4822 40.9827V23.9651C42.4827 23.4076 42.6683 22.8731 42.9983 22.4789C43.3282 22.0847 43.7756 21.863 44.2422 21.8624H75.9237C76.3903 21.863 76.8377 22.0847 77.1677 22.4789C77.4976 22.8732 77.6832 23.4076 77.6838 23.9651V40.9827C77.6852 41.3881 77.5879 41.7852 77.4037 42.1257C77.2196 42.4662 76.9565 42.7354 76.6465 42.9005C71.4398 45.7132 65.7971 47.1896 60.083 47.2344Z" fill="#3E92CC"/>
<path d="M60.0786 33.4482C59.8437 33.4484 59.6112 33.3926 59.3947 33.2839L34.2717 20.6207C33.9477 20.4574 33.6721 20.1819 33.4804 19.8297C33.2887 19.4776 33.1897 19.0649 33.1961 18.6449C33.2025 18.2248 33.3142 17.8167 33.5165 17.4732C33.7189 17.1297 34.0028 16.8664 34.3316 16.7174L59.4549 5.33078C59.8595 5.14654 60.3069 5.14768 60.7109 5.33398L85.4976 16.7206C85.8245 16.8708 86.1064 17.1341 86.3074 17.4768C86.5083 17.8195 86.6191 18.2261 86.6256 18.6445C86.6321 19.0628 86.5339 19.474 86.3437 19.8253C86.1535 20.1767 85.8799 20.4523 85.5578 20.6168L60.7709 33.2798C60.552 33.3912 60.3165 33.4484 60.0786 33.4482Z" fill="#3E92CC"/>
<path d="M45.4156 44.0583C46.7117 44.0583 47.7624 42.8031 47.7624 41.2546C47.7624 39.7062 46.7117 38.4509 45.4156 38.4509C44.1195 38.4509 43.0688 39.7062 43.0688 41.2546C43.0688 42.8031 44.1195 44.0583 45.4156 44.0583Z" fill="#3F3D56"/>
<path opacity="0.2" d="M85.6435 18.8193L60.8564 31.4823C60.6632 31.581 60.4553 31.6322 60.2451 31.6328C60.0349 31.6334 59.8268 31.5834 59.6332 31.4858L34.5102 18.823C34.1947 18.6678 33.9315 18.3913 33.7621 18.0374C33.6514 18.2669 33.5827 18.522 33.5608 18.7856C33.5388 19.0492 33.564 19.3154 33.6348 19.5665C33.7055 19.8175 33.8202 20.0477 33.9711 20.2418C34.1221 20.4359 34.3058 20.5894 34.5102 20.6921L59.6332 33.355C59.8268 33.4526 60.0349 33.5026 60.2451 33.502C60.4553 33.5014 60.6632 33.4502 60.8564 33.3514L85.6435 20.6884C85.8468 20.5848 86.0295 20.4308 86.1794 20.2366C86.3292 20.0425 86.4429 19.8125 86.513 19.562C86.583 19.3115 86.6078 19.046 86.5856 18.7832C86.5635 18.5204 86.4949 18.2662 86.3845 18.0374C86.2163 18.3885 85.9558 18.6634 85.6435 18.8193Z" fill="black"/>
<path d="M45.6128 41.2437C45.7165 41.2437 45.816 41.1945 45.8894 41.1069C45.9627 41.0192 46.0039 40.9004 46.0039 40.7764V25.1404L58.9038 19.5259C59.0076 19.5278 59.1077 19.4803 59.1821 19.394C59.2566 19.3077 59.2993 19.1895 59.3008 19.0656C59.3023 18.9417 59.2626 18.8221 59.1904 18.7332C59.1181 18.6442 59.0192 18.5932 58.9155 18.5914L46.0156 24.2059C45.9118 24.203 45.8086 24.2254 45.7122 24.2716C45.6158 24.3178 45.5283 24.3868 45.455 24.4746C45.3808 24.5614 45.322 24.665 45.2819 24.7793C45.2418 24.8937 45.2214 25.0165 45.2217 25.1404V40.7764C45.2217 40.9004 45.2629 41.0192 45.3362 41.1068C45.4096 41.1945 45.5091 41.2437 45.6128 41.2437Z" fill="#3F3D56"/>
</svg>
