<svg width="62" height="67" viewBox="0 0 62 67" fill="none" xmlns="http://www.w3.org/2000/svg">
<path d="M16.1833 14.375V6.85H21.15V14.3796V15.2298L22.0002 15.2296L40.0002 15.225L40.85 15.2248V14.375V6.85H45.4833V14.375V15.225H46.3333H50.0433C52.27 15.225 52.9367 15.4744 53.5982 15.8567C54.2885 16.2556 54.8354 16.8417 55.2148 17.6083C55.5828 18.352 55.8167 19.1059 55.8167 21.5325V54.6758C55.8167 57.1024 55.5828 57.8563 55.2148 58.6C54.8354 59.3667 54.2885 59.9527 53.5982 60.3517C52.9367 60.734 52.27 60.9833 50.0433 60.9833H11.6234C9.39667 60.9833 8.73 60.734 8.06847 60.3517C7.37818 59.9527 6.83132 59.3667 6.45191 58.6C6.11117 57.9115 5.88729 57.2152 5.85424 55.2157L5.85 21.5325C5.85 21.5325 5.85 21.5324 5.85 21.5324C5.85001 19.1059 6.08385 18.352 6.45191 17.6083C6.83132 16.8417 7.37818 16.2556 8.06847 15.8567C8.68206 15.5021 9.2983 15.265 11.1259 15.2296L15.3343 15.225L16.1833 15.2241V14.375ZM40.59 34.6235L39.9662 33.9495L39.3424 34.6234L29.0046 45.7912L22.3231 38.5715L21.6992 37.8974L21.0753 38.5715L17.422 42.5195L16.8877 43.0969L17.422 43.6742L28.3821 55.5182L29.006 56.1924L29.6299 55.5182L44.2434 39.7262L44.7776 39.1488L44.2434 38.5715L40.59 34.6235ZM11.9 28.2356V29.0856H12.75H49.5H50.35V28.2356V23C50.35 22.4433 50.1876 21.9477 49.8428 21.5575C49.5122 21.1832 49.0819 20.9834 48.6839 20.8704C48.0006 20.6764 47.1667 20.6796 46.5302 20.682C46.4622 20.6823 46.3964 20.6825 46.3333 20.6825H30.5H15.3333C14.5655 20.6825 13.7217 20.7913 13.0485 21.2221C12.3053 21.6977 11.9 22.4788 11.9 23.5V28.2356Z" fill="#3E92CC" stroke="white" stroke-width="1.7"/>
<rect x="13" y="32" width="33" height="27" fill="#3E92CC"/>
<line x1="21.1141" y1="35.825" x2="38.9761" y2="50.9556" stroke="white" stroke-width="3" stroke-linecap="round"/>
<line x1="21.1672" y1="50.955" x2="38.8853" y2="35.8328" stroke="white" stroke-width="3" stroke-linecap="round"/>
</svg>
