<svg width="22" height="22" viewBox="0 0 22 22" fill="none" xmlns="http://www.w3.org/2000/svg">
<circle cx="11" cy="11" r="11" fill="#3E92CC"/>
<g clip-path="url(#clip0_35_271)">
<path d="M10.4969 16.1275H11.3631V15.2612H10.4969V16.1275ZM10.93 5.7325C10.6909 5.7325 10.4969 5.92654 10.4969 6.16563V10.5073H7.03187C6.79279 10.5073 6.59875 10.7013 6.59875 10.9404C6.59875 11.1795 6.79279 11.3735 7.03187 11.3735H10.93C11.1691 11.3735 11.3631 11.1795 11.3631 10.9404V6.16563C11.3631 5.92654 11.1691 5.7325 10.93 5.7325ZM6.91624 13.8891L7.51568 14.4898L8.11513 13.8891L7.51568 13.2884L6.91624 13.8891ZM8.19827 7.60489L7.58539 6.99247L6.97295 7.60489L7.58539 8.21734L8.19827 7.60489ZM13.5617 7.58324L14.1611 8.18398L14.7606 7.58324L14.1611 6.9825L13.5617 7.58324ZM13.4348 13.8657L14.0472 14.4782L14.6597 13.8657L14.0472 13.2533L13.4348 13.8657ZM15.2612 10.4969V11.3631H16.1275V10.4969H15.2612ZM10.93 4C7.10247 4 4 7.10292 4 10.93C4 14.7575 7.10247 17.86 10.93 17.86C14.7575 17.86 17.86 14.7571 17.86 10.93C17.86 7.10292 14.7575 4 10.93 4ZM10.93 16.9937C7.58107 16.9937 4.86625 14.2789 4.86625 10.93C4.86625 7.58107 7.58107 4.86625 10.93 4.86625C14.2789 4.86625 16.9937 7.58107 16.9937 10.93C16.9937 14.2789 14.2789 16.9937 10.93 16.9937Z" fill="white"/>
</g>
<defs>
<clipPath id="clip0_35_271">
<rect width="13.86" height="13.86" fill="white" transform="translate(4 4)"/>
</clipPath>
</defs>
</svg>
