<svg width="55" height="51" viewBox="0 0 55 51" fill="none" xmlns="http://www.w3.org/2000/svg">
<g clip-path="url(#clip0_29_85)">
<path d="M54.1475 12.6988C53.686 12.127 53.0359 11.6884 52.1979 11.3821C52.2426 12.097 52.1879 12.6789 52.0336 13.1285L42.1257 43.355C41.9492 43.8858 41.5636 44.3094 40.9698 44.6259C40.3751 44.9427 39.7588 45.1009 39.1202 45.1009H8.63661C5.9945 45.1009 4.40946 44.3873 3.8808 42.9572C3.66066 42.4058 3.67177 41.9672 3.91412 41.6405C4.15612 41.334 4.57441 41.1805 5.16924 41.1805H33.8695C35.9173 41.1805 37.3318 40.8281 38.1136 40.1237C38.8959 39.4193 39.6828 37.8521 40.4749 35.4229L49.5243 7.67632C50.0085 6.16558 49.8105 4.83837 48.9296 3.69534C48.0487 2.55231 46.7939 1.98047 45.1645 1.98047H20.0314C19.7452 1.98047 19.1836 2.07207 18.3469 2.25593L18.3797 2.16379C17.7631 2.0415 17.2401 1.98551 16.8109 1.99527C16.3817 2.00589 15.9853 2.12313 15.622 2.34807C15.2588 2.57269 14.9668 2.81232 14.7468 3.0674C14.5267 3.3227 14.3117 3.64943 14.1027 4.04739C13.8939 4.44588 13.7175 4.81349 13.5744 5.1503C13.4313 5.48712 13.266 5.84464 13.0792 6.22275C12.8918 6.60044 12.7106 6.91173 12.5343 7.15662C12.4021 7.31998 12.2153 7.5343 11.9728 7.79979C11.7309 8.06516 11.5326 8.30008 11.3786 8.50421C11.2246 8.70833 11.1252 8.89208 11.0815 9.05556C11.0378 9.23909 11.0595 9.50962 11.1475 9.86714C11.2355 10.2241 11.2687 10.4842 11.2463 10.6477C11.1584 11.4235 10.8556 12.4084 10.3384 13.6031C9.82117 14.7976 9.35278 15.6605 8.9346 16.191C8.84657 16.2929 8.60457 16.5227 8.20814 16.8801C7.8117 17.2373 7.56959 17.5484 7.48178 17.8138C7.39364 17.9158 7.38808 18.2017 7.46513 18.6713C7.54217 19.1411 7.57005 19.4675 7.54784 19.6512C7.45934 20.3456 7.1846 21.2642 6.722 22.4077C6.2594 23.5508 5.79726 24.4901 5.33466 25.225C5.26884 25.3474 5.0819 25.582 4.77327 25.9294C4.46533 26.2767 4.27781 26.5625 4.21188 26.7865C4.16792 26.9499 4.1737 27.2357 4.22853 27.644C4.28325 28.0523 4.27781 28.3584 4.21188 28.5624C4.03593 29.3377 3.70555 30.2722 3.22108 31.3647C2.73673 32.4565 2.24128 33.3917 1.73449 34.1667C1.60284 34.3711 1.42076 34.6113 1.18987 34.8865C0.958624 35.1618 0.777123 35.4019 0.644902 35.606C0.512911 35.8101 0.424764 36.0244 0.38069 36.2491C0.358711 36.3717 0.392026 36.5707 0.480058 36.8467C0.567975 37.122 0.601175 37.3414 0.578849 37.5053C0.556638 37.7909 0.512911 38.169 0.446858 38.6388C0.38069 39.1079 0.34749 39.3831 0.34749 39.4647C-0.13686 40.6901 -0.115112 41.9866 0.413659 43.3551C1.03023 44.9467 2.12537 46.2899 3.69965 47.382C5.27404 48.4745 6.90859 49.02 8.60422 49.02H39.0882C40.5188 49.02 41.8675 48.5758 43.1336 47.6881C44.3996 46.7999 45.2421 45.703 45.6597 44.3955L54.7418 16.6497C55.2267 15.1793 55.0288 13.8625 54.1475 12.6988ZM19.0073 12.76L19.701 10.7998C19.7889 10.5344 19.9704 10.3048 20.2457 10.1108C20.521 9.91723 20.8019 9.81994 21.0881 9.81994H41.1688C41.4768 9.81994 41.6969 9.9168 41.8291 10.1108C41.9609 10.3049 41.9835 10.5344 41.8956 10.7998L41.2013 12.76C41.1129 13.0255 40.9321 13.2546 40.6561 13.4491C40.3805 13.6427 40.1002 13.7396 39.8142 13.7396H19.7341C19.4257 13.7396 19.2057 13.643 19.0734 13.4491C18.9413 13.2546 18.9194 13.0255 19.0073 12.76ZM16.2662 20.6L16.9599 18.6401C17.0478 18.3748 17.2295 18.1451 17.5046 17.9512C17.7799 17.7571 18.0604 17.6603 18.347 17.6603H38.4269C38.7353 17.6603 38.9558 17.7568 39.0877 17.9512C39.2196 18.1452 39.2417 18.3748 39.1534 18.6401L38.4598 20.6C38.372 20.8654 38.1903 21.0953 37.9152 21.289C37.6395 21.483 37.3593 21.5799 37.0727 21.5799H16.9927C16.6845 21.5799 16.4644 21.4834 16.3324 21.289C16.2001 21.0953 16.1782 20.8654 16.2662 20.6Z" fill="white"/>
</g>
<defs>
<clipPath id="clip0_29_85">
<rect width="55" height="51" fill="white"/>
</clipPath>
</defs>
</svg>
