<svg width="120" height="120" viewBox="0 0 120 120" fill="none" xmlns="http://www.w3.org/2000/svg">
<circle cx="60" cy="60" r="58.5" fill="white" stroke="#3E92CC" stroke-width="3"/>
<path d="M102.021 46.5856L61.2917 22.2236C60.7932 21.9255 60.2063 21.9255 59.7079 22.2236L18.979 46.5856C18.379 46.9444 18 47.6781 18 48.4802C18 49.2828 18.379 50.0162 18.979 50.3749L32.4619 58.4396V74.6284C32.4619 84.6265 44.7777 92.4586 60.5 92.4586C76.2223 92.4586 88.5379 84.6269 88.5379 74.6284V58.4396L93.2438 55.6248V71.0751C91.0745 71.9594 89.5095 74.4191 89.5095 77.3098C89.5095 79.9305 90.7957 82.1978 92.6525 83.2577L88.8907 95.1308C88.6845 95.7818 88.7587 96.5125 89.0894 97.0852C89.4201 97.658 89.9648 98 90.5467 98H99.4838C100.066 98 100.61 97.658 100.941 97.0852C101.272 96.5125 101.346 95.7818 101.14 95.131L97.3782 83.2579C99.2346 82.198 100.521 79.9307 100.521 77.31C100.521 74.4191 98.9554 71.9592 96.7857 71.0751V53.5065L102.021 50.3751C102.621 50.0162 103 49.2826 103 48.4804C103 47.6781 102.621 46.9444 102.021 46.5856ZM78.2815 83.8438C73.5616 86.6669 67.2465 88.222 60.4998 88.222C53.7532 88.222 47.4383 86.6671 42.7181 83.8438C38.4511 81.2914 36.0035 77.9326 36.0035 74.6286V60.5582L59.7079 74.7371C59.9573 74.8862 60.2286 74.9607 60.4998 74.9607C60.7711 74.9607 61.0424 74.8862 61.2917 74.7371L84.9962 60.5582V74.6286C84.9962 77.9326 82.5488 81.2914 78.2815 83.8438ZM93.1113 93.7636L95.015 87.7553L96.9185 93.7636H93.1113ZM96.9786 77.3102C96.9788 78.6059 96.0978 79.6596 95.015 79.6596C93.9319 79.6596 93.0511 78.6057 93.0511 77.3102C93.0511 76.0181 93.9274 74.9671 95.0062 74.9613C95.009 74.9613 95.0117 74.9617 95.0145 74.9617C95.0175 74.9617 95.0203 74.9613 95.0231 74.9613C96.1021 74.9669 96.9786 76.0179 96.9786 77.3102ZM94.6551 50.0438L60.6585 46.3713C59.6845 46.2652 58.8236 47.1254 58.7356 48.2906C58.6476 49.456 59.366 50.4857 60.34 50.591L88.6309 53.6471L60.4998 70.4739L23.7305 48.4802L60.4998 26.487L97.2692 48.4804L94.6551 50.0438Z" fill="#3E92CC"/>
</svg>
