<svg width="22" height="22" viewBox="0 0 22 22" fill="none" xmlns="http://www.w3.org/2000/svg">
<circle cx="11" cy="11" r="11" fill="#3E92CC"/>
<path d="M16.1648 5.59125L14.4148 3.71625C14.3877 3.68725 14.3555 3.66426 14.3201 3.64861C14.2846 3.63295 14.2467 3.62493 14.2083 3.625H7.79167C7.71431 3.625 7.64013 3.65792 7.58543 3.71653C7.53073 3.77513 7.5 3.85462 7.5 3.9375V5.5H6.04167C5.96431 5.5 5.89013 5.53292 5.83543 5.59153C5.78073 5.65013 5.75 5.72962 5.75 5.8125V17.0625C5.75 17.1454 5.78073 17.2249 5.83543 17.2835C5.89013 17.3421 5.96431 17.375 6.04167 17.375H14.2083C14.2857 17.375 14.3599 17.3421 14.4146 17.2835C14.4693 17.2249 14.5 17.1454 14.5 17.0625V15.5H15.9583C16.0357 15.5 16.1099 15.4671 16.1646 15.4085C16.2193 15.3499 16.25 15.2704 16.25 15.1875V5.8125C16.2501 5.77143 16.2426 5.73076 16.228 5.69279C16.2134 5.65483 16.1919 5.62032 16.1648 5.59125ZM14.5 4.69188L15.2542 5.5H14.5V4.69188ZM13.9167 16.75H6.33333V6.125H7.5V15.1875C7.5 15.2704 7.53073 15.3499 7.58543 15.4085C7.64013 15.4671 7.71431 15.5 7.79167 15.5H13.9167V16.75ZM8.08333 14.875V4.25H13.9167V5.8125C13.9167 5.89538 13.9474 5.97487 14.0021 6.03347C14.0568 6.09208 14.131 6.125 14.2083 6.125H15.6667V14.875H8.08333Z" fill="white"/>
<path d="M8.95832 7.375C9.03568 7.375 9.10986 7.34208 9.16456 7.28347C9.21926 7.22487 9.24999 7.14538 9.24999 7.0625V6.75H9.83332V7.0625C9.83332 7.14538 9.86405 7.22487 9.91875 7.28347C9.97345 7.34208 10.0476 7.375 10.125 7.375C10.2023 7.375 10.2765 7.34208 10.3312 7.28347C10.3859 7.22487 10.4167 7.14538 10.4167 7.0625V5.8125C10.4167 5.56386 10.3245 5.3254 10.1604 5.14959C9.99628 4.97377 9.77372 4.875 9.54166 4.875C9.30959 4.875 9.08703 4.97377 8.92294 5.14959C8.75884 5.3254 8.66666 5.56386 8.66666 5.8125V7.0625C8.66666 7.14538 8.69739 7.22487 8.75208 7.28347C8.80678 7.34208 8.88097 7.375 8.95832 7.375ZM9.54166 5.5C9.61901 5.5 9.6932 5.53292 9.7479 5.59153C9.80259 5.65013 9.83332 5.72962 9.83332 5.8125V6.125H9.24999V5.8125C9.24999 5.72962 9.28072 5.65013 9.33542 5.59153C9.39011 5.53292 9.4643 5.5 9.54166 5.5Z" fill="white"/>
<path d="M11.2917 6.125H11.5833V6.4375C11.5833 6.52038 11.6141 6.59987 11.6688 6.65847C11.7235 6.71708 11.7976 6.75 11.875 6.75C11.9524 6.75 12.0265 6.71708 12.0812 6.65847C12.1359 6.59987 12.1667 6.52038 12.1667 6.4375V6.125H12.4583C12.5357 6.125 12.6099 6.09208 12.6646 6.03347C12.7193 5.97487 12.75 5.89538 12.75 5.8125C12.75 5.72962 12.7193 5.65013 12.6646 5.59153C12.6099 5.53292 12.5357 5.5 12.4583 5.5H12.1667V5.1875C12.1667 5.10462 12.1359 5.02513 12.0812 4.96653C12.0265 4.90792 11.9524 4.875 11.875 4.875C11.7976 4.875 11.7235 4.90792 11.6688 4.96653C11.6141 5.02513 11.5833 5.10462 11.5833 5.1875V5.5H11.2917C11.2143 5.5 11.1401 5.53292 11.0854 5.59153C11.0307 5.65013 11 5.72962 11 5.8125C11 5.89538 11.0307 5.97487 11.0854 6.03347C11.1401 6.09208 11.2143 6.125 11.2917 6.125Z" fill="white"/>
<path d="M8.95832 13H10.125C10.2023 13 10.2765 12.9671 10.3312 12.9085C10.3859 12.8499 10.4167 12.7704 10.4167 12.6875V11.4375C10.4167 11.3546 10.3859 11.2751 10.3312 11.2165C10.2765 11.1579 10.2023 11.125 10.125 11.125H8.95832C8.88097 11.125 8.80678 11.1579 8.75208 11.2165C8.69739 11.2751 8.66666 11.3546 8.66666 11.4375V12.6875C8.66666 12.7704 8.69739 12.8499 8.75208 12.9085C8.80678 12.9671 8.88097 13 8.95832 13ZM10 12.375L9.83332 11.75V12.375H9.24999H10Z" fill="white"/>
<path d="M11.2917 11.75H13.0417C13.119 11.75 13.1932 11.7171 13.2479 11.6585C13.3026 11.5999 13.3333 11.5204 13.3333 11.4375C13.3333 11.3546 13.3026 11.2751 13.2479 11.2165C13.1932 11.1579 13.119 11.125 13.0417 11.125H11.2917C11.2143 11.125 11.1401 11.1579 11.0854 11.2165C11.0307 11.2751 11 11.3546 11 11.4375C11 11.5204 11.0307 11.5999 11.0854 11.6585C11.1401 11.7171 11.2143 11.75 11.2917 11.75Z" fill="white"/>
<path d="M14.7917 12.375H11.2917C11.2143 12.375 11.1401 12.4079 11.0854 12.4665C11.0307 12.5251 11 12.6046 11 12.6875C11 12.7704 11.0307 12.8499 11.0854 12.9085C11.1401 12.9671 11.2143 13 11.2917 13H14.7917C14.869 13 14.9432 12.9671 14.9979 12.9085C15.0526 12.8499 15.0833 12.7704 15.0833 12.6875C15.0833 12.6046 15.0526 12.5251 14.9979 12.4665C14.9432 12.4079 14.869 12.375 14.7917 12.375Z" fill="white"/>
<path d="M8.95832 10.5H10.125C10.2023 10.5 10.2765 10.4671 10.3312 10.4085C10.3859 10.3499 10.4167 10.2704 10.4167 10.1875V8.9375C10.4167 8.85462 10.3859 8.77513 10.3312 8.71653C10.2765 8.65792 10.2023 8.625 10.125 8.625H8.95832C8.88097 8.625 8.80678 8.65792 8.75208 8.71653C8.69739 8.77513 8.66666 8.85462 8.66666 8.9375V10.1875C8.66666 10.2704 8.69739 10.3499 8.75208 10.4085C8.80678 10.4671 8.88097 10.5 8.95832 10.5ZM10.125 9.875L9.83332 9.25V9.875H9.24999H10.125Z" fill="white"/>
<path d="M11.2917 9.25H13.0417C13.119 9.25 13.1932 9.21708 13.2479 9.15847C13.3026 9.09987 13.3333 9.02038 13.3333 8.9375C13.3333 8.85462 13.3026 8.77513 13.2479 8.71653C13.1932 8.65792 13.119 8.625 13.0417 8.625H11.2917C11.2143 8.625 11.1401 8.65792 11.0854 8.71653C11.0307 8.77513 11 8.85462 11 8.9375C11 9.02038 11.0307 9.09987 11.0854 9.15847C11.1401 9.21708 11.2143 9.25 11.2917 9.25Z" fill="white"/>
<path d="M14.7917 9.875H11.2917C11.2143 9.875 11.1401 9.90792 11.0854 9.96653C11.0307 10.0251 11 10.1046 11 10.1875C11 10.2704 11.0307 10.3499 11.0854 10.4085C11.1401 10.4671 11.2143 10.5 11.2917 10.5H14.7917C14.869 10.5 14.9432 10.4671 14.9979 10.4085C15.0526 10.3499 15.0833 10.2704 15.0833 10.1875C15.0833 10.1046 15.0526 10.0251 14.9979 9.96653C14.9432 9.90792 14.869 9.875 14.7917 9.875Z" fill="white"/>
<path d="M14.7917 13.625H8.95832C8.88097 13.625 8.80678 13.6579 8.75208 13.7165C8.69739 13.7751 8.66666 13.8546 8.66666 13.9375C8.66666 14.0204 8.69739 14.0999 8.75208 14.1585C8.80678 14.2171 8.88097 14.25 8.95832 14.25H14.7917C14.869 14.25 14.9432 14.2171 14.9979 14.1585C15.0526 14.0999 15.0833 14.0204 15.0833 13.9375C15.0833 13.8546 15.0526 13.7751 14.9979 13.7165C14.9432 13.6579 14.869 13.625 14.7917 13.625Z" fill="white"/>
</svg>
